<?xml version="1.0" encoding="utf-8"?>
<!-- Generator: Adobe Illustrator 27.0.0, SVG Export Plug-In . SVG Version: 6.00 Build 0)  -->
<svg version="1.1" xmlns="http://www.w3.org/2000/svg" xmlns:xlink="http://www.w3.org/1999/xlink" x="0px" y="0px"
	 viewBox="0 0 1167.4 983.4" style="enable-background:new 0 0 1167.4 983.4;" xml:space="preserve">
<style type="text/css">
	.st0{fill:#FFD678;}
	.st1{fill:none;stroke:#1F2221;stroke-width:2;stroke-linecap:round;stroke-miterlimit:10;}
	.st2{fill:#FFFFFF;}
	
		.st3{clip-path:url(#SVGID_00000014598104308691661950000013744939772371859620_);fill:none;stroke:#1F2221;stroke-width:2;stroke-linecap:round;stroke-miterlimit:10;}
	.st4{fill:#212121;}
	.st5{fill:#F0A759;}
	.st6{fill:#3F3051;}
	.st7{fill:#54C485;}
	.st8{fill:none;stroke:#FFFFFF;stroke-width:2;stroke-linecap:round;stroke-miterlimit:10;}
	.st9{fill:#F7BC00;}
	.st10{fill:#F0912B;}
	.st11{fill:#C74E22;}
	.st12{clip-path:url(#SVGID_00000020370625970797688390000003516469964413575321_);}
	.st13{fill:none;stroke:#4A4551;stroke-width:2;stroke-linecap:round;stroke-miterlimit:10;}
	
		.st14{clip-path:url(#SVGID_00000140007458701646887700000011838179984841494193_);fill:none;stroke:#FFFFFF;stroke-width:2;stroke-linecap:round;stroke-miterlimit:10;}
	
		.st15{clip-path:url(#SVGID_00000063618828205913607900000004267317611862775440_);fill:none;stroke:#FFFFFF;stroke-width:2;stroke-linecap:round;stroke-miterlimit:10;}
	.st16{fill:#B06F28;}
	.st17{fill:none;stroke:#FFFFFF;stroke-width:3;stroke-linecap:round;stroke-miterlimit:10;}
	.st18{fill:none;stroke:#1F2221;stroke-width:3;stroke-linecap:round;stroke-miterlimit:10;}
	.st19{fill:#965F22;}
	
		.st20{clip-path:url(#SVGID_00000151537872194678207620000007537867633014497414_);fill:none;stroke:#FFFFFF;stroke-width:3;stroke-linecap:round;stroke-miterlimit:10;}
	.st21{fill:none;stroke:#4A4551;stroke-width:3;stroke-linecap:round;stroke-miterlimit:10;}
	.st22{fill:none;stroke:#8A3618;stroke-width:3;stroke-linecap:round;stroke-miterlimit:10;}
	.st23{fill:#F59F42;}
	.st24{fill:#FFB96E;}
	.st25{fill:#F1AE00;}
	.st26{fill:#FFAE00;}
	.st27{fill:#FF9900;}
	.st28{fill:#FFAB52;}
</style>
<g id="BACKGROUND">
</g>
<g id="OBJECTS">
	<g>
		<g>
			<path class="st0" d="M61.1,658.5c0,0,15.8-55,66.5-51.9c63.6,3.9,96.9,2.9,96.9,2.9s-33.6-42.4,5.9-69.5c56-38.5,112,41,112,41
				s23.1-36.2,58.6-17.7c23.9,12.5,19.8,44.4,19.8,44.4s42.2-15.6,71.5,13.8C492.3,621.5,221.8,635.7,61.1,658.5z"/>
			<path class="st0" d="M831.7,626.2l-108.5-2.9c0,0,23.1-26.9,44.4-34.8c24.8-9.2,43.2,0.5,43.2,0.3
				c-15.6-92.7,168.7,19.6,168.7,19.6s51-59.1,83.9-31.7c22.5,18.8-6.1,48.6-6.1,48.6l55.7,27.7L831.7,626.2z"/>
		</g>
		<path class="st1" d="M0,666.5c0,0,583.8-95.9,1144.4-6.2"/>
	</g>
	<g>
		<path class="st1" d="M107.9,903.7c1.3,1.3-7.6-27.9-7.6-27.9l31.7,17.7l24.1-41.8l5.1,40.5l31.7-12.7l-1.3,21.5"/>
		<polyline class="st1" points="841.1,857.1 826.7,819.2 855.4,838.8 880.2,815.3 876.3,848 		"/>
		<polyline class="st1" points="346.6,935 342.1,917.9 364.3,933 383.5,914.8 380.5,940.1 		"/>
	</g>
	<g>
		<path class="st1" d="M954,218.3l87.7-1.6l-20.1-8.3c0,0-11.5-35.2-32-10.7c0,0-19.1-15.1-20.2,12.4L954,218.3z"/>
		<path class="st2" d="M102.9,209.2c2.7-0.9,213.3,0,213.3,0l-45.8-22.9c0,0-3.1-56-64.7-11c0,0-29-39.9-48.1,16.6L102.9,209.2z"/>
		<path class="st1" d="M267.8,95.7h136l-13.4-6.8c0,0-11.9-58.6-69.2-18.7c0,0-28.7-18.7-30.4,15.4L267.8,95.7z"/>
		<path class="st2" d="M814.7,116.3h157.1l-15.5-7.8c0,0-13.8-67.7-80-21.6c0,0-33.1-21.6-35.1,17.7L814.7,116.3z"/>
	</g>
	<g>
		<ellipse class="st2" cx="771.8" cy="346.1" rx="23.2" ry="22.5"/>
		<g>
			<defs>
				<ellipse id="SVGID_1_" cx="771.7" cy="345.9" rx="23.2" ry="22.5"/>
			</defs>
			<clipPath id="SVGID_00000021832851982812701500000013629996971321717636_">
				<use xlink:href="#SVGID_1_"  style="overflow:visible;"/>
			</clipPath>
			
				<ellipse style="clip-path:url(#SVGID_00000021832851982812701500000013629996971321717636_);fill:none;stroke:#1F2221;stroke-width:2;stroke-linecap:round;stroke-miterlimit:10;" cx="755.3" cy="340.6" rx="24.5" ry="23.7"/>
		</g>
	</g>
	<g>
		<ellipse class="st0" cx="871.4" cy="699.2" rx="105.4" ry="17"/>
		<g>
			<g>
				<g>
					<g>
						<path class="st4" d="M979.5,378.7c0,0,62.5-49.6,66.5-7.9c4,41.7-24.7,65.6-24.7,65.6s-12.8-47.9-29.8-45.9
							S979.5,378.7,979.5,378.7z"/>
						<path class="st4" d="M898.7,318.3c0,0-0.1-44.5-27-43.9c-27,0.5-33.7,42.9-33.7,42.9s14.8-14.3,25.4-6.3
							c10.6,7.9,16.9,22.7,16.9,22.7L898.7,318.3z"/>
						<path class="st2" d="M871.3,327.2c-2.5-5.7,2.4-13.3,11-17c8.5-3.7,17.4-2,19.9,3.8c2.5,5.7-2.4,13.3-11,17
							C882.6,334.6,873.7,333,871.3,327.2z"/>
						<path class="st2" d="M985.4,365.9c5.6-2.8,12.8,0.5,16.2,7.3c3.4,6.8,1.5,14.5-4,17.3c-5.6,2.8-12.8-0.5-16.2-7.3
							C978,376.4,979.8,368.6,985.4,365.9z"/>
						<path class="st5" d="M887.2,580.5c0,0-4.1,50-1,67.1c3.8,21,24.5,43.5,24.5,43.5s12.3,3,23.1-4c0,0-11.9-15.2-9.6-38.1
							c1.6-15.5,2.7-32.4,2-45.4C924.6,571.3,887.2,580.5,887.2,580.5z"/>
						<path class="st6" d="M897.1,699.8c3.3-1.6,5.7-3.6,7.3-6.7c0.1-0.1,0.1-0.2,0.2-0.4c3.3-6.5,0-9.5,0-9.5
							c7.2-2.4,10.2,1.7,11.1,3.7c4-0.7,8.9-2.8,13.6-8.2c0,0,6.4,8.2,4.6,11.6c-1.8,3.4-12.4,15.1-27.6,17.9
							C899.6,709.6,885.4,705.6,897.1,699.8z"/>
						<path class="st5" d="M841.8,581.4c0,0-23.8,40.3-25.1,57.7c-1.5,21.3-0.1,39.3-0.1,39.3s6,9.5,20.4,11.6
							c0,0,22.8-51.8,29.2-83.6C872.8,574.6,841.8,581.4,841.8,581.4z"/>
						<path class="st6" d="M838.4,686.6c0,0-0.4,10.4-4,11.9c-3.6,1.4-23.6,1.7-35-1c-6.6-1.6-14.7-8.1-2.2-11.5
							c12.5-3.5,19.5-7.5,19.5-7.5S822.9,689.1,838.4,686.6z"/>
						<path class="st6" d="M822.4,685.1c0,0,3.4-7.4-5.8-11.1c0,0,0.6,4.3-6.1,7.2C803.8,684.2,820.4,686.5,822.4,685.1z"/>
						<path class="st7" d="M930.7,549.6c0,0,9.5,37.1,3,77.7c0,0-19.4,16-52.9,3.8l-1.6-38.3l-11.8,35.9c0,0-29.8,7.4-53.7-22.9
							l42-68.7L930.7,549.6z"/>
						<path class="st5" d="M959.3,545c0,0-14.2-1.3-16.5-32.3s20.8-22.1,24.1,0.8C970.3,536.3,959.3,545,959.3,545z"/>
						<path class="st5" d="M796,472.5c0,0-14.7,2.6-13.5-7.5c1.2-10.1,9.5-10.1,13.5-5.4C800,464.3,802.8,469.4,796,472.5z"/>
						<path class="st4" d="M970.3,436c0,0,44.1-22.7,21.8-61.6c-22.3-38.8-51.2-45.5-51.2-45.5s-13.5-25.4-52-10.2
							c-30.5,12-42.2,47.1-41.3,57.1C848.5,385.8,970.3,436,970.3,436z"/>
						<path class="st5" d="M807.8,454.6c-1.2-0.6,15.1,22.4,35.2,25.6c20.1,3.2,43.1-6.8,43.1-6.8L870.9,516c0,0-56.8,0.5-76.5-43.7
							L807.8,454.6z"/>
						<path class="st8" d="M921.5,465.7c0,0-7.8,13.7-27,11.3c-14.3-1.8-16.7-13.3-16.7-13.3"/>
						<path class="st9" d="M852,514.6c-2,13.3-5.2,24.3-10.1,37.7c36.4,17.5,83.1,15.1,100,14.3c0.5-12.6,0.5-26-0.3-38.6
							c18.5-0.3,29.5-16.2,32-19.2c-23.3-48.6-58.1-44.6-58.1-44.6l-28.1-0.9c-7-4.9-30.2-1.4-51.5,14.8
							C835.8,478,830.4,494.3,852,514.6z"/>
						<path class="st5" d="M809.6,461.2c0,0-3.5-20.7-9.2-21.9c-3-0.6-2.8,11.9-2.8,11.9s-6.3-0.8-9.6-4c-3.3-3.2-4.6-8.5-7.3-6.4
							c-2.7,2.1,1.9,11.3,1.9,11.3s-3.9-7.7-5.9-5.2c-2,2.6,3.6,10.6,3.6,10.6s-3.2-7-5.5-4c-2.2,3.1,4.6,11.9,6.3,9.6
							c0.9-1.2-5.1-3.8-5.9-1.1c-0.8,2.6,11.3,15.3,26.8,10.1C817.6,466.9,809.6,461.2,809.6,461.2z"/>
						<path class="st4" d="M945.3,436.3c0,0,56.9,4.8,30.5-37.8L945.3,436.3z"/>
						<path class="st10" d="M850.1,378.8c0,0-5.2-16.8-14.8-9.2c-9.6,7.6,2.4,24.9,3.6,25.7C840.1,396.1,850.1,378.8,850.1,378.8z"
							/>
						<path class="st1" d="M844.5,386c0,0,1.4-10.2-5.4-12.7"/>
						<path class="st10" d="M916,451.1l-0.6,13.1c0,0-18.9,13.1-29.3-1l1.2-18.7L916,451.1z"/>
						<path d="M883.7,427.3c-10.2,5.5-22.9,1.6-28.4-8.5c-5.5-10.2-1.6-22.9,8.5-28.4c10.2-5.5,22.9-1.6,28.4,8.5
							C897.8,409.1,893.9,421.8,883.7,427.3z"/>
						<path class="st5" d="M964.2,425.2c2.9-4.9,5.4-8.1,6.7-13.9c7.4-32.8-15.5-65.9-51.1-73.9c-35.6-8-64.9,26.7-84.5,58.8
							c-17.5,28.7,22.2,52,57.8,60c17.3,3.9,34.3,1.2,48.2-6.4c2.2,4.2,7.1,7.3,14.2,7c7.3-0.3,15.5-3.8,17.6-13.2
							C975,435.3,971.6,428.5,964.2,425.2z"/>
						<path class="st4" d="M936.3,418.5c0.2-2.7-0.6-7.2-7-11.7c-1.3-0.9-3-0.5-3.7,0.9l0,0c-0.6,1.2-0.2,2.7,1,3.4
							c2.6,1.5,6.8,4.3,8.5,7.7C935.3,419.3,936.2,419.2,936.3,418.5z"/>
						<path class="st4" d="M852.3,374.8c2.1-1.7,6.3-3.6,13.6-0.9c1.4,0.5,2.1,2.2,1.4,3.6h0c-0.6,1.2-2.1,1.7-3.4,1.2
							c-2.7-1.3-7.4-3.1-11.2-2.6C852.2,376.1,851.8,375.2,852.3,374.8z"/>
						<path class="st1" d="M874.8,408.2c0,0-1,4.8-7,5.8c-1.3,0.2-2.2,1.5-1.9,2.8c0.4,1.5,1.5,3.2,4.2,3.9"/>
						<path class="st1" d="M965.3,446.7c3.9-4.3,1.8-13-11.5-11"/>
						<path class="st4" d="M858.6,422.2c0,2.5,0.4,6.7,2.4,10c0.9,1.5,2.2,2.8,3.9,3.7c4,2,7.4,0.2,9.8-2c1.1-1,2-2.1,2.6-3
							c0.4-0.6,0.1-1.4-0.6-1.6c-3-0.8-10.2-3-16.5-7.8C859.6,420.9,858.6,421.3,858.6,422.2z"/>
						<path class="st11" d="M861,432.1c0.9,1.5,2.2,2.8,3.9,3.7c4,2,7.4,0.2,9.8-2c-1.2-2.2-4.1-3.8-7.5-3.8
							C864.7,429.9,862.5,430.8,861,432.1z"/>
						<ellipse class="st10" cx="910.5" cy="439.4" rx="9.7" ry="5.6"/>
						<path class="st10" d="M837.3,404.4c-1.9,2.4-0.4,6.8,3.4,9.8c3.8,3,8.4,3.5,10.3,1.1c1.9-2.4,0.4-6.8-3.4-9.8
							C843.8,402.5,839.2,402,837.3,404.4z"/>
						<path class="st10" d="M947.7,444.5c0,2.6,3.2,4.8,7.2,4.8c4,0,7.2-2.1,7.2-4.8c0-2.6-3.2-4.8-7.2-4.8
							C951,439.7,947.7,441.8,947.7,444.5z"/>
						<path class="st1" d="M795.7,452.7c0,0-4.5,9.4,4.6,13.4"/>
						<g>
							<path class="st2" d="M898.3,413.2c-1.9,3.6,2.5,9.6,9.7,13.4c7.3,3.8,14.7,3.9,16.6,0.3c1.9-3.6-2.5-9.6-9.7-13.4
								S900.2,409.5,898.3,413.2z"/>
							<path class="st4" d="M903.4,412.7c-2.5,2.3-3.2,5.5-1.7,7.3c1.6,1.7,4.9,1.3,7.4-1c2.5-2.3,3.2-5.5,1.7-7.3
								C909.2,409.9,905.9,410.4,903.4,412.7z"/>
						</g>
						<g>
							<path class="st2" d="M845.6,390.5c-1.6,3.1,2.1,8.4,8.4,11.6c6.3,3.3,12.8,3.4,14.4,0.2c1.6-3.1-2.1-8.4-8.4-11.6
								C853.7,387.4,847.2,387.3,845.6,390.5z"/>
							<path class="st4" d="M850.6,389.4c-2.2,2-2.8,4.8-1.4,6.3c1.4,1.5,4.3,1.1,6.4-0.9c2.2-2,2.8-4.8,1.4-6.3
								C855.6,387.1,852.7,387.5,850.6,389.4z"/>
						</g>
						<line class="st1" x1="856.1" y1="498.2" x2="852" y2="514.6"/>
						<path class="st1" d="M941.5,528c0,0,0.3-9.1-2.9-17.3"/>
						<path class="st5" d="M1002.8,511.8c0,0-25.9,37.9-43.5,33.1c-17.6-4.8-1-42.8,27.4-51.4L1002.8,511.8z"/>
						<path class="st4" d="M964.2,425.2c0,0-23.2-11.2-30.6-40.9l-2.5,10.3c0,0-26.8-4.9-29.3-43.7l-52.8,21.9
							c0,0,29.3-50.7,70.9-43.3C961.7,336.8,1017.1,367.5,964.2,425.2z"/>
						<g>
							<g>
								<defs>
									
										<ellipse id="SVGID_00000078758848637794136420000001491535811432923278_" transform="matrix(0.6508 -0.7592 0.7592 0.6508 70.279 959.0226)" cx="1077.7" cy="403.1" rx="76.3" ry="62.7"/>
								</defs>
								<clipPath id="SVGID_00000146477440734052195900000005848292853809602200_">
									<use xlink:href="#SVGID_00000078758848637794136420000001491535811432923278_"  style="overflow:visible;"/>
								</clipPath>
								<g style="clip-path:url(#SVGID_00000146477440734052195900000005848292853809602200_);">
									<g>
										<line class="st8" x1="1187.6" y1="436.2" x2="1013" y2="284.7"/>
										<line class="st8" x1="1170.4" y1="463.8" x2="995.8" y2="312.3"/>
										<line class="st8" x1="1153.1" y1="491.4" x2="978.5" y2="339.9"/>
										<line class="st8" x1="1135.9" y1="519" x2="961.3" y2="367.5"/>
									</g>
									<g>
										<line class="st8" x1="1103.3" y1="300.3" x2="951.8" y2="474.8"/>
										<line class="st8" x1="1130.9" y1="317.5" x2="979.4" y2="492.1"/>
										<line class="st8" x1="1158.5" y1="334.8" x2="1007" y2="509.3"/>
										<line class="st8" x1="1186.1" y1="352" x2="1034.6" y2="526.6"/>
									</g>
								</g>
							</g>
							<g>
								
									<ellipse transform="matrix(0.6508 -0.7592 0.7592 0.6508 70.2964 959.1683)" class="st1" cx="1077.9" cy="403.2" rx="76.3" ry="62.7"/>
								<path class="st4" d="M987.8,507.2L987.8,507.2c4.1,3.5,10.2,3,13.7-1.1L1035,466l-14.8-12.7l-33.5,40.1
									C983.2,497.6,983.7,503.7,987.8,507.2z"/>
							</g>
						</g>
						<path class="st5" d="M977.8,503.7c0,0-0.7-25.3,18-24.4c3.8,0.2,17.9,4.3,11.9,9.4c-6,5.1-12.4,0.4-12.4,0.4
							s-0.7,13.2-13.4,12.8L977.8,503.7z"/>
						<path class="st5" d="M1016.7,497.2c-0.8-1-8.5-7.7-11.9-4.3c-3.4,3.4,0.7,8.4,0.7,8.4s-5.6-5.9-9-1.3c-1.9,2.5,3,6.8,3,6.8
							s-6-2.3-6.8,0.9c-0.8,3.2,7.1,12.6,12.9,5.2c0,0,9.5,3.1,7.3-5.3C1012.7,507.6,1024.6,507.2,1016.7,497.2z"/>
						<path class="st1" d="M1013.8,506.9c-1-0.3-4.7-1.9-8.3-7.1"/>
						<path class="st1" d="M1005.4,512.9c0,0-4.2-3.1-6.7-6.6"/>
						<path class="st1" d="M992.6,508.9c0,0-0.5,2,2.7,4.7"/>
						<path class="st1" d="M879.2,592.7c0,0-1.3-8.3,1.2-27.2"/>
						<path class="st1" d="M918.3,568.1c0,0-1.4,11.8,16.3,12.9"/>
						<g>
							<path class="st13" d="M919.6,342.6c0,0-4.3,16.2,6.6,32.7"/>
							<path class="st13" d="M942.7,354.7c0,0-3.1,24,20.9,44.9"/>
							<path class="st13" d="M892.2,337.3c-1.4-0.3-27.5,17-27.5,17"/>
						</g>
						<path class="st13" d="M887.7,300.7c0,0-3.5-23.4-25-9.5"/>
					</g>
					<path class="st7" d="M1013.5,463.4l15,11.1c2.3,1.7,5.4,1.2,7.1-1l5.5-7.4c1.7-2.3,1.2-5.4-1-7.1l-15-11.1
						c-2.3-1.7-5.4-1.2-7.1,1l-5.5,7.4C1010.8,458.5,1011.3,461.7,1013.5,463.4z"/>
				</g>
				<path class="st1" d="M851.5,557.8c0,0-4,5.1-9.9,3.7"/>
			</g>
			
				<ellipse transform="matrix(0.7071 -0.7071 0.7071 0.7071 -90.9332 775.0608)" class="st1" cx="890.1" cy="497.3" rx="10.4" ry="10.4"/>
		</g>
		<g>
			<defs>
				<path id="SVGID_00000178197723736373034360000006916913152745636260_" d="M897.1,699.9c3.3-1.6,5.7-3.6,7.3-6.7
					c0.1-0.1,0.1-0.2,0.2-0.4c3.3-6.5,0-9.5,0-9.5c7.2-2.4,10.2,1.7,11.1,3.7c4-0.7,8.9-2.8,13.6-8.2c0,0,6.4,8.2,4.6,11.6
					c-1.8,3.4-12.4,15.1-27.6,17.9C899.6,709.7,885.4,705.7,897.1,699.9z"/>
			</defs>
			<clipPath id="SVGID_00000127003778423656661080000012396658427942328706_">
				<use xlink:href="#SVGID_00000178197723736373034360000006916913152745636260_"  style="overflow:visible;"/>
			</clipPath>
			
				<circle style="clip-path:url(#SVGID_00000127003778423656661080000012396658427942328706_);fill:none;stroke:#FFFFFF;stroke-width:2;stroke-linecap:round;stroke-miterlimit:10;" cx="934.6" cy="690.3" r="7.8"/>
		</g>
		<g>
			<defs>
				<path id="SVGID_00000017495448794741424620000014784072750764183478_" d="M838.4,686.6c0,0-0.4,10.4-4,11.9s-23.6,1.7-35-1
					c-6.6-1.6-14.7-8.1-2.2-11.5c12.5-3.5,19.5-7.5,19.5-7.5S822.9,689.2,838.4,686.6z"/>
			</defs>
			<clipPath id="SVGID_00000061437007243779277700000000440397473169541050_">
				<use xlink:href="#SVGID_00000017495448794741424620000014784072750764183478_"  style="overflow:visible;"/>
			</clipPath>
			
				<circle style="clip-path:url(#SVGID_00000061437007243779277700000000440397473169541050_);fill:none;stroke:#FFFFFF;stroke-width:2;stroke-linecap:round;stroke-miterlimit:10;" cx="833.6" cy="698.7" r="7.8"/>
		</g>
		<path class="st8" d="M941.9,556.7c-1.1,0.4-59.9,2.4-96.5-13.4"/>
		
			<ellipse transform="matrix(0.7071 -0.7071 0.7071 0.7071 -90.2789 775.1996)" class="st8" cx="890.6" cy="496.6" rx="16.8" ry="16.8"/>
		<path class="st8" d="M929.7,581.5c0.4,1.8,0.7,36.7-1.8,48.9"/>
		<path class="st8" d="M857.7,627.9c0,0,10.8-37.4,18-39.9"/>
	</g>
	<ellipse class="st0" cx="590.3" cy="847" rx="183.9" ry="52.3"/>
	<ellipse class="st0" cx="297.8" cy="776.4" rx="183.9" ry="37.5"/>
	<g>
		<g>
			<line class="st1" x1="1010.2" y1="835.7" x2="974.6" y2="784.7"/>
			
				<rect x="974.2" y="770.8" transform="matrix(0.8232 -0.5678 0.5678 0.8232 -268.2754 699.692)" class="st7" width="30.1" height="19.6"/>
			<path class="st7" d="M1012,833c8,9.5,5.4,23.8-5.5,29.8c-8,4.4-18.3,2.6-24.3-4.5c-8-9.5-5.4-23.8,5.5-29.8
				C995.7,824.1,1006,826,1012,833z"/>
		</g>
		<g>
			<line class="st1" x1="872.4" y1="164.3" x2="904.7" y2="112.3"/>
			
				<rect x="899.3" y="114.3" transform="matrix(0.8465 0.5325 -0.5325 0.8465 206.359 -467.6803)" class="st11" width="29.6" height="19.2"/>
			<path class="st11" d="M875.5,164.8c-5.5,10.9-19.4,14.1-29.1,6.6c-7.1-5.5-9.4-15.6-5.4-23.7c5.5-10.9,19.4-14.1,29.1-6.6
				C877.2,146.7,879.5,156.7,875.5,164.8z"/>
		</g>
		<g>
			<line class="st1" x1="193.8" y1="245.1" x2="219" y2="201.5"/>
			<line class="st1" x1="232.7" y1="267.8" x2="256.9" y2="225.3"/>
			
				<rect x="213.9" y="207.2" transform="matrix(0.8636 0.5041 -0.5041 0.8636 140.7506 -90.0887)" class="st7" width="46" height="15.8"/>
			
				<ellipse transform="matrix(0.9289 -0.3704 0.3704 0.9289 -75.0952 84.5086)" class="st7" cx="182.5" cy="237.8" rx="15.8" ry="15.8"/>
			<path class="st7" d="M235,268.5c-4.4,7.5-14.1,10.1-21.6,5.7c-7.5-4.4-10.1-14.1-5.7-21.6c4.4-7.5,14.1-10.1,21.6-5.7
				C236.9,251.2,239.4,260.9,235,268.5z"/>
		</g>
	</g>
	<g>
		<g>
			<g>
				<g>
					<path class="st16" d="M300.8,511.8c0,0,16.2,2.9,14.9-8.4c-1.3-11.3-10.5-11.3-14.9-6C296.4,502.6,293.3,508.3,300.8,511.8z"/>
					<path class="st16" d="M310.3,484.4c0,0,8.4-0.7,10.9,2.9c3.9,5.6-22.8,16.7-26.2,14.5C291.7,499.5,310.3,484.4,310.3,484.4z"/>
					<path class="st4" d="M108,470.8c0,0-48.8-25.5-24.1-69.2c24.6-43.6,56.6-51.1,56.6-51.1s-1.6-30.9,42.5-18.1
						c44,12.8,61.9,59.6,60.8,70.8C242.7,414.4,108,470.8,108,470.8z"/>
					<path class="st16" d="M189.9,638.7c0,0,14.5,50.5,11.1,69.8c-4.2,23.6-10.7,42.8-10.7,42.8s-9,8.7-25.1,6.9
						c0,0-10.2-62.7-8.5-99.1C158.6,622.7,189.9,638.7,189.9,638.7z"/>
					<path class="st6" d="M164.8,754.1c0,0-2.4,11.5,1,14c3.5,2.5,24.8,8.5,37.8,8.7c7.5,0.1,17.9-4.7,5.5-12
						c-12.4-7.2-18.8-13.6-18.8-13.6S180.7,761.2,164.8,754.1z"/>
					<path class="st6" d="M182.3,757c0,0-1.6-9,9.2-10.4c0,0-1.8,4.6,4.6,9.6C202.5,761.1,184.1,759,182.3,757z"/>
					<path class="st16" d="M250.1,634c0,0,26.4,45.3,27.7,64.8c1.7,23.9,0.1,44.2,0.1,44.2s-6.6,10.7-22.6,13
						c0,0-25.2-58.2-32.4-93.9C215.8,626.5,250.1,634,250.1,634z"/>
					<path class="st6" d="M254,752.2c0,0,0.4,11.7,4.4,13.3c4,1.6,26.1,2,38.8-1.1c7.3-1.8,16.2-9.1,2.4-13
						c-13.8-3.9-21.5-8.5-21.5-8.5S271.1,755.1,254,752.2z"/>
					<path class="st6" d="M271.6,750.6c0,0-3.8-8.3,6.4-12.4c0,0-0.6,4.9,6.8,8.1C292.2,749.5,273.9,752.1,271.6,750.6z"/>
					<path class="st16" d="M287.8,491.7c1.3-0.7-16.7,25.1-38.9,28.8c-22.2,3.6-47.7-7.6-47.7-7.6l16.8,47.8c0,0,62.9,0.6,84.6-49
						L287.8,491.7z"/>
					<path class="st16" d="M168.7,502.4c0,0-22.2,8.3-27.9,11.3c-10.7,5.7-30.4,38.2-39.9,44.2c-15.7,9.9-34.6,14.6-34.6,14.6
						s-4.7,11,1,21.6c0,0,43.5,0,74.1-29.4C172,535.2,168.7,502.4,168.7,502.4z"/>
					<path class="st17" d="M162,504.1c0,0,8.6,15.4,29.9,12.7c15.9-2,18.4-14.9,18.4-14.9"/>
					<path class="st11" d="M274.6,665.2c0,0-77.8,42.6-130,15.4c0,0-1.5-11.5-3-28.5c20.4,3.7,87.3,12.4,119.1-23.1
						C264.7,639.4,269.3,651.2,274.6,665.2z"/>
					<path class="st9" d="M260.7,629.1c-31.8,35.5-98.8,26.7-119.1,23.1c-1.8-21.2-3.5-51.1-1.8-78.1c-20.5-0.4-32.6-18.2-35.4-21.6
						c25.8-54.6,64.2-50.1,64.2-50.1l31.1-1.1c7.8-5.5,33.4-1.5,57,16.7c0,0,6,18.2-17.9,41C242.3,582.1,249,599.1,260.7,629.1z"/>
					<path class="st16" d="M90.7,583.5c0,0-4.3,23.2-10.7,24.4c-3.4,0.6-2.8-13.4-2.8-13.4s-7,0.8-10.7,4.3c-3.7,3.5-5.3,9.4-8.2,7
						c-2.9-2.4,2.4-12.6,2.4-12.6s-4.5,8.6-6.6,5.6c-2.1-3,4.2-11.8,4.2-11.8s-3.8,7.8-6.1,4.3c-2.4-3.5,5.4-13.3,7.2-10.6
						c0.9,1.4-5.8,4.1-6.6,1.1c-0.8-3,12.9-16.9,29.9-10.7S90.7,583.5,90.7,583.5z"/>
					<path class="st18" d="M71.5,585.1c0,0-8.4,1.4-11.6,9.3"/>
					<path class="st18" d="M67.6,580.1c0,0-8.8,1.5-12.1,10.6"/>
					<path class="st18" d="M65.9,575.5c-0.2,0-9.2,2.2-11.6,7.8"/>
					<path class="st7" d="M278.3,465.6l47.2,52.3l7.3-3.6l-42.3-58.9c-3.2-4.4-9.6-4.4-12.8,0l0,0
						C275.5,458.6,275.8,462.8,278.3,465.6z"/>
					<path class="st4" d="M135.6,471.1c0,0-63,5.4-33.8-42.5L135.6,471.1z"/>
					<path class="st19" d="M240.9,406.6c0,0,5.8-18.9,16.4-10.4c10.7,8.6-2.7,27.9-4,28.8C252,426,240.9,406.6,240.9,406.6z"/>
					<path class="st18" d="M247.2,414.6c0,0-1.5-11.5,6-14.2"/>
					<path class="st19" d="M168.1,487.7l0.6,14.7c0,0,20.9,14.8,32.5-1.1l-1.3-21L168.1,487.7z"/>
					<path d="M203.8,461c11.3,6.1,25.3,1.9,31.4-9.6c6.1-11.4,1.8-25.7-9.4-31.8c-11.3-6.1-25.3-1.9-31.4,9.6
						C188.3,440.6,192.5,454.8,203.8,461z"/>
					<path class="st16" d="M114.7,458.6c-3.2-5.5-6-9.2-7.5-15.6c-8.2-36.8,17.2-74,56.6-83c39.4-9,71.9,30,93.5,66
						c19.4,32.2-24.5,58.4-64,67.4c-19.1,4.4-38,1.3-53.3-7.2c-2.4,4.7-7.9,8.1-15.7,7.8c-8.1-0.3-17.2-4.2-19.5-14.8
						C102.8,470,106.5,462.4,114.7,458.6z"/>
					<path class="st4" d="M157.1,442.8c-0.2-3,0.7-8.1,7.8-13.1c1.4-1,3.3-0.5,4.1,1l0,0c0.7,1.4,0.3,3.1-1.1,3.8
						c-2.9,1.7-7.5,4.8-9.4,8.6C158.1,443.8,157.1,443.6,157.1,442.8z"/>
					<path class="st4" d="M240.4,408.1c-2.3-1.9-7-4-15.1-1c-1.6,0.6-2.3,2.5-1.6,4v0c0.7,1.4,2.3,2,3.7,1.3c3-1.4,8.2-3.5,12.3-2.9
						C240.6,409.6,241,408.6,240.4,408.1z"/>
					<path class="st18" d="M213.6,439.6c0,0,1.1,5.4,7.7,6.5c1.5,0.3,2.4,1.7,2,3.1c-0.5,1.7-1.6,3.6-4.6,4.4"/>
					<path class="st18" d="M113.5,482.8c-4.4-4.9-2-14.6,12.8-12.3"/>
					<path class="st4" d="M231.6,455.3c0,2.8-0.4,7.5-2.7,11.2c-1,1.7-2.4,3.1-4.3,4.1c-4.4,2.3-8.2,0.2-10.9-2.3
						c-1.2-1.2-2.2-2.4-2.8-3.3c-0.5-0.7-0.1-1.6,0.6-1.8c3.3-0.8,11.3-3.3,18.2-8.8C230.5,453.8,231.6,454.3,231.6,455.3z"/>
					<path class="st11" d="M228.9,466.4c-1,1.7-2.4,3.1-4.3,4.1c-4.4,2.3-8.2,0.2-10.9-2.3c1.3-2.5,4.5-4.3,8.3-4.3
						C224.8,464,227.3,464.9,228.9,466.4z"/>
					<path class="st19" d="M184.9,474.6c0,3.4-4.8,6.2-10.8,6.2s-10.8-2.8-10.8-6.2c0-3.4,4.8-6.2,10.8-6.2S184.9,471.2,184.9,474.6
						z"/>
					<path class="st19" d="M255.1,435.3c2.1,2.7,0.4,7.6-3.7,11c-4.2,3.4-9.3,3.9-11.4,1.2c-2.1-2.7-0.4-7.6,3.7-11
						C247.9,433.1,253,432.6,255.1,435.3z"/>
					<path class="st19" d="M133,480.3c0,3-3.6,5.4-8,5.4c-4.4,0-8-2.4-8-5.4c0-3,3.6-5.4,8-5.4C129.4,474.9,133,477.3,133,480.3z"/>
					<path class="st4" d="M114.5,378c0,0-2.6-51-54.9-29.2c-52.3,21.9-3.3,83.5,29.4,70.3C121.7,405.9,114.5,378,114.5,378z"/>
					<path class="st4" d="M114.7,458.6c0,0,29.8-16.8,25.4-54.2c0,0,8,12.2,15,0c6.9-12.2-1.8-37.1-1.8-37.1s18.1,12.1,38.7,20.2
						c26.5,10.5,32.2,4.3,40.9-1.3c8.8-5.6-9.1-39.3-48.3-33C145.6,359.5,36.6,375.2,114.7,458.6z"/>
					<path class="st4" d="M119.9,375c0.4-1.1,9.1-38.4-16-41.7c-25.1-3.3-57.8,30.2-32.7,52C96.3,407.1,119.9,375,119.9,375z"/>
					<path class="st18" d="M44.5,378.1c0,0-27.2,55.2,46.3,49.2"/>
					<path class="st4" d="M319.9,511.8c0,0-2.7,16.2,6.6,19.7c9.3,3.5,14,7.5,14,7.5s11.5-27.1-13-32.4L319.9,511.8z"/>
					<path class="st16" d="M282.8,498.6c0,0,6.7-21,19.8-16.4c7.5,2.6-1.4,7.4-1.4,7.4s3.9,7.2-3.4,14.5
						C290.4,511.4,277.3,516.5,282.8,498.6z"/>
					<path class="st18" d="M301.2,489.6c0,0,4.9,10.6-5.1,15.1"/>
					<path class="st18" d="M306.5,497.4c0,0-6.5,2.3-4.2,6.2c2.3,3.9,9.3-0.8,9.3-0.8"/>
					<path class="st18" d="M307.1,511.7c0,0-7-3.5-1.2-6.2"/>
					<g>
						<path class="st2" d="M187.6,445.1c2.1,4.1-2.7,10.8-10.8,15.1c-8,4.3-16.3,4.4-18.3,0.3c-2.1-4.1,2.7-10.8,10.8-15.1
							C177.3,441.2,185.5,441.1,187.6,445.1z"/>
						<path class="st4" d="M180.2,448.2c2.8,2.6,3.6,6.2,1.8,8.2c-1.8,2-5.4,1.5-8.2-1.1c-2.8-2.6-3.6-6.2-1.8-8.2
							C173.8,445.1,177.5,445.6,180.2,448.2z"/>
					</g>
					<g>
						<path class="st2" d="M246,419.6c1.8,3.5-2.4,9.4-9.4,13.1c-7,3.7-14.1,3.8-15.9,0.3c-1.8-3.5,2.4-9.4,9.4-13.1
							C237,416.2,244.2,416.1,246,419.6z"/>
						<path class="st4" d="M239.6,422.3c2.4,2.2,3.1,5.4,1.6,7.1c-1.5,1.7-4.7,1.3-7.1-1c-2.4-2.2-3.1-5.4-1.6-7.1
							C234,419.6,237.2,420.1,239.6,422.3z"/>
					</g>
					<g>
						<ellipse class="st17" cx="171.3" cy="451.9" rx="26.3" ry="26.7"/>
						<ellipse class="st17" cx="236.9" cy="419.8" rx="26.3" ry="26.7"/>
						<path class="st17" d="M211.6,430.3c0,0-10.6-3.3-16.4,9.2"/>
						<path class="st17" d="M105,468.5c0,0,5.9-20.1,41.2-8.2"/>
					</g>
					<line class="st18" x1="234.4" y1="540.6" x2="238.9" y2="559"/>
					<path class="st18" d="M139.8,574.1c0,0-0.3-10.2,3.2-19.4"/>
					<polygon class="st17" points="192.6,534.8 202.6,547.7 218.8,546.6 209.8,560.3 215.8,575.5 200.2,571.1 187.8,581.6 
						187.1,565.2 173.4,556.4 188.6,550.7 					"/>
					<g>
						<defs>
							<path id="SVGID_00000140007936335268549810000002066686404007975351_" d="M238.9,559c23.9-22.8,17.9-41.1,17.9-41.1
								c-23.7-18.2-49.3-22.2-57-16.7l-31,1c0,0-38.4-4.5-64.3,50.1c2.8,3.4,14.9,21.2,35.4,21.6c-3.1,48.6,4.8,106.6,4.8,106.6
								c52.1,27.2,130-15.4,130-15.4C254.1,610.1,243.4,590,238.9,559z"/>
						</defs>
						<clipPath id="SVGID_00000060709697913659746760000002527458938815738811_">
							<use xlink:href="#SVGID_00000140007936335268549810000002066686404007975351_"  style="overflow:visible;"/>
						</clipPath>
						
							<path style="clip-path:url(#SVGID_00000060709697913659746760000002527458938815738811_);fill:none;stroke:#FFFFFF;stroke-width:3;stroke-linecap:round;stroke-miterlimit:10;" d="
							M135.9,666.3c0,0,72.9,31.6,139.6-23.4"/>
					</g>
				</g>
				<path class="st11" d="M168.6,499.2c0,0,15.3,12.8,32.3-1.1l9.5,0.9c0,0,0.1,12.7-20.4,17.6c-20.6,4.9-31.9-13.4-31.9-13.4
					L168.6,499.2z"/>
			</g>
			<path class="st21" d="M167,351c0,0,24.5,33.4,51.8,25.6"/>
			<path class="st21" d="M141.8,367.3c1.4,4.3,4.2,31.2-12.6,28.4c0,0,2.8,39-25.9,40.5"/>
			<path class="st21" d="M56.4,363.1c0,0,7.7-17,37.8,4.3"/>
			<path class="st21" d="M94.2,344.6c0,0,11.2,21.3,11.9,23.4"/>
		</g>
		<g>
			<polygon class="st2" points="418.4,625.1 269.9,625.1 324.4,437 461.3,437 			"/>
			<path class="st7" d="M428.4,636.3h-174c-3.9,0-7-3.2-7-7.1l0,0c0-3.9,3.1-7.1,7-7.1h174c3.9,0,7,3.2,7,7.1l0,0
				C435.4,633.1,432.3,636.3,428.4,636.3z"/>
			<circle class="st7" cx="366.5" cy="541.7" r="24.3"/>
			<g>
				<polyline class="st18" points="284.5,781.4 368.3,538.6 438.5,774.8 				"/>
				<line class="st18" x1="401.6" y1="375.7" x2="368.3" y2="538.6"/>
				<line class="st18" x1="368.7" y1="540.8" x2="379.1" y2="781.3"/>
			</g>
		</g>
	</g>
	<g>
		<g>
			<path class="st22" d="M722.5,195.6c0,0,43.6-17.7,51.2,25.3"/>
			<path class="st22" d="M715.3,212c0,0,36-21.7,21.4-60.4"/>
			<path class="st11" d="M553.8,105.7c0,0-66.9-42.6-66.1,77.2l15.2,17.1L553.8,105.7z"/>
			<path class="st23" d="M502.8,190.9c0,0-9.8-31.6-27.8-17.3c-18,14.3,4.5,46.6,6.8,48.1C484,223.2,502.8,190.9,502.8,190.9z"/>
			<path class="st18" d="M492.2,204.2c0,0,2.5-19.1-10.1-23.7"/>
			<path class="st24" d="M423.3,403.9c0,0,46.6,51.7,23.9,64.9c-32.1,18.7-44.4-28.7-41.9-64.9L423.3,403.9z"/>
			<path class="st24" d="M508.1,459.8c-0.6,1.2-57.8,48.6-90.1,4.6c-11.9-16.2,14.8-41.6,67.3-48.9S508.1,459.8,508.1,459.8z"/>
			<path class="st24" d="M676.2,506.2c0,0,22,65.7,9.4,124.3C667.2,716.3,714.5,843,714.5,843s-29.2,19.7-53.8,5.1L629,784.1
				c-11.2-21.3-20.1-43.8-26.3-67.1l-20.6-77.1c0,0-32.2,154.3-30.1,209.3c0,0-31.7,13.7-52.6-4.5c0,0-18.6-184.4-1.7-330.4
				L676.2,506.2z"/>
			<path class="st6" d="M630.8,867.8c0.9,1.6,8.7,2.2,19.3,2c26.6-0.5,71.2-6.2,69.8-14.9c-1.7-10.4-7.5-18.3-7.5-18.3
				c0,0-0.1,0-0.1,0c-30.1,11.3-51.4,10.4-52.2,10.3c0,0,0,0,0,0s-8.8,4.2-16.8,9C635.9,860.2,629.3,865.1,630.8,867.8z"/>
			<path class="st6" d="M464.8,863.3c0.7,1.8,9.3,3.7,21,5c27,3.1,70.3,3.5,70.2-5.1c-0.2-10.5-3-18.7-3-18.7
				c-0.3,0.1-0.7,0.1-1,0.2c-31.5,6.7-52.4-0.4-52.4-0.4s0,0-0.1,0c-1.2,0.4-10.5,3.7-19.1,7.6C471.8,855.9,463.7,860.4,464.8,863.3
				z"/>
			<path class="st7" d="M694.8,601.5c0,0,2.1,2.1-4.8,35.7c-6.9,33.6,14.4,115.2,28.8,156.4c0,0-49.6,29.1-91.5,17.5
				c0,0-40.2-77.2-42.2-148.5c0,0-17.8,110.7-8.2,149.1c0,0-55,15.9-96.2-8.1c0,0-9.4-143.1,11.8-222
				C513.8,502.8,694.8,601.5,694.8,601.5z"/>
			<path class="st17" d="M671.6,598.5c0,0-6.9,6.9-9.9,59.4c-3,52.4,23.8,128.6,23.8,128.6"/>
			<path class="st18" d="M585.1,662.6c0,0-9.8-13.4-14.7-20.3"/>
			<path class="st11" d="M496,470.3c-8.9,38-22.9,79.9-27.6,107.8c-1.3,7.7,2.4,15.3,9.2,19.1c32.5,18.2,134.9,64.5,245.8,3.8
				c16.3-8.9-2.5-63-14-129.4c2,0.4-10,21.3-8.1,21.5c1,0.1,2.1,0.2,3.1,0.3c3.2-7,31.7-72.8-2-110.8c-10.1-8.1-18.9-14.7-27.4-18.3
				c-55-23.4-104.9-15.6-104.9-15.6s-79.8-5.6-118,90C452.1,438.8,467.6,458.6,496,470.3z"/>
			<path class="st18" d="M695.3,492c0,0-6.3-16.2-6.9-28.3"/>
			<line class="st18" x1="495.9" y1="470.3" x2="505.3" y2="427.5"/>
			<path class="st2" d="M581.8,449.7c0,0,17.2-29.7,31.2-11.4c12.6,16.6-41.5,62.6-41.5,62.6s-32.9-62.9-9.6-73.1
				C572.4,423.2,581.8,449.7,581.8,449.7z"/>
			<path class="st18" d="M560.1,419c0,7.3-5.9,13.2-13.2,13.2c-7.3,0-13.2-5.9-13.2-13.2s5.9-13.2,13.2-13.2
				C554.2,405.8,560.1,411.7,560.1,419z"/>
			<g>
				<g>
					<g>
						<path class="st25" d="M366.6,361.1l-4.2,15.1c-0.7,2.5-3.5,3.7-5.7,2.5l-7.4-4c-2.3-1.2-2.9-4.3-1.1-6.3l10.8-11.6
							c1.3-1.4,3.3-1.7,4.9-0.8l0.9,0.5C366.3,357.4,367.1,359.3,366.6,361.1z"/>
						<path class="st25" d="M345.2,348.4l-4.2,15.1c-0.7,2.5-3.5,3.7-5.7,2.5l-7.4-4c-2.3-1.2-2.9-4.3-1.1-6.3l10.8-11.6
							c1.3-1.4,3.3-1.7,4.9-0.8l0.9,0.5C344.9,344.7,345.7,346.6,345.2,348.4z"/>
						<path class="st25" d="M324.7,336.8l-5.5,14.7c-0.9,2.4-3.8,3.3-5.9,2l-7.1-4.6c-2.2-1.4-2.5-4.6-0.5-6.3l11.8-10.7
							c1.4-1.2,3.4-1.4,4.9-0.3l0.8,0.6C324.7,333.1,325.3,335.1,324.7,336.8z"/>
						<path class="st25" d="M339.8,295.4l5.9-14.7c1-2.4,3.9-3.3,6-1.8l7,4.8c2.2,1.5,2.4,4.7,0.4,6.4l-12.1,10.5
							c-1.4,1.2-3.5,1.3-5,0.2l-0.8-0.6C339.7,299.2,339.1,297.2,339.8,295.4z"/>
						<path class="st25" d="M358.6,310.1l5.9-14.7c1-2.4,3.9-3.3,6-1.8l7,4.8c2.2,1.5,2.4,4.7,0.4,6.4l-12.1,10.5
							c-1.4,1.2-3.5,1.3-5,0.2l-0.8-0.6C358.4,313.9,357.9,311.9,358.6,310.1z"/>
						<path class="st25" d="M376,325.6l7.1-14.1c1.2-2.3,4.2-2.9,6.2-1.3l6.6,5.4c2.1,1.7,2,4.9-0.2,6.4l-13,9.4
							c-1.5,1.1-3.6,1-5-0.2l-0.8-0.7C375.6,329.3,375.2,327.3,376,325.6z"/>
						<path class="st6" d="M377.9,365.4c-0.6,0.8-1.5,1.1-2.4,1l-17.9-3.2c-0.5-0.1-1.1-0.3-1.5-0.6l-45.8-29.4
							c-1.3-1.1-1.5-3.1-0.5-4.5l24.8-35.3c1-1.4,2.8-1.8,4.3-0.9l40.8,35.8c0.3,0.3,0.6,0.6,0.9,1l9.4,17.9
							c0.4,0.8,0.4,1.9-0.2,2.6L377.9,365.4z"/>
					</g>
					<path class="st26" d="M575.6,414.5c-33.1-8.8-22.5-35.8-52.7-42.8c-27.8-6.4-44.4,10.7-53,21.3c-8,10.4-27.9,40.9-12.7,65.1
						c18.6,29.8,37.4,6.6,55.3,35.9c17.9,29.2,20.4,70.9,65,77.5c26.6,3.9,51-10.9,67.2-26.7c2.2-2.1,13.2-14.7,20.4-28.6
						c10.3-20.2,15.1-33.9,2-59.9C646.8,416,608.7,423.3,575.6,414.5z"/>
					<path class="st27" d="M570,427.2c-33.1-8.8-21.5-36-51.6-42.9c-27.8-6.4-51,13.6-59.7,24.2c-8,10.4-25.2,44.9-10.1,69.1
						c18.6,29.8,31.6,15.7,49.5,45c17.9,29.2,26.2,61.8,70.9,68.4c26.6,3.9,51-10.9,67.2-26.7c2.2-2.1,13.2-14.7,20.4-28.6
						c10.3-20.2,16.6-39,3.5-65C639.7,430.3,603.1,436,570,427.2z"/>
					<path class="st6" d="M494.7,462.3l-117.2-94.8c-1.1-0.8-1.3-2.4-0.4-3.5l11-14.2c0.8-1,2.3-1.3,3.4-0.5l123.7,84.2L494.7,462.3
						z"/>
					
						<ellipse transform="matrix(0.7412 -0.6713 0.6713 0.7412 -172.9343 468.9535)" class="st7" cx="521.7" cy="458.8" rx="40" ry="40"/>
					<ellipse transform="matrix(0.944 -0.33 0.33 0.944 -122.1543 197.8454)" class="st6" cx="521.7" cy="458.8" rx="22" ry="22"/>
					<polygon class="st6" points="573.5,523.1 561.5,513.4 584.2,477.6 596.5,485.2 					"/>
					<path class="st25" d="M381.1,367.9l11.5-14.8c0.8-1.1,0.6-2.6-0.4-3.5l0,0c-1.1-0.8-2.6-0.7-3.4,0.4l-12,14.5
						c-0.9,1.1-0.7,2.8,0.5,3.6l2.7,1.9C381.1,370.8,380.3,369,381.1,367.9z"/>
				</g>
				<path class="st17" d="M577.9,487.7c-4.4-1.9-187-132.6-187-132.6"/>
				<line class="st17" x1="571.8" y1="497.3" x2="387" y2="361.1"/>
				<line class="st17" x1="564.9" y1="505.9" x2="382.4" y2="366.4"/>
			</g>
			<path class="st24" d="M671.1,420.9c-1.6-0.6-27.7,49.5-31.2,50.3L565.4,445c0,0-23.9-4.3-27.7,14.8c-3.8,19.1,11.5,3.3,11.5,3.3
				s-9.1,8.1-5.6,12c3.4,3.9,11.8-2.4,11.8-2.4s-6.4,7.7-3,9.8c3,1.8,12.2-2.4,12.2-2.4s39.1,50.6,81.5,50
				c42.4-0.6,51.7-52.6,57.5-59C703.5,471.1,703.1,432.8,671.1,420.9z"/>
			<path class="st11" d="M636.8,440.3c0,0,6.3,33.3,64.6,52.8c0.9,0.3,1.8,0.6,2.8,0.9c0,0,0.1-0.2,0.3-0.6c3.2-7,31.7-72.8-2-110.8
				c-6.6-7.5-15.6-13.9-27.7-18.5l-0.6,1.1L636.8,440.3z"/>
			<path class="st28" d="M626.1,326.1l-1.1,24.5c0,0-35.4,24.6-54.9-1.8l2.2-35L626.1,326.1z"/>
			
				<ellipse transform="matrix(0.9989 -4.610599e-02 4.610599e-02 0.9989 -10.808 25.491)" cx="547.2" cy="247" rx="39.2" ry="39.2"/>
			<path class="st24" d="M716.5,277.6c5.3-9.2,10.2-15.3,12.6-26.1c13.8-61.4-29-123.4-95.7-138.4c-66.7-15-121.6,50.1-158.3,110
				c-32.8,53.7,41.5,97.4,108.2,112.4c32.3,7.3,64.3,2.2,90.2-12c4.1,7.8,13.4,13.6,26.5,13c13.7-0.6,29-7.1,33-24.7
				C736.6,296.6,730.2,283.9,716.5,277.6z"/>
			<path class="st4" d="M632.2,269.9c0.4-5-1.2-13.5-13.2-21.9c-2.4-1.7-5.6-0.9-7,1.6l0,0c-1.2,2.3-0.4,5.1,1.8,6.4
				c4.8,2.8,12.7,8.1,16,14.3C630.4,271.5,632.1,271.2,632.2,269.9z"/>
			<path class="st4" d="M498.8,207c3.9-3.2,11.8-6.7,25.5-1.7c2.7,1,4,4.1,2.6,6.7h0c-1.2,2.3-3.9,3.3-6.3,2.2
				c-5.1-2.4-13.9-5.8-20.9-4.9C498.5,209.4,497.8,207.8,498.8,207z"/>
			<path class="st2" d="M581,265.6c-2.7,5.1,3.5,13.6,13.7,18.9c10.2,5.3,20.6,5.5,23.3,0.4c2.7-5.1-3.5-13.6-13.7-18.9
				C594.1,260.7,583.6,260.5,581,265.6z"/>
			<path class="st4" d="M590.6,270.2c-3.5,3.2-4.6,7.8-2.3,10.2c2.2,2.4,6.9,1.8,10.4-1.4c3.5-3.2,4.6-7.8,2.3-10.2
				C598.8,266.4,594.2,267,590.6,270.2z"/>
			<path class="st2" d="M492.5,222.2c-2.7,5.1,3.5,13.6,13.7,18.9c10.2,5.3,20.6,5.5,23.3,0.4c2.7-5.1-3.5-13.6-13.7-18.9
				C505.6,217.2,495.1,217,492.5,222.2z"/>
			<path class="st4" d="M506.8,234.6c-0.5,4.7,1.8,8.8,5.1,9.2c3.3,0.3,6.3-3.3,6.8-8c0.5-4.7-1.8-8.8-5.1-9.2
				C510.3,226.3,507.2,229.9,506.8,234.6z"/>
			<path class="st18" d="M549,245.9c0,0-1.8,9-13.1,10.9c-2.5,0.4-4.1,2.8-3.5,5.2c0.8,2.8,2.8,6,7.8,7.3"/>
			<path class="st11" d="M732.6,294.7c0,0,78.7-35.8,0.8-104.6c0,0,7.3-51.5-60-89s-176.3-49.2-183.9,56c0,0,30.6,27.6,97.2,5.2
				L557.2,187c0,0,46,43,104.8,7.3l-7.9,30.3c0,0,28.5-3.6,34.5-21.2c0,0-4.2,50.9,8.5,76.3C697.1,279.7,721.6,268.1,732.6,294.7z"
				/>
			<path class="st18" d="M718.4,318c7.4-8.1,3.4-24.3-21.6-20.6"/>
			<path class="st22" d="M668.6,186.2c0,0-12.6,36.2-75.1,29.1"/>
			<path class="st2" d="M636.8,440.3l-11.7,17.5c0,0,10,38.2,71.7,55.7l7.7-20C704.5,493.5,664.7,483.7,636.8,440.3z"/>
			<path class="st24" d="M428.9,405.7c0,0,14.3-6.8,12.3-9.7c-2-2.9-12.6,1.7-12.6,1.7s1.1-12.8-1.4-14.6c-2.6-1.7-5.4,3.1-5.4,5.1
				c0,0.9,0.8-10.6-3.5-11.5c-4.3-0.9-8.3,5.8-8.3,5.8s-5.7-15.9-8.3-15.1c-2.6,0.9-1.9,34.5,5.2,44.7
				C414.1,422.6,427.5,420.3,428.9,405.7z"/>
			<path class="st6" d="M620,422.4l42.5-60.5c1.6-2.1,0.6-5.2-2-5.9l-16-4.1c-1.5-0.4-3.1,0.2-4,1.4L593.2,418L620,422.4z"/>
			<path class="st6" d="M716.9,507.5c0,0-32.9,30.1-65.9,37.3l-14.9,19.5c0,0,56.2-3.5,85-35.9L716.9,507.5z"/>
			<path class="st18" d="M554.5,458.2c0,0-5.2,2.6-9.7,8.6"/>
			<path class="st18" d="M559.6,471.1c0,0-3.6,0.3-6.8,4.5"/>
			<line class="st18" x1="422" y1="384.8" x2="420.5" y2="394"/>
			<path class="st18" d="M418.3,376.8c0,0-3.6,5.8-4.1,11.9"/>
			<path class="st17" d="M711.8,775.9c0,0-43.3,24-87.6,20.3"/>
			<path class="st17" d="M573.3,797.4c0,0-48.6,9.4-90.8-9.4"/>
			<path class="st17" d="M676.3,486c0,0,43.7-62.9,19.8-103.4"/>
			<path class="st17" d="M636.4,353.5c0,0-14.5,25.7-50.6,21.2c-26.8-3.4-31.2-24.8-31.2-24.8"/>
			<path class="st4" d="M518.6,272c0,4.6,0.7,12.5,4.6,18.6c1.7,2.8,4.1,5.2,7.3,6.9c7.5,3.8,13.9,0.3,18.4-3.8
				c2.1-1.9,3.7-4,4.8-5.6c0.8-1.1,0.2-2.6-1.1-2.9c-5.6-1.4-19.1-5.5-30.8-14.7C520.5,269.5,518.6,270.4,518.6,272z"/>
			<path class="st11" d="M523.2,290.7c1.7,2.8,4.1,5.2,7.3,6.9c7.5,3.8,13.9,0.3,18.4-3.8c-2.2-4.2-7.6-7.2-14-7.2
				C530.1,286.5,525.9,288.1,523.2,290.7z"/>
			<ellipse class="st23" cx="613.1" cy="305.3" rx="18.2" ry="10.4"/>
			<path class="st23" d="M469.8,234.5c-3.6,4.5-0.7,12.7,6.3,18.3c7.1,5.6,15.7,6.5,19.2,2c3.6-4.5,0.7-12.7-6.3-18.3
				C482,230.9,473.3,230,469.8,234.5z"/>
			<path class="st23" d="M685.5,313.8c0,4.9,6.1,8.9,13.5,8.9c7.5,0,13.5-4,13.5-8.9c0-4.9-6.1-8.9-13.5-8.9
				C691.6,304.9,685.5,308.8,685.5,313.8z"/>
			<path class="st22" d="M610,148.3c0,0-46.5,40.2-111.6,14.9"/>
			<path class="st22" d="M731.9,214.9c0,0,34,35.4-4.7,69.4"/>
			<path class="st22" d="M566.2,141.9c-1.5,0-24.9,12.2-59-1.5"/>
			<path class="st18" d="M636.8,440.3c0,0,7.6-12.2,7.2-22.7"/>
			<line class="st18" x1="704.5" y1="493.5" x2="710" y2="478.8"/>
		</g>
		<g>
			<line class="st17" x1="651.9" y1="859.7" x2="643.3" y2="857.1"/>
			<line class="st17" x1="658.5" y1="855" x2="650" y2="852.4"/>
		</g>
		<g>
			<line class="st17" x1="490.9" y1="855" x2="482.4" y2="852.4"/>
			<line class="st17" x1="497.6" y1="850.2" x2="489" y2="847.6"/>
		</g>
		<path class="st6" d="M672.7,848.3c0,0-11.7-21.3-14.9-0.6C657.8,847.7,663,851.2,672.7,848.3z"/>
		<path class="st6" d="M512.3,847.4c0,0-11.7-21.3-14.9-0.6C497.5,846.9,502.7,850.4,512.3,847.4z"/>
	</g>
</g>
<g id="TEXTS">
</g>
</svg>
