<?xml version="1.0" encoding="utf-8"?>
<!-- Generator: Adobe Illustrator 27.0.0, SVG Export Plug-In . SVG Version: 6.00 Build 0)  -->
<svg version="1.1" xmlns="http://www.w3.org/2000/svg" xmlns:xlink="http://www.w3.org/1999/xlink" x="0px" y="0px"
	 viewBox="0 0 750 500" style="enable-background:new 0 0 750 500;" xml:space="preserve">
<style type="text/css">
	.st0{fill:#FF8C42;}
	.st1{opacity:0.7;fill:#FFFFFF;}
	.st2{fill:none;stroke:#263238;stroke-linecap:round;stroke-linejoin:round;stroke-miterlimit:10;}
	.st3{fill:none;stroke:#263238;stroke-miterlimit:10;}
	.st4{fill:none;stroke:#263238;stroke-miterlimit:10;stroke-dasharray:5.0799,5.0799;}
	.st5{fill:none;stroke:#263238;stroke-miterlimit:10;stroke-dasharray:5.0065,5.0065;}
	.st6{fill:none;stroke:#263238;stroke-miterlimit:10;stroke-dasharray:5.0777,5.0777;}
	.st7{fill:none;stroke:#263238;stroke-miterlimit:10;stroke-dasharray:4.9317,4.9317;}
	.st8{fill:#FF8C42;stroke:#263238;stroke-linecap:round;stroke-linejoin:round;stroke-miterlimit:10;}
	.st9{fill:#2C1833;stroke:#263238;stroke-miterlimit:10;}
	.st10{fill:#263238;}
	.st11{font-family:'HelveticaNeue-CondensedBold';}
	.st12{font-size:18.8328px;}
	.st13{fill:#FFFFFF;stroke:#263238;stroke-miterlimit:10;}
	.st14{fill:none;stroke:#FFFFFF;stroke-miterlimit:10;}
	.st15{fill:#92E3A9;}
	.st16{fill:#FF8C42;stroke:#263238;stroke-miterlimit:10;}
	.st17{fill:#FFFFFF;}
	.st18{fill:#FFFFFF;stroke:#263238;stroke-linecap:round;stroke-linejoin:round;stroke-miterlimit:10;}
	.st19{fill:#263238;stroke:#263238;stroke-linecap:round;stroke-linejoin:round;stroke-miterlimit:10;}
	.st20{fill:none;stroke:#263238;stroke-width:3;stroke-linecap:round;stroke-linejoin:round;stroke-miterlimit:10;}
	.st21{fill:none;stroke:#C4C4C4;stroke-width:3;stroke-linecap:round;stroke-linejoin:round;stroke-miterlimit:10;}
	.st22{display:none;}
	.st23{display:inline;}
	.st24{fill:#92E3A9;stroke:#263238;stroke-linecap:round;stroke-linejoin:round;stroke-miterlimit:10;}
	.st25{fill:#9E9E9E;stroke:#263238;stroke-linecap:round;stroke-linejoin:round;stroke-miterlimit:10;}
	.st26{opacity:0.2;}
	.st27{opacity:0.5;}
	.st28{fill:#D1D1D1;stroke:#263238;stroke-linecap:round;stroke-linejoin:round;stroke-miterlimit:10;}
	.st29{fill:#828282;stroke:#263238;stroke-linecap:round;stroke-linejoin:round;stroke-miterlimit:10;}
	.st30{fill:#B2B2B2;stroke:#263238;stroke-linecap:round;stroke-linejoin:round;stroke-miterlimit:10;}
	.st31{fill:#C2C2C2;stroke:#263238;stroke-linecap:round;stroke-linejoin:round;stroke-miterlimit:10;}
	.st32{fill:#C2C2C2;stroke:#263238;stroke-miterlimit:10;}
	.st33{fill:#263238;stroke:#263238;stroke-miterlimit:10;}
	.st34{fill:none;stroke:#FFFFFF;stroke-linecap:round;stroke-linejoin:round;stroke-miterlimit:10;}
	.st35{fill:none;stroke:#263238;stroke-width:7;stroke-linecap:round;stroke-linejoin:round;stroke-miterlimit:10;}
</style>
<g id="Background_Simple">
	<g>
		<path class="st0" d="M286.2,112.5c97.5-48,197.7-110.8,311-85.1c35.1,8,67.1,27.9,88.7,56.8c57.8,77.4,53.1,195.9,21.7,283
			c-4.1,11.4-9.2,22.4-15.8,32.5c-31.8,49.2-85.5,51.5-137.3,37.3c-43.8-12-82.6-24.4-127.9-12.2c-25.1,6.8-49.4,16.1-74.3,23.2
			c-34,9.6-69,16.2-104.5,16.9c-93.7,1.8-200.7-46-209-150.6c-0.5-6.8-0.6-13.6-0.3-20.4c1.9-41.8,15.7-83.6,53.9-105.3
			c38.5-21.8,84.1-30.4,125.2-45.9C241,134,263.7,123.5,286.2,112.5z"/>
		<path class="st1" d="M286.2,112.5c97.5-48,197.7-110.8,311-85.1c35.1,8,67.1,27.9,88.7,56.8c57.8,77.4,53.1,195.9,21.7,283
			c-4.1,11.4-9.2,22.4-15.8,32.5c-31.8,49.2-85.5,51.5-137.3,37.3c-43.8-12-82.6-24.4-127.9-12.2c-25.1,6.8-49.4,16.1-74.3,23.2
			c-34,9.6-69,16.2-104.5,16.9c-93.7,1.8-200.7-46-209-150.6c-0.5-6.8-0.6-13.6-0.3-20.4c1.9-41.8,15.7-83.6,53.9-105.3
			c38.5-21.8,84.1-30.4,125.2-45.9C241,134,263.7,123.5,286.2,112.5z"/>
	</g>
</g>
<g id="Floor">
	<line class="st2" x1="29.5" y1="442.8" x2="723.7" y2="442.8"/>
</g>
<g id="Segment_Lines">
	<g>
		<g>
			<polyline class="st3" points="565.5,315.6 565.5,318.1 563,318.1 			"/>
			<line class="st4" x1="557.9" y1="318.1" x2="286.1" y2="318.1"/>
			<polyline class="st3" points="283.6,318.1 281.1,318.1 281.1,315.6 			"/>
			<line class="st5" x1="281.1" y1="310.6" x2="281.1" y2="62.8"/>
			<polyline class="st3" points="281.1,60.3 281.1,57.8 283.6,57.8 			"/>
			<line class="st4" x1="288.7" y1="57.8" x2="560.4" y2="57.8"/>
			<polyline class="st3" points="563,57.8 565.5,57.8 565.5,60.3 			"/>
			<line class="st5" x1="565.5" y1="65.3" x2="565.5" y2="313.1"/>
		</g>
	</g>
	<g>
		<g>
			<polyline class="st3" points="245.6,395.9 245.6,398.4 243.1,398.4 			"/>
			<line class="st6" x1="238" y1="398.4" x2="27.3" y2="398.4"/>
			<polyline class="st3" points="24.7,398.4 22.2,398.4 22.2,395.9 			"/>
			<line class="st7" x1="22.2" y1="390.9" x2="22.2" y2="196.1"/>
			<polyline class="st3" points="22.2,193.7 22.2,191.2 24.7,191.2 			"/>
			<line class="st6" x1="29.8" y1="191.2" x2="240.5" y2="191.2"/>
			<polyline class="st3" points="243.1,191.2 245.6,191.2 245.6,193.7 			"/>
			<line class="st7" x1="245.6" y1="198.6" x2="245.6" y2="393.4"/>
		</g>
	</g>
	<g>
		<g>
			<polyline class="st3" points="718.8,395.9 718.8,398.4 716.3,398.4 			"/>
			<line class="st6" x1="711.2" y1="398.4" x2="500.5" y2="398.4"/>
			<polyline class="st3" points="498,398.4 495.5,398.4 495.5,395.9 			"/>
			<line class="st7" x1="495.5" y1="390.9" x2="495.5" y2="196.1"/>
			<polyline class="st3" points="495.5,193.7 495.5,191.2 498,191.2 			"/>
			<line class="st6" x1="503.1" y1="191.2" x2="713.8" y2="191.2"/>
			<polyline class="st3" points="716.3,191.2 718.8,191.2 718.8,193.7 			"/>
			<line class="st7" x1="718.8" y1="198.6" x2="718.8" y2="393.4"/>
		</g>
	</g>
</g>
<g id="Plant">
	<g>
		<g>
			<path class="st8" d="M339.7,302.2c0,0-2.3,6.4-7.3,7.3c-5,0.9-13.7-8.8-8.2-13.7C329.8,290.9,337.4,298.7,339.7,302.2z"/>
			<path class="st8" d="M347.3,270.7c0,0-7.3,17.8-4.4,26.6c2.9,8.8,21,15.2,26.3,3.8c5.3-11.4-6.4-27.5-10.8-31
				C354.1,266.6,348.8,267.8,347.3,270.7z"/>
			<path class="st8" d="M390,278.3c0,0-12.6,11.4-14,22.8c-1.5,11.4,7,15.5,15.8,14c8.8-1.5,13.1-23.7,10.5-33.9
				C399.6,271,390,278.3,390,278.3z"/>
			<g>
				<path class="st8" d="M392.3,341.4c0,0-14,0.6-14.6,7.3c-0.6,6.7,6.1,8.2,12.9,2.3C397.3,345.2,398.2,341.7,392.3,341.4z"/>
				<path class="st3" d="M378,350.3c0,0,11.1-5.1,16-5.9"/>
			</g>
			<g>
				<path class="st8" d="M395.5,385.4c0,0-10.3-9.5-15.5-5.2c-5.2,4.3-1.5,10.1,7.4,10.8C396.3,391.6,399.4,389.7,395.5,385.4z"/>
				<path class="st3" d="M379,381.5c0,0,11.4,4.3,15.5,7.2"/>
			</g>
			<g>
				<path class="st8" d="M341.1,382.6c0,0,14.2-13.1,21.3-7.2c7.1,6,2,13.9-10.2,14.8C340,391.1,335.7,388.6,341.1,382.6z"/>
				<path class="st3" d="M363.8,377.2c0,0-15.7,5.9-21.4,9.9"/>
			</g>
			<path class="st8" d="M357.6,355.4c0,0-1.5,7-6.7,9.6c-5.3,2.6-14.6-2.9-9.6-11.4C346.2,345.2,354.9,351.9,357.6,355.4z"/>
			<path class="st8" d="M345.3,333.5c0,0-2.6-5.8-12.9-2c-10.2,3.8-14.3,9.6-7.9,11.7C331,345.2,345.3,333.5,345.3,333.5z"/>
			<path class="st3" d="M343.3,333.2c0,0-10.8,1.2-16.7,6.1"/>
			<path class="st8" d="M374.5,263.4c0,0,1.8,4.1,5.3,3.2c3.5-0.9,4.4-6.1,9.9-4.7s10.2,7.9,10.2,5c0-2.9-7-10.5-14.9-10.5
				C377.1,256.4,374.8,259.6,374.5,263.4z"/>
			<path class="st3" d="M345.3,333.5c0,0,12.6-2.4,17.8,11.6c0.5,1.4,0.9,2.8,1.3,4.3"/>
			<path class="st8" d="M397.8,320c0,0,2.6-5.8,12.9-2c10.2,3.8,14.3,9.6,7.9,11.7C412.1,331.7,397.8,320,397.8,320z"/>
			<path class="st3" d="M400.1,320.4c0,0,10.5-0.6,15.5,5.6"/>
			<path class="st3" d="M397.8,320c0,0-4.2-0.8-8.7,1.2"/>
			<path class="st3" d="M352,309.5c-6.2-6.3-12.3-7.2-12.3-7.2s-9-2.4-12.5,0.8"/>
			<g>
				<line class="st3" x1="353.2" y1="277.1" x2="352.7" y2="274.7"/>
				<path class="st3" d="M367.5,406.3c0,0,1.3-50.3,0-65.6c-1.3-15.3-7.4-33.2-7.4-33.2l-6.2-27.8"/>
				<line class="st3" x1="393.4" y1="287.9" x2="394.6" y2="285.5"/>
				<path class="st3" d="M370.5,406.2c0,0,0.4-45.9,2.2-59c1.7-13.1,8.7-33.6,8.7-33.6l10.7-23"/>
				<path class="st3" d="M378,350.3c0,0-3.1,26.3-4.8,56"/>
				<path class="st3" d="M363.1,406.2c0,0,0.9-42-0.9-47.6c-1.7-5.7-4.7-3.2-4.7-3.2s-8.1,1-11,5.6"/>
				<path class="st3" d="M365.1,352.6c2.3,12.8,0.2,53.7,0.2,53.7"/>
				<path class="st3" d="M386.6,322.5c-2.5,1.7-5,4.5-6.6,9c-5.2,14-4.6,74.8-4.6,74.8"/>
				<path class="st3" d="M353.5,311.2c2.7,3.2,5.4,7.5,7.4,13.4c7,20.1,9.6,72.1,8.3,81.7"/>
				<path class="st3" d="M371.3,330c-0.4,25.3-0.7,76.3-0.7,76.3"/>
			</g>
			<path class="st3" d="M371.3,326.8c0.3-16.8,0.6-33.2,1-42c0.9-22.7,2.2-21.4,2.2-21.4s1.6-5.1,10.7-4.5"/>
			<g>
				<path class="st8" d="M360.1,345.9c0,0-7.3-6.5-4.4-9.7c2.9-3.2,21-5.6,26.3-1.4c5.3,4.2-6.4,10-10.8,11.3
					C366.9,347.4,361.6,347,360.1,345.9z"/>
				<path class="st3" d="M366.9,340.6c-0.1,0.7-0.2,1.3-0.2,1.9"/>
				<path class="st3" d="M369.4,333c0,0-1.1,2.2-1.9,4.8"/>
			</g>
			<g>
				<path class="st8" d="M360.1,388.5c0,0-7.3-6.5-4.4-9.7c2.9-3.2,21-5.6,26.3-1.4c5.3,4.2-6.4,10-10.8,11.3
					C366.9,390,361.6,389.6,360.1,388.5z"/>
				<path class="st3" d="M369.4,375.6c0,0-2.7,5.3-2.7,9.5"/>
			</g>
			<g>
				<path class="st8" d="M365.6,370.5c0,0-5-4.4-3-6.6c2-2.2,14.3-3.8,17.9-0.9c3.6,2.8-4.4,6.8-7.3,7.7
					C370.1,371.5,366.6,371.2,365.6,370.5z"/>
				<path class="st3" d="M371.9,361.7c0,0-1.8,3.6-1.8,6.5"/>
			</g>
		</g>
		<rect x="358.7" y="399" class="st9" width="19.8" height="43.8"/>
	</g>
	<g>
		<path class="st3" d="M162.1,372.4l-12.1-8.5v-4.5l12.1-8.6v4.6l-8.7,6.3l8.7,6.3V372.4z"/>
		<path class="st3" d="M165.8,373.9l9.2-34.3h3.9l-9.3,34.3H165.8z"/>
		<path class="st3" d="M182.7,372.4v-4.5l8.7-6.3l-8.7-6.3v-4.6l12.1,8.6v4.5L182.7,372.4z"/>
	</g>
	<g>
		<path class="st10" d="M343.7,240.3l-6.8-4.8V233l6.8-4.8v2.6l-4.8,3.5l4.8,3.5V240.3z"/>
		<path class="st10" d="M386.5,240.3v-2.5l4.9-3.5l-4.9-3.5v-2.6l6.8,4.8v2.5L386.5,240.3z"/>
		<text transform="matrix(0.6922 0 0 1 347.5431 239.187)" class="st10 st11 st12">scripts</text>
	</g>
</g>
<g id="Gears">
	<path class="st3" d="M497.9,354v7.1l6.8,1c0.6,3.5,2,6.7,3.9,9.6l-4.2,5.5l5.1,5.1l5.5-4.1c2.8,1.9,6.1,3.3,9.5,4l1,6.9h7.1l1-6.8
		c3.5-0.6,6.7-2,9.6-3.9l5.5,4.2l5.1-5.1l-4.1-5.5c1.9-2.8,3.3-6.1,4-9.5l6.9-1v-7.1l-6.8-1c-0.6-3.5-2-6.7-3.9-9.6l4.2-5.5
		l-5.1-5.1l-5.5,4.1c-2.8-1.9-6.1-3.3-9.5-4l-1-6.9h-7.1l-1,6.8c-3.5,0.6-6.7,2-9.6,3.9l-5.5-4.2l-5.1,5.1l4.1,5.5
		c-1.9,2.8-3.3,6.1-4,9.5L497.9,354z M529.2,340.3c9.6,0,17.3,7.8,17.3,17.3c0,9.6-7.8,17.3-17.3,17.3c-9.6,0-17.3-7.8-17.3-17.3
		C511.9,348,519.7,340.3,529.2,340.3z"/>
	<path class="st9" d="M556.6,347.1v6.1l5.9,0.8c0.5,3,1.7,5.8,3.4,8.2l-3.6,4.7l4.3,4.3l4.7-3.5c2.4,1.7,5.2,2.8,8.2,3.4l0.8,5.9
		h6.1l0.8-5.9c3-0.5,5.8-1.7,8.2-3.4l4.7,3.6l4.3-4.3l-3.5-4.7c1.7-2.4,2.8-5.2,3.4-8.2l5.9-0.8v-6.1l-5.9-0.8
		c-0.5-3-1.7-5.8-3.4-8.2l3.6-4.7l-4.3-4.3l-4.7,3.5c-2.4-1.7-5.2-2.8-8.2-3.4l-0.8-5.9h-6.1l-0.8,5.9c-3,0.5-5.8,1.7-8.2,3.4
		l-4.7-3.6l-4.3,4.3l3.5,4.7c-1.7,2.4-2.8,5.2-3.4,8.2L556.6,347.1z M583.4,335.4c8.2,0,14.8,6.6,14.8,14.8
		c0,8.2-6.6,14.8-14.8,14.8s-14.8-6.6-14.8-14.8C568.6,342,575.3,335.4,583.4,335.4z"/>
	<path class="st3" d="M628.1,78v6.1l5.9,0.8c0.5,3,1.7,5.8,3.4,8.2l-3.6,4.7l4.3,4.3l4.7-3.5c2.4,1.7,5.2,2.8,8.2,3.4l0.8,5.9h6.1
		l0.8-5.9c3-0.5,5.8-1.7,8.2-3.4l4.7,3.6L676,98l-3.5-4.7c1.7-2.4,2.8-5.2,3.4-8.2l5.9-0.8v-6.1l-5.9-0.8c-0.5-3-1.7-5.8-3.4-8.2
		l3.6-4.7l-4.3-4.3l-4.7,3.5c-2.4-1.7-5.2-2.8-8.2-3.4l-0.8-5.9h-6.1l-0.8,5.9c-3,0.5-5.8,1.7-8.2,3.4l-4.7-3.6l-4.3,4.3l3.5,4.7
		c-1.7,2.4-2.8,5.2-3.4,8.2L628.1,78z M654.9,66.3c8.2,0,14.8,6.6,14.8,14.8c0,8.2-6.6,14.8-14.8,14.8s-14.8-6.6-14.8-14.8
		C640.1,72.9,646.7,66.3,654.9,66.3z"/>
	<g>
		<rect id="XMLID_1_" x="50.7" y="232" class="st13" width="125.4" height="56.4"/>
		<g>
			<path class="st10" d="M114.9,257l-1.3-0.1c0-0.5,0-0.9-0.1-1.3l1.3-0.3c0.2-0.1,0.3-0.3,0.3-0.5l-0.2-0.6
				c-0.1-0.2-0.3-0.3-0.5-0.3l-1.3,0.3c-0.2-0.4-0.3-0.8-0.6-1.2l1.1-0.7c0.2-0.1,0.2-0.3,0.1-0.5l-0.3-0.5
				c-0.1-0.2-0.3-0.2-0.5-0.1l-1.1,0.7c-0.3-0.3-0.6-0.7-0.9-1l0.8-1.1c0.1-0.2,0.1-0.4-0.1-0.5l-0.5-0.4c-0.2-0.1-0.4-0.1-0.5,0.1
				l-0.8,1.1c-0.4-0.2-0.8-0.4-1.2-0.6l0.4-1.3c0.1-0.2,0-0.4-0.2-0.5l-0.6-0.2c-0.2-0.1-0.4,0-0.5,0.2l-0.4,1.3
				c-0.4-0.1-0.8-0.2-1.2-0.2v-1.3c0-0.2-0.2-0.4-0.4-0.4h-0.6c-0.2,0-0.4,0.2-0.4,0.4v1.3c-0.4,0-0.9,0.1-1.3,0.2l-0.4-1.2
				c-0.1-0.2-0.3-0.3-0.5-0.2l-0.6,0.2c-0.2,0.1-0.3,0.3-0.2,0.5l0.4,1.2c-0.4,0.2-0.8,0.4-1.2,0.6l-0.8-1c-0.1-0.2-0.4-0.2-0.5-0.1
				l-0.5,0.4c-0.2,0.1-0.2,0.4-0.1,0.5l0.8,1c-0.3,0.3-0.6,0.6-0.9,1l-1.1-0.7c-0.2-0.1-0.4-0.1-0.5,0.1l-0.3,0.5
				c-0.1,0.2-0.1,0.4,0.1,0.5l1.1,0.7c-0.2,0.4-0.4,0.8-0.5,1.2l-1.3-0.3c-0.2-0.1-0.4,0.1-0.5,0.3l-0.1,0.6
				c-0.1,0.2,0.1,0.4,0.3,0.5l1.3,0.3c-0.1,0.4-0.1,0.9-0.1,1.3c0,0,0,0,0,0l-1.3,0.1c-0.2,0-0.4,0.2-0.3,0.4l0.1,0.6
				c0,0.2,0.2,0.4,0.4,0.3l1.3-0.1c0.1,0.4,0.2,0.9,0.3,1.3l-1.2,0.5c-0.2,0.1-0.3,0.3-0.2,0.5l0.2,0.6c0.1,0.2,0.3,0.3,0.5,0.2
				l1.2-0.5c0.2,0.4,0.5,0.8,0.7,1.1l-1,0.9c-0.2,0.1-0.2,0.4,0,0.5l0.4,0.4c0.1,0.2,0.4,0.2,0.5,0l1-0.9c0.3,0.3,0.7,0.6,1.1,0.8
				l-0.6,1.2c-0.1,0.2,0,0.4,0.2,0.5l0.5,0.3c0.2,0.1,0.4,0,0.5-0.2l0.6-1.2c0.4,0.2,0.8,0.3,1.3,0.4l-0.2,1.3
				c0,0.2,0.1,0.4,0.3,0.4l0.6,0.1c0.2,0,0.4-0.1,0.4-0.3l0.2-1.3c0.2,0,0.4,0,0.6,0c0.2,0,0.5,0,0.7,0l0.2,1.3
				c0,0.2,0.2,0.3,0.4,0.3l0.6-0.1c0.2,0,0.3-0.2,0.3-0.4l-0.2-1.3c0.4-0.1,0.9-0.3,1.3-0.4l0.6,1.2c0.1,0.2,0.3,0.2,0.5,0.1
				l0.5-0.3c0.2-0.1,0.2-0.3,0.1-0.5l-0.6-1.2c0.4-0.2,0.7-0.5,1-0.8l1,0.9c0.2,0.1,0.4,0.1,0.5,0l0.4-0.5c0.1-0.2,0.1-0.4,0-0.5
				l-1-0.9c0.3-0.4,0.5-0.7,0.7-1.1l1.2,0.5c0.2,0.1,0.4,0,0.5-0.2l0.2-0.6c0.1-0.2,0-0.4-0.2-0.5l-1.2-0.5c0.1-0.4,0.2-0.8,0.3-1.3
				l1.3,0.1c0.2,0,0.4-0.1,0.4-0.3l0-0.6C115.3,257.2,115.1,257,114.9,257z M105.4,261.6c-2.5,0-4.6-2-4.6-4.6c0-2.5,2-4.6,4.6-4.6
				c2.5,0,4.6,2,4.6,4.6C110,259.6,108,261.6,105.4,261.6z"/>
			<path class="st14" d="M111.8,257c0,3.5-2.9,6.4-6.4,6.4c-3.5,0-6.4-2.9-6.4-6.4c0-3.5,2.9-6.4,6.4-6.4
				C109,250.6,111.8,253.5,111.8,257z"/>
		</g>
		<g>
			<path class="st10" d="M126.7,263.6l-0.9-0.1c0-0.3,0-0.6-0.1-0.9l0.8-0.2c0.1,0,0.2-0.2,0.2-0.3l-0.1-0.4c0-0.1-0.2-0.2-0.3-0.2
				l-0.8,0.2c-0.1-0.3-0.2-0.5-0.4-0.8l0.7-0.5c0.1-0.1,0.1-0.2,0.1-0.3l-0.2-0.3c-0.1-0.1-0.2-0.1-0.3-0.1l-0.7,0.5
				c-0.2-0.2-0.4-0.4-0.6-0.6l0.5-0.7c0.1-0.1,0.1-0.3,0-0.3l-0.3-0.2c-0.1-0.1-0.3-0.1-0.3,0l-0.5,0.7c-0.2-0.2-0.5-0.3-0.8-0.4
				l0.3-0.8c0-0.1,0-0.3-0.2-0.3l-0.4-0.1c-0.1,0-0.3,0-0.3,0.2l-0.3,0.8c-0.3-0.1-0.5-0.1-0.8-0.1v-0.9c0-0.1-0.1-0.2-0.2-0.2h-0.4
				c-0.1,0-0.2,0.1-0.2,0.2v0.9c-0.3,0-0.6,0.1-0.9,0.1l-0.3-0.8c0-0.1-0.2-0.2-0.3-0.2l-0.4,0.1c-0.1,0-0.2,0.2-0.2,0.3l0.3,0.8
				c-0.3,0.1-0.5,0.3-0.8,0.4l-0.5-0.7c-0.1-0.1-0.2-0.1-0.3,0l-0.3,0.2c-0.1,0.1-0.1,0.2,0,0.3l0.5,0.7c-0.2,0.2-0.4,0.4-0.6,0.6
				l-0.7-0.5c-0.1-0.1-0.3,0-0.3,0.1l-0.2,0.3c-0.1,0.1,0,0.3,0.1,0.3l0.7,0.5c-0.1,0.3-0.3,0.5-0.3,0.8l-0.8-0.2
				c-0.1,0-0.3,0-0.3,0.2l-0.1,0.4c0,0.1,0,0.3,0.2,0.3l0.8,0.2c0,0.3-0.1,0.6-0.1,0.9c0,0,0,0,0,0l-0.9,0.1c-0.1,0-0.2,0.1-0.2,0.3
				l0,0.4c0,0.1,0.1,0.2,0.3,0.2l0.9-0.1c0,0.3,0.1,0.6,0.2,0.8l-0.8,0.4c-0.1,0.1-0.2,0.2-0.1,0.3l0.2,0.4c0.1,0.1,0.2,0.2,0.3,0.1
				l0.8-0.4c0.1,0.3,0.3,0.5,0.5,0.7l-0.6,0.6c-0.1,0.1-0.1,0.2,0,0.3l0.3,0.3c0.1,0.1,0.2,0.1,0.3,0l0.6-0.6
				c0.2,0.2,0.4,0.4,0.7,0.5l-0.4,0.8c-0.1,0.1,0,0.3,0.1,0.3l0.4,0.2c0.1,0.1,0.3,0,0.3-0.1l0.4-0.8c0.3,0.1,0.5,0.2,0.8,0.3
				l-0.1,0.9c0,0.1,0.1,0.3,0.2,0.3l0.4,0.1c0.1,0,0.3-0.1,0.3-0.2l0.1-0.9c0.1,0,0.3,0,0.4,0c0.2,0,0.3,0,0.5,0l0.2,0.9
				c0,0.1,0.2,0.2,0.3,0.2l0.4-0.1c0.1,0,0.2-0.2,0.2-0.3l-0.1-0.8c0.3-0.1,0.6-0.2,0.8-0.3l0.4,0.8c0.1,0.1,0.2,0.2,0.3,0.1
				l0.4-0.2c0.1-0.1,0.2-0.2,0.1-0.3l-0.4-0.8c0.2-0.2,0.5-0.3,0.7-0.5l0.6,0.6c0.1,0.1,0.3,0.1,0.3,0l0.3-0.3
				c0.1-0.1,0.1-0.3,0-0.3l-0.6-0.6c0.2-0.2,0.3-0.5,0.5-0.7l0.8,0.3c0.1,0.1,0.3,0,0.3-0.1l0.2-0.4c0.1-0.1,0-0.3-0.1-0.3l-0.8-0.3
				c0.1-0.3,0.2-0.6,0.2-0.8l0.9,0.1c0.1,0,0.3-0.1,0.3-0.2l0-0.4C126.9,263.8,126.8,263.6,126.7,263.6z M120.5,266.6
				c-1.7,0-3-1.3-3-3c0-1.7,1.3-3,3-3c1.7,0,3,1.3,3,3C123.5,265.3,122.2,266.6,120.5,266.6z"/>
			<path class="st14" d="M124.7,263.6c0,2.3-1.9,4.2-4.2,4.2c-2.3,0-4.2-1.9-4.2-4.2c0-2.3,1.9-4.2,4.2-4.2
				C122.8,259.5,124.7,261.3,124.7,263.6z"/>
		</g>
		<g>
			<rect id="XMLID_2_" x="50.7" y="232" class="st9" width="125.4" height="5.2"/>
			<g>
				<path class="st15" d="M56.6,234.2c0,0.7-0.5,1.2-1.2,1.2s-1.2-0.5-1.2-1.2c0-0.7,0.5-1.2,1.2-1.2S56.6,233.5,56.6,234.2z"/>
				<path class="st15" d="M62,234.2c0,0.7-0.5,1.2-1.2,1.2c-0.7,0-1.2-0.5-1.2-1.2c0-0.7,0.5-1.2,1.2-1.2
					C61.5,233,62,233.5,62,234.2z"/>
				<path class="st15" d="M67.4,234.2c0,0.7-0.5,1.2-1.2,1.2c-0.7,0-1.2-0.5-1.2-1.2c0-0.7,0.5-1.2,1.2-1.2
					C66.9,233,67.4,233.5,67.4,234.2z"/>
			</g>
		</g>
		<path class="st13" d="M165.7,275.9H62c-0.7,0-1.3-0.6-1.3-1.3l0,0c0-0.7,0.6-1.3,1.3-1.3h103.8c0.7,0,1.3,0.6,1.3,1.3l0,0
			C167.1,275.3,166.5,275.9,165.7,275.9z"/>
		<path class="st16" d="M135,273.2H62c-0.7,0-1.3,0.6-1.3,1.3c0,0.7,0.6,1.3,1.3,1.3H135V273.2z"/>
	</g>
	<g>
		<path class="st17" d="M96.2,337.8v-8.2l-8.2-0.9c-0.5-1.7-1.1-3.4-2-4.9l5.2-6.5l-5.8-5.8l-6.5,5.2c-1.5-0.9-3.1-1.6-4.9-2
			l-0.9-8.2h-8.2l-0.9,8.2c-1.7,0.5-3.4,1.1-4.9,2l-6.5-5.2l-5.8,5.8l5.2,6.5c-0.9,1.5-1.6,3.1-2,4.9l-8.2,0.9v8.2l8.2,0.9
			c0.5,1.7,1.1,3.4,2,4.9l-5.2,6.5l5.8,5.8l6.5-5.2c1.5,0.9,3.1,1.6,4.9,2l0.9,8.2H73l0.9-8.2c1.7-0.5,3.4-1.1,4.9-2l6.5,5.2
			l5.8-5.8l-5.2-6.5c0.9-1.5,1.6-3.1,2-4.9L96.2,337.8z M69,343.4c-5.4,0-9.8-4.4-9.8-9.8c0-5.4,4.4-9.8,9.8-9.8
			c5.4,0,9.8,4.4,9.8,9.8C78.8,339,74.4,343.4,69,343.4z"/>
		<path class="st0" d="M128.5,321.3l-0.9-5.4l-5.5,0.3c-0.5-1.1-1.1-2.1-1.9-3l2.7-4.9l-4.5-3.2l-3.7,4.1c-1.1-0.4-2.3-0.7-3.5-0.8
			l-1.5-5.4l-5.4,0.9l0.3,5.5c-1.1,0.5-2.1,1.1-3,1.9l-4.9-2.7l-3.2,4.5l4.1,3.7c-0.4,1.1-0.7,2.3-0.8,3.5l-5.4,1.5l0.9,5.4l5.5-0.3
			c0.5,1.1,1.1,2.1,1.9,3l-2.7,4.9l4.5,3.2l3.7-4.1c1.1,0.4,2.3,0.7,3.5,0.8l1.5,5.4l5.4-0.9l-0.3-5.5c1.1-0.5,2.1-1.1,3-1.9
			l4.9,2.7l3.2-4.5l-4.1-3.7c0.4-1.1,0.7-2.3,0.8-3.5L128.5,321.3z M111.1,328c-3.6,0.6-7-1.8-7.6-5.4c-0.6-3.6,1.8-7,5.4-7.6
			c3.6-0.6,7,1.8,7.6,5.4C117.1,324,114.7,327.4,111.1,328z"/>
	</g>
	<g>
		<g>
			<rect x="76.3" y="198.9" class="st8" width="5.9" height="1.5"/>
			<rect x="84.2" y="198.9" class="st8" width="5.9" height="1.5"/>
			<rect x="92.2" y="198.9" class="st8" width="5.9" height="1.5"/>
			<rect x="100.1" y="198.9" class="st8" width="5.9" height="1.5"/>
			<rect x="108" y="198.9" class="st8" width="5.9" height="1.5"/>
			<rect x="116" y="198.9" class="st8" width="5.9" height="1.5"/>
			<rect x="123.9" y="198.9" class="st8" width="5.9" height="1.5"/>
			<rect x="131.9" y="198.9" class="st8" width="5.9" height="1.5"/>
			<rect x="139.8" y="198.9" class="st8" width="5.9" height="1.5"/>
			<rect x="147.7" y="198.9" class="st8" width="5.9" height="1.5"/>
			<rect x="155.7" y="198.9" class="st8" width="5.9" height="1.5"/>
			<rect x="163.6" y="198.9" class="st8" width="5.9" height="1.5"/>
			<rect x="73.6" y="200.2" class="st8" width="97.6" height="4.1"/>
		</g>
		<line class="st2" x1="34.6" y1="204.3" x2="203" y2="204.3"/>
	</g>
</g>
<g id="Screen">
	<g>
		<path class="st9" d="M644.7,302.1H420.5v-215c0-4.7,3.8-8.5,8.5-8.5h207.2c4.7,0,8.5,3.8,8.5,8.5V302.1z"/>
		<path class="st18" d="M649.8,297H425.6V82c0-4.7,3.8-8.5,8.5-8.5h207.2c4.7,0,8.5,3.8,8.5,8.5V297z"/>
		<path class="st8" d="M649.8,94.9H425.6V82c0-4.7,3.8-8.5,8.5-8.5h207.2c4.7,0,8.5,3.8,8.5,8.5V94.9z"/>
		<g>
			<circle class="st18" cx="610.3" cy="84.9" r="3.5"/>
			<path class="st18" d="M624.2,84.9c0-1.9-1.6-3.5-3.5-3.5c-1.9,0-3.5,1.6-3.5,3.5c0,1.9,1.6,3.5,3.5,3.5
				C622.6,88.4,624.2,86.8,624.2,84.9z"/>
			<circle class="st19" cx="631.2" cy="84.9" r="3.5"/>
		</g>
	</g>
	<g>
		<g>
			<line class="st20" x1="448.6" y1="107.6" x2="465.1" y2="107.6"/>
			<line class="st21" x1="448.6" y1="117.3" x2="510.5" y2="117.3"/>
			<line class="st21" x1="544.4" y1="117.3" x2="606.3" y2="117.3"/>
			<line class="st20" x1="514.5" y1="117.3" x2="539.1" y2="117.3"/>
			<line class="st20" x1="448.6" y1="127" x2="484.2" y2="127"/>
			<line class="st20" x1="488.7" y1="127" x2="524.3" y2="127"/>
			<line class="st20" x1="528.8" y1="127" x2="564.5" y2="127"/>
			<line class="st20" x1="568.9" y1="127" x2="584.1" y2="127"/>
			<line class="st20" x1="469.5" y1="107.6" x2="486" y2="107.6"/>
			<g>
				<line class="st20" x1="567.6" y1="107.6" x2="584.1" y2="107.6"/>
				<line class="st21" x1="545.7" y1="107.6" x2="562.2" y2="107.6"/>
				<line class="st20" x1="490.5" y1="107.6" x2="538.6" y2="107.6"/>
			</g>
		</g>
		<g>
			<line class="st20" x1="448.6" y1="166.8" x2="465.1" y2="166.8"/>
			<line class="st21" x1="448.6" y1="176.5" x2="510.5" y2="176.5"/>
			<line class="st20" x1="544.4" y1="176.5" x2="606.3" y2="176.5"/>
			<line class="st20" x1="514.5" y1="176.5" x2="539.1" y2="176.5"/>
			<line class="st20" x1="448.6" y1="186.2" x2="484.2" y2="186.2"/>
			<line class="st20" x1="488.7" y1="186.2" x2="524.3" y2="186.2"/>
			<line class="st21" x1="528.8" y1="186.2" x2="564.5" y2="186.2"/>
			<line class="st20" x1="568.9" y1="186.2" x2="584.1" y2="186.2"/>
			<line class="st20" x1="469.5" y1="166.8" x2="486" y2="166.8"/>
			<g>
				<line class="st20" x1="567.6" y1="166.8" x2="584.1" y2="166.8"/>
				<line class="st21" x1="545.7" y1="166.8" x2="562.2" y2="166.8"/>
				<line class="st20" x1="490.5" y1="166.8" x2="538.6" y2="166.8"/>
			</g>
		</g>
		<g>
			<line class="st20" x1="448.6" y1="254" x2="465.1" y2="254"/>
			<line class="st21" x1="448.6" y1="263.6" x2="510.5" y2="263.6"/>
			<line class="st20" x1="544.4" y1="263.6" x2="606.3" y2="263.6"/>
			<line class="st20" x1="514.5" y1="263.6" x2="539.1" y2="263.6"/>
			<line class="st20" x1="448.6" y1="273.3" x2="484.2" y2="273.3"/>
			<line class="st20" x1="488.7" y1="273.3" x2="524.3" y2="273.3"/>
			<line class="st21" x1="528.8" y1="273.3" x2="564.5" y2="273.3"/>
			<line class="st20" x1="568.9" y1="273.3" x2="584.1" y2="273.3"/>
			<line class="st20" x1="469.5" y1="254" x2="486" y2="254"/>
			<g>
				<line class="st20" x1="567.6" y1="254" x2="584.1" y2="254"/>
				<line class="st21" x1="545.7" y1="254" x2="562.2" y2="254"/>
				<line class="st20" x1="490.5" y1="254" x2="538.6" y2="254"/>
			</g>
		</g>
		<g>
			<g>
				<line class="st20" x1="541.3" y1="137.2" x2="557.8" y2="137.2"/>
				<line class="st20" x1="519.4" y1="137.2" x2="535.9" y2="137.2"/>
				<line class="st20" x1="464.2" y1="137.2" x2="512.3" y2="137.2"/>
			</g>
			<g>
				<line class="st20" x1="541.3" y1="154.5" x2="557.8" y2="154.5"/>
				<line class="st20" x1="519.4" y1="154.5" x2="535.9" y2="154.5"/>
				<line class="st21" x1="464.2" y1="154.5" x2="512.3" y2="154.5"/>
			</g>
			<g>
				<line class="st20" x1="480.7" y1="145.9" x2="464.2" y2="145.9"/>
				<line class="st20" x1="502.5" y1="145.9" x2="486" y2="145.9"/>
				<line class="st21" x1="557.8" y1="145.9" x2="509.6" y2="145.9"/>
			</g>
		</g>
		<g>
			<g>
				<line class="st20" x1="541.3" y1="197.9" x2="557.8" y2="197.9"/>
				<line class="st20" x1="519.4" y1="197.9" x2="535.9" y2="197.9"/>
				<line class="st20" x1="464.2" y1="197.9" x2="512.3" y2="197.9"/>
			</g>
			<g>
				<line class="st20" x1="541.3" y1="215.2" x2="557.8" y2="215.2"/>
				<line class="st20" x1="519.4" y1="215.2" x2="535.9" y2="215.2"/>
				<line class="st21" x1="464.2" y1="215.2" x2="512.3" y2="215.2"/>
			</g>
			<g>
				<line class="st20" x1="480.7" y1="206.5" x2="464.2" y2="206.5"/>
				<line class="st20" x1="502.5" y1="206.5" x2="486" y2="206.5"/>
				<line class="st21" x1="557.8" y1="206.5" x2="509.6" y2="206.5"/>
			</g>
		</g>
		<g>
			<g>
				<line class="st20" x1="480.7" y1="225.4" x2="464.2" y2="225.4"/>
				<line class="st20" x1="502.5" y1="225.4" x2="486" y2="225.4"/>
				<line class="st21" x1="557.8" y1="225.4" x2="509.6" y2="225.4"/>
			</g>
			<g>
				<line class="st20" x1="480.7" y1="242.7" x2="464.2" y2="242.7"/>
				<line class="st20" x1="502.5" y1="242.7" x2="486" y2="242.7"/>
				<line class="st21" x1="557.8" y1="242.7" x2="509.6" y2="242.7"/>
			</g>
			<g>
				<line class="st20" x1="541.3" y1="234.1" x2="557.8" y2="234.1"/>
				<line class="st20" x1="519.4" y1="234.1" x2="535.9" y2="234.1"/>
				<line class="st21" x1="464.2" y1="234.1" x2="512.3" y2="234.1"/>
			</g>
		</g>
		<g>
			<rect x="437.2" y="104.3" class="st10" width="5.3" height="5.9"/>
			<rect x="437.2" y="114.1" class="st10" width="5.3" height="5.9"/>
			<rect x="437.2" y="123.8" class="st10" width="5.3" height="5.9"/>
			<rect x="437.2" y="133.6" class="st10" width="5.3" height="5.9"/>
			<rect x="437.2" y="143.4" class="st10" width="5.3" height="5.9"/>
			<rect x="437.2" y="153.1" class="st10" width="5.3" height="5.9"/>
			<rect x="437.2" y="162.9" class="st10" width="5.3" height="5.9"/>
			<rect x="437.2" y="172.7" class="st10" width="5.3" height="5.9"/>
			<rect x="437.2" y="182.5" class="st10" width="5.3" height="5.9"/>
			<rect x="437.2" y="192.2" class="st10" width="5.3" height="5.9"/>
			<rect x="437.2" y="202" class="st10" width="5.3" height="5.9"/>
			<rect x="437.2" y="211.8" class="st10" width="5.3" height="5.9"/>
			<rect x="437.2" y="221.5" class="st10" width="5.3" height="5.9"/>
			<rect x="437.2" y="231.3" class="st10" width="5.3" height="5.9"/>
			<rect x="437.2" y="241.1" class="st10" width="5.3" height="5.9"/>
			<rect x="437.2" y="250.9" class="st10" width="5.3" height="5.9"/>
			<rect x="437.2" y="260.6" class="st10" width="5.3" height="5.9"/>
			<rect x="437.2" y="270.4" class="st10" width="5.3" height="5.9"/>
		</g>
	</g>
</g>
<g id="Files">
</g>
<g id="Folder">
</g>
<g id="Calque_15" class="st22">
	<g class="st23">
		
			<rect x="224.2" y="182.1" transform="matrix(6.123234e-17 -1 1 6.123234e-17 56.0679 534.7739)" class="st18" width="142.5" height="114.5"/>
		<g>
			<line class="st2" x1="255.6" y1="287.4" x2="337.1" y2="287.4"/>
			<line class="st2" x1="255.6" y1="271.4" x2="337.1" y2="271.4"/>
			<line class="st2" x1="255.6" y1="255.4" x2="337.1" y2="255.4"/>
			<line class="st2" x1="255.6" y1="239.4" x2="337.1" y2="239.4"/>
			<line class="st2" x1="255.6" y1="223.3" x2="337.1" y2="223.3"/>
			<line class="st2" x1="255.6" y1="207.3" x2="337.1" y2="207.3"/>
			<line class="st2" x1="255.6" y1="191.3" x2="337.1" y2="191.3"/>
		</g>
	</g>
	<g class="st23">
		<rect x="312.7" y="167.7" class="st19" width="39.6" height="91.6"/>
		<g>
			
				<rect x="303.3" y="126.1" transform="matrix(6.123234e-17 -1 1 6.123234e-17 191.176 557.8964)" class="st18" width="142.5" height="114.5"/>
			<g>
				<line class="st2" x1="334.7" y1="231.4" x2="416.2" y2="231.4"/>
				<line class="st2" x1="334.7" y1="215.4" x2="416.2" y2="215.4"/>
				<line class="st2" x1="334.7" y1="199.4" x2="416.2" y2="199.4"/>
				<line class="st2" x1="334.7" y1="183.4" x2="416.2" y2="183.4"/>
				<line class="st2" x1="334.7" y1="167.3" x2="416.2" y2="167.3"/>
				<line class="st2" x1="334.7" y1="151.3" x2="416.2" y2="151.3"/>
				<line class="st2" x1="334.7" y1="135.3" x2="416.2" y2="135.3"/>
			</g>
		</g>
	</g>
	<g class="st23">
		<polygon class="st19" points="390.9,350.6 237.8,350.6 253.1,456.9 404.2,456.9 		"/>
		<g>
			<rect x="272.6" y="291.4" class="st19" width="10.1" height="18.5"/>
			
				<rect x="263.7" y="298.6" transform="matrix(6.123234e-17 -1 1 6.123234e-17 -20.9386 690.8958)" class="st18" width="142.5" height="114.5"/>
			<g>
				<line class="st2" x1="295.1" y1="404" x2="376.6" y2="404"/>
				<line class="st2" x1="295.1" y1="387.9" x2="376.6" y2="387.9"/>
				<line class="st2" x1="295.1" y1="371.9" x2="376.6" y2="371.9"/>
				<line class="st2" x1="295.1" y1="355.9" x2="376.6" y2="355.9"/>
				<line class="st2" x1="295.1" y1="339.9" x2="376.6" y2="339.9"/>
				<line class="st2" x1="295.1" y1="323.9" x2="376.6" y2="323.9"/>
				<line class="st2" x1="295.1" y1="307.9" x2="376.6" y2="307.9"/>
			</g>
		</g>
		<path class="st24" d="M404.3,355.9v-3.6c0-2.7-2.2-4.8-4.8-4.8H338c-2.7,0-4.8,2.2-4.8,4.8l0,0c0,2-1.6,3.6-3.6,3.6h-67l-9.5,101
			h151.1l9.5-101H404.3z"/>
	</g>
</g>
<g id="Bugs">
</g>
<g id="Calque_13" class="st22">
	<g class="st23">
		<g>
			<g>
				<path class="st10" d="M332.1,147h-10c-0.9,0-1.7-0.7-1.7-1.7c0-0.9,0.7-1.7,1.7-1.7h10c0.9,0,1.7,0.7,1.7,1.7
					C333.8,146.2,333,147,332.1,147z"/>
			</g>
			<g>
				<path class="st10" d="M332.6,136.4c-0.4,0-0.8-0.1-1.1-0.4l-9.5-8.7c-0.7-0.6-0.7-1.7-0.1-2.3c0.6-0.7,1.7-0.7,2.3-0.1l9.5,8.7
					c0.7,0.6,0.7,1.7,0.1,2.3C333.5,136.3,333.1,136.4,332.6,136.4z"/>
			</g>
			<g>
				<path class="st10" d="M323.1,164.2c-0.4,0-0.9-0.2-1.2-0.5c-0.6-0.7-0.6-1.7,0.1-2.3l9.5-8.7c0.7-0.6,1.7-0.6,2.3,0.1
					c0.6,0.7,0.6,1.7-0.1,2.3l-9.5,8.7C323.9,164.1,323.5,164.2,323.1,164.2z"/>
			</g>
		</g>
		<g>
			<g>
				<path class="st10" d="M350.4,147h10c0.9,0,1.7-0.7,1.7-1.7c0-0.9-0.7-1.7-1.7-1.7h-10c-0.9,0-1.7,0.7-1.7,1.7
					C348.7,146.2,349.5,147,350.4,147z"/>
			</g>
			<g>
				<path class="st10" d="M349.8,136.4c0.4,0,0.8-0.1,1.1-0.4l9.5-8.7c0.7-0.6,0.7-1.7,0.1-2.3c-0.6-0.7-1.7-0.7-2.3-0.1l-9.5,8.7
					c-0.7,0.6-0.7,1.7-0.1,2.3C348.9,136.3,349.4,136.4,349.8,136.4z"/>
			</g>
			<g>
				<path class="st10" d="M359.4,164.2c0.4,0,0.9-0.2,1.2-0.5c0.6-0.7,0.6-1.7-0.1-2.3l-9.5-8.7c-0.7-0.6-1.7-0.6-2.3,0.1
					c-0.6,0.7-0.6,1.7,0.1,2.3l9.5,8.7C358.6,164.1,359,164.2,359.4,164.2z"/>
			</g>
		</g>
		<circle class="st19" cx="341.6" cy="128.4" r="6.3"/>
		<path class="st24" d="M345.2,160.7H338c-4.5,0-8.2-3.7-8.2-8.2v-14.3c0-4.5,3.7-8.2,8.2-8.2h7.1c4.5,0,8.2,3.7,8.2,8.2v14.3
			C353.3,157,349.7,160.7,345.2,160.7z"/>
		<path class="st25" d="M341.6,138.8c4.4,0,8.3-1.8,11.2-4.6c-1-2.4-3.4-4.1-6.2-4.1h-10c-2.8,0-5.2,1.7-6.2,4.1
			C333.3,137,337.2,138.8,341.6,138.8z"/>
		<line class="st2" x1="341.6" y1="138.8" x2="341.6" y2="159.9"/>
	</g>
</g>
<g id="Calque_14">
	<g class="st26">
		<g>
			<path class="st0" d="M69.9,51.2h-4.1c-0.6,0-1-0.4-1-1c0-0.6,0.4-1,1-1h4.1c0.6,0,1,0.4,1,1C70.9,50.8,70.5,51.2,69.9,51.2z
				 M70.9,54.9c0-0.6-0.4-1-1-1h-4.1c-0.6,0-1,0.4-1,1c0,0.6,0.4,1,1,1h4.1C70.5,55.9,70.9,55.4,70.9,54.9z M70.9,59.5
				c0-0.6-0.4-1-1-1h-4.1c-0.6,0-1,0.4-1,1c0,0.6,0.4,1,1,1h4.1C70.5,60.5,70.9,60,70.9,59.5z M70.9,64.1c0-0.6-0.4-1-1-1h-4.1
				c-0.6,0-1,0.4-1,1c0,0.6,0.4,1,1,1h4.1C70.5,65.1,70.9,64.7,70.9,64.1z M70.9,68.8c0-0.6-0.4-1-1-1h-4.1c-0.6,0-1,0.4-1,1
				c0,0.6,0.4,1,1,1h4.1C70.5,69.8,70.9,69.3,70.9,68.8z M70.9,73.4c0-0.6-0.4-1-1-1h-4.1c-0.6,0-1,0.4-1,1c0,0.6,0.4,1,1,1h4.1
				C70.5,74.4,70.9,74,70.9,73.4z M70.9,78c0-0.6-0.4-1-1-1h-4.1c-0.6,0-1,0.4-1,1c0,0.6,0.4,1,1,1h4.1C70.5,79,70.9,78.6,70.9,78z
				 M70.9,82.7c0-0.6-0.4-1-1-1h-4.1c-0.6,0-1,0.4-1,1c0,0.6,0.4,1,1,1h4.1C70.5,83.7,70.9,83.2,70.9,82.7z M86.1,50.2
				c0-0.6-0.4-1-1-1H74.5c-0.6,0-1,0.4-1,1c0,0.6,0.4,1,1,1h10.7C85.7,51.2,86.1,50.8,86.1,50.2z M86.1,54.9c0-0.6-0.4-1-1-1H74.5
				c-0.6,0-1,0.4-1,1c0,0.6,0.4,1,1,1h10.7C85.7,55.9,86.1,55.4,86.1,54.9z M86.1,59.5c0-0.6-0.4-1-1-1H74.5c-0.6,0-1,0.4-1,1
				c0,0.6,0.4,1,1,1h10.7C85.7,60.5,86.1,60,86.1,59.5z M86.1,64.1c0-0.6-0.4-1-1-1H74.5c-0.6,0-1,0.4-1,1c0,0.6,0.4,1,1,1h10.7
				C85.7,65.1,86.1,64.7,86.1,64.1z M86.1,68.8c0-0.6-0.4-1-1-1H74.5c-0.6,0-1,0.4-1,1c0,0.6,0.4,1,1,1h10.7
				C85.7,69.8,86.1,69.3,86.1,68.8z M98.9,73.4c0-0.6-0.4-1-1-1H87.2c-0.6,0-1,0.4-1,1c0,0.6,0.4,1,1,1h10.7
				C98.4,74.4,98.9,74,98.9,73.4z M98.9,78c0-0.6-0.4-1-1-1H87.2c-0.6,0-1,0.4-1,1c0,0.6,0.4,1,1,1h10.7C98.4,79,98.9,78.6,98.9,78z
				 M98.9,82.7c0-0.6-0.4-1-1-1H87.2c-0.6,0-1,0.4-1,1c0,0.6,0.4,1,1,1h10.7C98.4,83.7,98.9,83.2,98.9,82.7z M90.8,50.2
				c0-0.6-0.5-1.2-1.2-1.2c-0.6,0-1.2,0.5-1.2,1.2c0,0.6,0.5,1.2,1.2,1.2C90.3,51.4,90.8,50.9,90.8,50.2z M94.3,50.2
				c0-0.6-0.5-1.2-1.2-1.2c-0.6,0-1.2,0.5-1.2,1.2c0,0.6,0.5,1.2,1.2,1.2C93.8,51.4,94.3,50.9,94.3,50.2z M97.7,50.2
				c0-0.6-0.5-1.2-1.2-1.2c-0.6,0-1.2,0.5-1.2,1.2c0,0.6,0.5,1.2,1.2,1.2C97.2,51.4,97.7,50.9,97.7,50.2z M101.2,50.2
				c0-0.6-0.5-1.2-1.2-1.2c-0.6,0-1.2,0.5-1.2,1.2c0,0.6,0.5,1.2,1.2,1.2C100.7,51.4,101.2,50.9,101.2,50.2z M104.7,50.2
				c0-0.6-0.5-1.2-1.2-1.2c-0.6,0-1.2,0.5-1.2,1.2c0,0.6,0.5,1.2,1.2,1.2C104.2,51.4,104.7,50.9,104.7,50.2z M108.2,50.2
				c0-0.6-0.5-1.2-1.2-1.2c-0.6,0-1.2,0.5-1.2,1.2c0,0.6,0.5,1.2,1.2,1.2C107.7,51.4,108.2,50.9,108.2,50.2z M90.8,59.5
				c0-0.6-0.5-1.2-1.2-1.2c-0.6,0-1.2,0.5-1.2,1.2c0,0.6,0.5,1.2,1.2,1.2C90.3,60.6,90.8,60.1,90.8,59.5z M94.3,59.5
				c0-0.6-0.5-1.2-1.2-1.2c-0.6,0-1.2,0.5-1.2,1.2c0,0.6,0.5,1.2,1.2,1.2C93.8,60.6,94.3,60.1,94.3,59.5z M97.7,59.5
				c0-0.6-0.5-1.2-1.2-1.2c-0.6,0-1.2,0.5-1.2,1.2c0,0.6,0.5,1.2,1.2,1.2C97.2,60.6,97.7,60.1,97.7,59.5z M101.2,59.5
				c0-0.6-0.5-1.2-1.2-1.2c-0.6,0-1.2,0.5-1.2,1.2c0,0.6,0.5,1.2,1.2,1.2C100.7,60.6,101.2,60.1,101.2,59.5z M104.7,59.5
				c0-0.6-0.5-1.2-1.2-1.2c-0.6,0-1.2,0.5-1.2,1.2c0,0.6,0.5,1.2,1.2,1.2C104.2,60.6,104.7,60.1,104.7,59.5z M108.2,59.5
				c0-0.6-0.5-1.2-1.2-1.2c-0.6,0-1.2,0.5-1.2,1.2c0,0.6,0.5,1.2,1.2,1.2C107.7,60.6,108.2,60.1,108.2,59.5z M102.7,72.8
				c0-0.6-0.5-1.2-1.2-1.2c-0.6,0-1.2,0.5-1.2,1.2c0,0.6,0.5,1.2,1.2,1.2C102.2,74,102.7,73.5,102.7,72.8z M106.2,72.8
				c0-0.6-0.5-1.2-1.2-1.2c-0.6,0-1.2,0.5-1.2,1.2c0,0.6,0.5,1.2,1.2,1.2C105.6,74,106.2,73.5,106.2,72.8z M109.6,72.8
				c0-0.6-0.5-1.2-1.2-1.2c-0.6,0-1.2,0.5-1.2,1.2c0,0.6,0.5,1.2,1.2,1.2C109.1,74,109.6,73.5,109.6,72.8z M113.1,72.8
				c0-0.6-0.5-1.2-1.2-1.2c-0.6,0-1.2,0.5-1.2,1.2c0,0.6,0.5,1.2,1.2,1.2C112.6,74,113.1,73.5,113.1,72.8z M116.6,72.8
				c0-0.6-0.5-1.2-1.2-1.2c-0.6,0-1.2,0.5-1.2,1.2c0,0.6,0.5,1.2,1.2,1.2C116.1,74,116.6,73.5,116.6,72.8z M120.1,72.8
				c0-0.6-0.5-1.2-1.2-1.2c-0.6,0-1.2,0.5-1.2,1.2c0,0.6,0.5,1.2,1.2,1.2C119.5,74,120.1,73.5,120.1,72.8z M102.7,82.4
				c0-0.6-0.5-1.2-1.2-1.2c-0.6,0-1.2,0.5-1.2,1.2c0,0.6,0.5,1.2,1.2,1.2C102.2,83.5,102.7,83,102.7,82.4z M106.2,82.4
				c0-0.6-0.5-1.2-1.2-1.2c-0.6,0-1.2,0.5-1.2,1.2c0,0.6,0.5,1.2,1.2,1.2C105.6,83.5,106.2,83,106.2,82.4z M109.6,82.4
				c0-0.6-0.5-1.2-1.2-1.2c-0.6,0-1.2,0.5-1.2,1.2c0,0.6,0.5,1.2,1.2,1.2C109.1,83.5,109.6,83,109.6,82.4z M113.1,82.4
				c0-0.6-0.5-1.2-1.2-1.2c-0.6,0-1.2,0.5-1.2,1.2c0,0.6,0.5,1.2,1.2,1.2C112.6,83.5,113.1,83,113.1,82.4z M116.6,82.4
				c0-0.6-0.5-1.2-1.2-1.2c-0.6,0-1.2,0.5-1.2,1.2c0,0.6,0.5,1.2,1.2,1.2C116.1,83.5,116.6,83,116.6,82.4z M120.1,82.4
				c0-0.6-0.5-1.2-1.2-1.2c-0.6,0-1.2,0.5-1.2,1.2c0,0.6,0.5,1.2,1.2,1.2C119.5,83.5,120.1,83,120.1,82.4z"/>
			<path class="st0" d="M69.9,88.3h-4.1c-0.6,0-1-0.4-1-1c0-0.6,0.4-1,1-1h4.1c0.6,0,1,0.4,1,1C70.9,87.9,70.5,88.3,69.9,88.3z
				 M70.9,92c0-0.6-0.4-1-1-1h-4.1c-0.6,0-1,0.4-1,1c0,0.6,0.4,1,1,1h4.1C70.5,93,70.9,92.5,70.9,92z M70.9,96.6c0-0.6-0.4-1-1-1
				h-4.1c-0.6,0-1,0.4-1,1c0,0.6,0.4,1,1,1h4.1C70.5,97.6,70.9,97.1,70.9,96.6z M70.9,101.2c0-0.6-0.4-1-1-1h-4.1c-0.6,0-1,0.4-1,1
				c0,0.6,0.4,1,1,1h4.1C70.5,102.2,70.9,101.8,70.9,101.2z M70.9,105.9c0-0.6-0.4-1-1-1h-4.1c-0.6,0-1,0.4-1,1s0.4,1,1,1h4.1
				C70.5,106.9,70.9,106.4,70.9,105.9z M70.9,110.5c0-0.6-0.4-1-1-1h-4.1c-0.6,0-1,0.4-1,1c0,0.6,0.4,1,1,1h4.1
				C70.5,111.5,70.9,111.1,70.9,110.5z M70.9,115.1c0-0.6-0.4-1-1-1h-4.1c-0.6,0-1,0.4-1,1s0.4,1,1,1h4.1
				C70.5,116.1,70.9,115.7,70.9,115.1z M70.9,119.8c0-0.6-0.4-1-1-1h-4.1c-0.6,0-1,0.4-1,1c0,0.6,0.4,1,1,1h4.1
				C70.5,120.8,70.9,120.3,70.9,119.8z M86.1,87.3c0-0.6-0.4-1-1-1H74.5c-0.6,0-1,0.4-1,1c0,0.6,0.4,1,1,1h10.7
				C85.7,88.3,86.1,87.9,86.1,87.3z M86.1,92c0-0.6-0.4-1-1-1H74.5c-0.6,0-1,0.4-1,1c0,0.6,0.4,1,1,1h10.7
				C85.7,93,86.1,92.5,86.1,92z M86.1,96.6c0-0.6-0.4-1-1-1H74.5c-0.6,0-1,0.4-1,1c0,0.6,0.4,1,1,1h10.7
				C85.7,97.6,86.1,97.1,86.1,96.6z M86.1,101.2c0-0.6-0.4-1-1-1H74.5c-0.6,0-1,0.4-1,1c0,0.6,0.4,1,1,1h10.7
				C85.7,102.2,86.1,101.8,86.1,101.2z M86.1,105.9c0-0.6-0.4-1-1-1H74.5c-0.6,0-1,0.4-1,1s0.4,1,1,1h10.7
				C85.7,106.9,86.1,106.4,86.1,105.9z M98.9,110.5c0-0.6-0.4-1-1-1H87.2c-0.6,0-1,0.4-1,1c0,0.6,0.4,1,1,1h10.7
				C98.4,111.5,98.9,111.1,98.9,110.5z M98.9,115.1c0-0.6-0.4-1-1-1H87.2c-0.6,0-1,0.4-1,1s0.4,1,1,1h10.7
				C98.4,116.1,98.9,115.7,98.9,115.1z M98.9,119.8c0-0.6-0.4-1-1-1H87.2c-0.6,0-1,0.4-1,1c0,0.6,0.4,1,1,1h10.7
				C98.4,120.8,98.9,120.3,98.9,119.8z M90.8,87.3c0-0.6-0.5-1.2-1.2-1.2c-0.6,0-1.2,0.5-1.2,1.2c0,0.6,0.5,1.2,1.2,1.2
				C90.3,88.5,90.8,88,90.8,87.3z M94.3,87.3c0-0.6-0.5-1.2-1.2-1.2c-0.6,0-1.2,0.5-1.2,1.2c0,0.6,0.5,1.2,1.2,1.2
				C93.8,88.5,94.3,88,94.3,87.3z M97.7,87.3c0-0.6-0.5-1.2-1.2-1.2c-0.6,0-1.2,0.5-1.2,1.2c0,0.6,0.5,1.2,1.2,1.2
				C97.2,88.5,97.7,88,97.7,87.3z M101.2,87.3c0-0.6-0.5-1.2-1.2-1.2c-0.6,0-1.2,0.5-1.2,1.2c0,0.6,0.5,1.2,1.2,1.2
				C100.7,88.5,101.2,88,101.2,87.3z M104.7,87.3c0-0.6-0.5-1.2-1.2-1.2c-0.6,0-1.2,0.5-1.2,1.2c0,0.6,0.5,1.2,1.2,1.2
				C104.2,88.5,104.7,88,104.7,87.3z M108.2,87.3c0-0.6-0.5-1.2-1.2-1.2c-0.6,0-1.2,0.5-1.2,1.2c0,0.6,0.5,1.2,1.2,1.2
				C107.7,88.5,108.2,88,108.2,87.3z M90.8,96.6c0-0.6-0.5-1.2-1.2-1.2c-0.6,0-1.2,0.5-1.2,1.2c0,0.6,0.5,1.2,1.2,1.2
				C90.3,97.8,90.8,97.2,90.8,96.6z M94.3,96.6c0-0.6-0.5-1.2-1.2-1.2c-0.6,0-1.2,0.5-1.2,1.2c0,0.6,0.5,1.2,1.2,1.2
				C93.8,97.8,94.3,97.2,94.3,96.6z M97.7,96.6c0-0.6-0.5-1.2-1.2-1.2c-0.6,0-1.2,0.5-1.2,1.2c0,0.6,0.5,1.2,1.2,1.2
				C97.2,97.8,97.7,97.2,97.7,96.6z M101.2,96.6c0-0.6-0.5-1.2-1.2-1.2c-0.6,0-1.2,0.5-1.2,1.2c0,0.6,0.5,1.2,1.2,1.2
				C100.7,97.8,101.2,97.2,101.2,96.6z M104.7,96.6c0-0.6-0.5-1.2-1.2-1.2c-0.6,0-1.2,0.5-1.2,1.2c0,0.6,0.5,1.2,1.2,1.2
				C104.2,97.8,104.7,97.2,104.7,96.6z M108.2,96.6c0-0.6-0.5-1.2-1.2-1.2c-0.6,0-1.2,0.5-1.2,1.2c0,0.6,0.5,1.2,1.2,1.2
				C107.7,97.8,108.2,97.2,108.2,96.6z M102.7,109.9c0-0.6-0.5-1.2-1.2-1.2c-0.6,0-1.2,0.5-1.2,1.2c0,0.6,0.5,1.2,1.2,1.2
				C102.2,111.1,102.7,110.6,102.7,109.9z M106.2,109.9c0-0.6-0.5-1.2-1.2-1.2c-0.6,0-1.2,0.5-1.2,1.2c0,0.6,0.5,1.2,1.2,1.2
				C105.6,111.1,106.2,110.6,106.2,109.9z M109.6,109.9c0-0.6-0.5-1.2-1.2-1.2c-0.6,0-1.2,0.5-1.2,1.2c0,0.6,0.5,1.2,1.2,1.2
				C109.1,111.1,109.6,110.6,109.6,109.9z M113.1,109.9c0-0.6-0.5-1.2-1.2-1.2c-0.6,0-1.2,0.5-1.2,1.2c0,0.6,0.5,1.2,1.2,1.2
				C112.6,111.1,113.1,110.6,113.1,109.9z M116.6,109.9c0-0.6-0.5-1.2-1.2-1.2c-0.6,0-1.2,0.5-1.2,1.2c0,0.6,0.5,1.2,1.2,1.2
				C116.1,111.1,116.6,110.6,116.6,109.9z M120.1,109.9c0-0.6-0.5-1.2-1.2-1.2c-0.6,0-1.2,0.5-1.2,1.2c0,0.6,0.5,1.2,1.2,1.2
				C119.5,111.1,120.1,110.6,120.1,109.9z M102.7,119.5c0-0.6-0.5-1.2-1.2-1.2c-0.6,0-1.2,0.5-1.2,1.2c0,0.6,0.5,1.2,1.2,1.2
				C102.2,120.6,102.7,120.1,102.7,119.5z M106.2,119.5c0-0.6-0.5-1.2-1.2-1.2c-0.6,0-1.2,0.5-1.2,1.2c0,0.6,0.5,1.2,1.2,1.2
				C105.6,120.6,106.2,120.1,106.2,119.5z M109.6,119.5c0-0.6-0.5-1.2-1.2-1.2c-0.6,0-1.2,0.5-1.2,1.2c0,0.6,0.5,1.2,1.2,1.2
				C109.1,120.6,109.6,120.1,109.6,119.5z M113.1,119.5c0-0.6-0.5-1.2-1.2-1.2c-0.6,0-1.2,0.5-1.2,1.2c0,0.6,0.5,1.2,1.2,1.2
				C112.6,120.6,113.1,120.1,113.1,119.5z M116.6,119.5c0-0.6-0.5-1.2-1.2-1.2c-0.6,0-1.2,0.5-1.2,1.2c0,0.6,0.5,1.2,1.2,1.2
				C116.1,120.6,116.6,120.1,116.6,119.5z M120.1,119.5c0-0.6-0.5-1.2-1.2-1.2c-0.6,0-1.2,0.5-1.2,1.2c0,0.6,0.5,1.2,1.2,1.2
				C119.5,120.6,120.1,120.1,120.1,119.5z"/>
			<path class="st0" d="M69.9,126.3h-4.1c-0.6,0-1-0.4-1-1c0-0.6,0.4-1,1-1h4.1c0.6,0,1,0.4,1,1C70.9,125.9,70.5,126.3,69.9,126.3z
				 M70.9,130c0-0.6-0.4-1-1-1h-4.1c-0.6,0-1,0.4-1,1c0,0.6,0.4,1,1,1h4.1C70.5,131,70.9,130.5,70.9,130z M70.9,134.6
				c0-0.6-0.4-1-1-1h-4.1c-0.6,0-1,0.4-1,1c0,0.6,0.4,1,1,1h4.1C70.5,135.6,70.9,135.1,70.9,134.6z M70.9,139.2c0-0.6-0.4-1-1-1
				h-4.1c-0.6,0-1,0.4-1,1c0,0.6,0.4,1,1,1h4.1C70.5,140.2,70.9,139.8,70.9,139.2z M70.9,143.9c0-0.6-0.4-1-1-1h-4.1
				c-0.6,0-1,0.4-1,1c0,0.6,0.4,1,1,1h4.1C70.5,144.9,70.9,144.4,70.9,143.9z M70.9,148.5c0-0.6-0.4-1-1-1h-4.1c-0.6,0-1,0.4-1,1
				c0,0.6,0.4,1,1,1h4.1C70.5,149.5,70.9,149.1,70.9,148.5z M70.9,153.1c0-0.6-0.4-1-1-1h-4.1c-0.6,0-1,0.4-1,1c0,0.6,0.4,1,1,1h4.1
				C70.5,154.1,70.9,153.7,70.9,153.1z M70.9,157.8c0-0.6-0.4-1-1-1h-4.1c-0.6,0-1,0.4-1,1c0,0.6,0.4,1,1,1h4.1
				C70.5,158.8,70.9,158.3,70.9,157.8z M86.1,125.3c0-0.6-0.4-1-1-1H74.5c-0.6,0-1,0.4-1,1c0,0.6,0.4,1,1,1h10.7
				C85.7,126.3,86.1,125.9,86.1,125.3z M86.1,130c0-0.6-0.4-1-1-1H74.5c-0.6,0-1,0.4-1,1c0,0.6,0.4,1,1,1h10.7
				C85.7,131,86.1,130.5,86.1,130z M86.1,134.6c0-0.6-0.4-1-1-1H74.5c-0.6,0-1,0.4-1,1c0,0.6,0.4,1,1,1h10.7
				C85.7,135.6,86.1,135.1,86.1,134.6z M86.1,139.2c0-0.6-0.4-1-1-1H74.5c-0.6,0-1,0.4-1,1c0,0.6,0.4,1,1,1h10.7
				C85.7,140.2,86.1,139.8,86.1,139.2z M86.1,143.9c0-0.6-0.4-1-1-1H74.5c-0.6,0-1,0.4-1,1c0,0.6,0.4,1,1,1h10.7
				C85.7,144.9,86.1,144.4,86.1,143.9z M98.9,148.5c0-0.6-0.4-1-1-1H87.2c-0.6,0-1,0.4-1,1c0,0.6,0.4,1,1,1h10.7
				C98.4,149.5,98.9,149.1,98.9,148.5z M98.9,153.1c0-0.6-0.4-1-1-1H87.2c-0.6,0-1,0.4-1,1c0,0.6,0.4,1,1,1h10.7
				C98.4,154.1,98.9,153.7,98.9,153.1z M98.9,157.8c0-0.6-0.4-1-1-1H87.2c-0.6,0-1,0.4-1,1c0,0.6,0.4,1,1,1h10.7
				C98.4,158.8,98.9,158.3,98.9,157.8z M90.8,125.3c0-0.6-0.5-1.2-1.2-1.2c-0.6,0-1.2,0.5-1.2,1.2c0,0.6,0.5,1.2,1.2,1.2
				C90.3,126.5,90.8,126,90.8,125.3z M94.3,125.3c0-0.6-0.5-1.2-1.2-1.2c-0.6,0-1.2,0.5-1.2,1.2c0,0.6,0.5,1.2,1.2,1.2
				C93.8,126.5,94.3,126,94.3,125.3z M97.7,125.3c0-0.6-0.5-1.2-1.2-1.2c-0.6,0-1.2,0.5-1.2,1.2c0,0.6,0.5,1.2,1.2,1.2
				C97.2,126.5,97.7,126,97.7,125.3z M101.2,125.3c0-0.6-0.5-1.2-1.2-1.2c-0.6,0-1.2,0.5-1.2,1.2c0,0.6,0.5,1.2,1.2,1.2
				C100.7,126.5,101.2,126,101.2,125.3z M104.7,125.3c0-0.6-0.5-1.2-1.2-1.2c-0.6,0-1.2,0.5-1.2,1.2c0,0.6,0.5,1.2,1.2,1.2
				C104.2,126.5,104.7,126,104.7,125.3z M108.2,125.3c0-0.6-0.5-1.2-1.2-1.2c-0.6,0-1.2,0.5-1.2,1.2c0,0.6,0.5,1.2,1.2,1.2
				C107.7,126.5,108.2,126,108.2,125.3z M90.8,134.6c0-0.6-0.5-1.2-1.2-1.2c-0.6,0-1.2,0.5-1.2,1.2c0,0.6,0.5,1.2,1.2,1.2
				C90.3,135.8,90.8,135.2,90.8,134.6z M94.3,134.6c0-0.6-0.5-1.2-1.2-1.2c-0.6,0-1.2,0.5-1.2,1.2c0,0.6,0.5,1.2,1.2,1.2
				C93.8,135.8,94.3,135.2,94.3,134.6z M97.7,134.6c0-0.6-0.5-1.2-1.2-1.2c-0.6,0-1.2,0.5-1.2,1.2c0,0.6,0.5,1.2,1.2,1.2
				C97.2,135.8,97.7,135.2,97.7,134.6z M101.2,134.6c0-0.6-0.5-1.2-1.2-1.2c-0.6,0-1.2,0.5-1.2,1.2c0,0.6,0.5,1.2,1.2,1.2
				C100.7,135.8,101.2,135.2,101.2,134.6z M104.7,134.6c0-0.6-0.5-1.2-1.2-1.2c-0.6,0-1.2,0.5-1.2,1.2c0,0.6,0.5,1.2,1.2,1.2
				C104.2,135.8,104.7,135.2,104.7,134.6z M108.2,134.6c0-0.6-0.5-1.2-1.2-1.2c-0.6,0-1.2,0.5-1.2,1.2c0,0.6,0.5,1.2,1.2,1.2
				C107.7,135.8,108.2,135.2,108.2,134.6z M102.7,147.9c0-0.6-0.5-1.2-1.2-1.2c-0.6,0-1.2,0.5-1.2,1.2c0,0.6,0.5,1.2,1.2,1.2
				C102.2,149.1,102.7,148.6,102.7,147.9z M106.2,147.9c0-0.6-0.5-1.2-1.2-1.2c-0.6,0-1.2,0.5-1.2,1.2c0,0.6,0.5,1.2,1.2,1.2
				C105.6,149.1,106.2,148.6,106.2,147.9z M109.6,147.9c0-0.6-0.5-1.2-1.2-1.2c-0.6,0-1.2,0.5-1.2,1.2c0,0.6,0.5,1.2,1.2,1.2
				C109.1,149.1,109.6,148.6,109.6,147.9z M113.1,147.9c0-0.6-0.5-1.2-1.2-1.2c-0.6,0-1.2,0.5-1.2,1.2c0,0.6,0.5,1.2,1.2,1.2
				C112.6,149.1,113.1,148.6,113.1,147.9z M116.6,147.9c0-0.6-0.5-1.2-1.2-1.2c-0.6,0-1.2,0.5-1.2,1.2c0,0.6,0.5,1.2,1.2,1.2
				C116.1,149.1,116.6,148.6,116.6,147.9z M120.1,147.9c0-0.6-0.5-1.2-1.2-1.2c-0.6,0-1.2,0.5-1.2,1.2c0,0.6,0.5,1.2,1.2,1.2
				C119.5,149.1,120.1,148.6,120.1,147.9z M102.7,157.5c0-0.6-0.5-1.2-1.2-1.2c-0.6,0-1.2,0.5-1.2,1.2c0,0.6,0.5,1.2,1.2,1.2
				C102.2,158.6,102.7,158.1,102.7,157.5z M106.2,157.5c0-0.6-0.5-1.2-1.2-1.2c-0.6,0-1.2,0.5-1.2,1.2c0,0.6,0.5,1.2,1.2,1.2
				C105.6,158.6,106.2,158.1,106.2,157.5z M109.6,157.5c0-0.6-0.5-1.2-1.2-1.2c-0.6,0-1.2,0.5-1.2,1.2c0,0.6,0.5,1.2,1.2,1.2
				C109.1,158.6,109.6,158.1,109.6,157.5z M113.1,157.5c0-0.6-0.5-1.2-1.2-1.2c-0.6,0-1.2,0.5-1.2,1.2c0,0.6,0.5,1.2,1.2,1.2
				C112.6,158.6,113.1,158.1,113.1,157.5z M116.6,157.5c0-0.6-0.5-1.2-1.2-1.2c-0.6,0-1.2,0.5-1.2,1.2c0,0.6,0.5,1.2,1.2,1.2
				C116.1,158.6,116.6,158.1,116.6,157.5z M120.1,157.5c0-0.6-0.5-1.2-1.2-1.2c-0.6,0-1.2,0.5-1.2,1.2c0,0.6,0.5,1.2,1.2,1.2
				C119.5,158.6,120.1,158.1,120.1,157.5z"/>
			<path class="st0" d="M132.2,51.2h-4.1c-0.6,0-1-0.4-1-1c0-0.6,0.4-1,1-1h4.1c0.6,0,1,0.4,1,1C133.2,50.8,132.8,51.2,132.2,51.2z
				 M133.2,54.9c0-0.6-0.4-1-1-1h-4.1c-0.6,0-1,0.4-1,1c0,0.6,0.4,1,1,1h4.1C132.8,55.9,133.2,55.4,133.2,54.9z M133.2,59.5
				c0-0.6-0.4-1-1-1h-4.1c-0.6,0-1,0.4-1,1c0,0.6,0.4,1,1,1h4.1C132.8,60.5,133.2,60,133.2,59.5z M133.2,64.1c0-0.6-0.4-1-1-1h-4.1
				c-0.6,0-1,0.4-1,1c0,0.6,0.4,1,1,1h4.1C132.8,65.1,133.2,64.7,133.2,64.1z M133.2,68.8c0-0.6-0.4-1-1-1h-4.1c-0.6,0-1,0.4-1,1
				c0,0.6,0.4,1,1,1h4.1C132.8,69.8,133.2,69.3,133.2,68.8z M133.2,73.4c0-0.6-0.4-1-1-1h-4.1c-0.6,0-1,0.4-1,1c0,0.6,0.4,1,1,1h4.1
				C132.8,74.4,133.2,74,133.2,73.4z M133.2,78c0-0.6-0.4-1-1-1h-4.1c-0.6,0-1,0.4-1,1c0,0.6,0.4,1,1,1h4.1
				C132.8,79,133.2,78.6,133.2,78z M133.2,82.7c0-0.6-0.4-1-1-1h-4.1c-0.6,0-1,0.4-1,1c0,0.6,0.4,1,1,1h4.1
				C132.8,83.7,133.2,83.2,133.2,82.7z M148.4,50.2c0-0.6-0.4-1-1-1h-10.7c-0.6,0-1,0.4-1,1c0,0.6,0.4,1,1,1h10.7
				C147.9,51.2,148.4,50.8,148.4,50.2z M148.4,54.9c0-0.6-0.4-1-1-1h-10.7c-0.6,0-1,0.4-1,1c0,0.6,0.4,1,1,1h10.7
				C147.9,55.9,148.4,55.4,148.4,54.9z M148.4,59.5c0-0.6-0.4-1-1-1h-10.7c-0.6,0-1,0.4-1,1c0,0.6,0.4,1,1,1h10.7
				C147.9,60.5,148.4,60,148.4,59.5z M148.4,64.1c0-0.6-0.4-1-1-1h-10.7c-0.6,0-1,0.4-1,1c0,0.6,0.4,1,1,1h10.7
				C147.9,65.1,148.4,64.7,148.4,64.1z M148.4,68.8c0-0.6-0.4-1-1-1h-10.7c-0.6,0-1,0.4-1,1c0,0.6,0.4,1,1,1h10.7
				C147.9,69.8,148.4,69.3,148.4,68.8z M161.1,73.4c0-0.6-0.4-1-1-1h-10.7c-0.6,0-1,0.4-1,1c0,0.6,0.4,1,1,1h10.7
				C160.7,74.4,161.1,74,161.1,73.4z M161.1,78c0-0.6-0.4-1-1-1h-10.7c-0.6,0-1,0.4-1,1c0,0.6,0.4,1,1,1h10.7
				C160.7,79,161.1,78.6,161.1,78z M161.1,82.7c0-0.6-0.4-1-1-1h-10.7c-0.6,0-1,0.4-1,1c0,0.6,0.4,1,1,1h10.7
				C160.7,83.7,161.1,83.2,161.1,82.7z M153.1,50.2c0-0.6-0.5-1.2-1.2-1.2c-0.6,0-1.2,0.5-1.2,1.2c0,0.6,0.5,1.2,1.2,1.2
				C152.6,51.4,153.1,50.9,153.1,50.2z M156.6,50.2c0-0.6-0.5-1.2-1.2-1.2c-0.6,0-1.2,0.5-1.2,1.2c0,0.6,0.5,1.2,1.2,1.2
				C156,51.4,156.6,50.9,156.6,50.2z M160,50.2c0-0.6-0.5-1.2-1.2-1.2c-0.6,0-1.2,0.5-1.2,1.2c0,0.6,0.5,1.2,1.2,1.2
				C159.5,51.4,160,50.9,160,50.2z M163.5,50.2c0-0.6-0.5-1.2-1.2-1.2c-0.6,0-1.2,0.5-1.2,1.2c0,0.6,0.5,1.2,1.2,1.2
				C163,51.4,163.5,50.9,163.5,50.2z M167,50.2c0-0.6-0.5-1.2-1.2-1.2c-0.6,0-1.2,0.5-1.2,1.2c0,0.6,0.5,1.2,1.2,1.2
				C166.5,51.4,167,50.9,167,50.2z M170.5,50.2c0-0.6-0.5-1.2-1.2-1.2c-0.6,0-1.2,0.5-1.2,1.2c0,0.6,0.5,1.2,1.2,1.2
				C170,51.4,170.5,50.9,170.5,50.2z M153.1,59.5c0-0.6-0.5-1.2-1.2-1.2c-0.6,0-1.2,0.5-1.2,1.2c0,0.6,0.5,1.2,1.2,1.2
				C152.6,60.6,153.1,60.1,153.1,59.5z M156.6,59.5c0-0.6-0.5-1.2-1.2-1.2c-0.6,0-1.2,0.5-1.2,1.2c0,0.6,0.5,1.2,1.2,1.2
				C156,60.6,156.6,60.1,156.6,59.5z M160,59.5c0-0.6-0.5-1.2-1.2-1.2c-0.6,0-1.2,0.5-1.2,1.2c0,0.6,0.5,1.2,1.2,1.2
				C159.5,60.6,160,60.1,160,59.5z M163.5,59.5c0-0.6-0.5-1.2-1.2-1.2c-0.6,0-1.2,0.5-1.2,1.2c0,0.6,0.5,1.2,1.2,1.2
				C163,60.6,163.5,60.1,163.5,59.5z M167,59.5c0-0.6-0.5-1.2-1.2-1.2c-0.6,0-1.2,0.5-1.2,1.2c0,0.6,0.5,1.2,1.2,1.2
				C166.5,60.6,167,60.1,167,59.5z M170.5,59.5c0-0.6-0.5-1.2-1.2-1.2c-0.6,0-1.2,0.5-1.2,1.2c0,0.6,0.5,1.2,1.2,1.2
				C170,60.6,170.5,60.1,170.5,59.5z M165,72.8c0-0.6-0.5-1.2-1.2-1.2c-0.6,0-1.2,0.5-1.2,1.2c0,0.6,0.5,1.2,1.2,1.2
				C164.4,74,165,73.5,165,72.8z M168.4,72.8c0-0.6-0.5-1.2-1.2-1.2s-1.2,0.5-1.2,1.2c0,0.6,0.5,1.2,1.2,1.2S168.4,73.5,168.4,72.8z
				 M171.9,72.8c0-0.6-0.5-1.2-1.2-1.2c-0.6,0-1.2,0.5-1.2,1.2c0,0.6,0.5,1.2,1.2,1.2C171.4,74,171.9,73.5,171.9,72.8z M175.4,72.8
				c0-0.6-0.5-1.2-1.2-1.2c-0.6,0-1.2,0.5-1.2,1.2c0,0.6,0.5,1.2,1.2,1.2C174.9,74,175.4,73.5,175.4,72.8z M178.9,72.8
				c0-0.6-0.5-1.2-1.2-1.2c-0.6,0-1.2,0.5-1.2,1.2c0,0.6,0.5,1.2,1.2,1.2C178.4,74,178.9,73.5,178.9,72.8z M182.4,72.8
				c0-0.6-0.5-1.2-1.2-1.2s-1.2,0.5-1.2,1.2c0,0.6,0.5,1.2,1.2,1.2S182.4,73.5,182.4,72.8z M165,82.4c0-0.6-0.5-1.2-1.2-1.2
				c-0.6,0-1.2,0.5-1.2,1.2c0,0.6,0.5,1.2,1.2,1.2C164.4,83.5,165,83,165,82.4z M168.4,82.4c0-0.6-0.5-1.2-1.2-1.2s-1.2,0.5-1.2,1.2
				c0,0.6,0.5,1.2,1.2,1.2S168.4,83,168.4,82.4z M171.9,82.4c0-0.6-0.5-1.2-1.2-1.2c-0.6,0-1.2,0.5-1.2,1.2c0,0.6,0.5,1.2,1.2,1.2
				C171.4,83.5,171.9,83,171.9,82.4z M175.4,82.4c0-0.6-0.5-1.2-1.2-1.2c-0.6,0-1.2,0.5-1.2,1.2c0,0.6,0.5,1.2,1.2,1.2
				C174.9,83.5,175.4,83,175.4,82.4z M178.9,82.4c0-0.6-0.5-1.2-1.2-1.2c-0.6,0-1.2,0.5-1.2,1.2c0,0.6,0.5,1.2,1.2,1.2
				C178.4,83.5,178.9,83,178.9,82.4z M182.4,82.4c0-0.6-0.5-1.2-1.2-1.2s-1.2,0.5-1.2,1.2c0,0.6,0.5,1.2,1.2,1.2
				S182.4,83,182.4,82.4z"/>
			<path class="st0" d="M132.2,89.2h-4.1c-0.6,0-1-0.4-1-1c0-0.6,0.4-1,1-1h4.1c0.6,0,1,0.4,1,1C133.2,88.8,132.8,89.2,132.2,89.2z
				 M133.2,92.9c0-0.6-0.4-1-1-1h-4.1c-0.6,0-1,0.4-1,1c0,0.6,0.4,1,1,1h4.1C132.8,93.9,133.2,93.4,133.2,92.9z M133.2,97.5
				c0-0.6-0.4-1-1-1h-4.1c-0.6,0-1,0.4-1,1c0,0.6,0.4,1,1,1h4.1C132.8,98.5,133.2,98,133.2,97.5z M133.2,102.1c0-0.6-0.4-1-1-1h-4.1
				c-0.6,0-1,0.4-1,1c0,0.6,0.4,1,1,1h4.1C132.8,103.1,133.2,102.7,133.2,102.1z M133.2,106.8c0-0.6-0.4-1-1-1h-4.1
				c-0.6,0-1,0.4-1,1c0,0.6,0.4,1,1,1h4.1C132.8,107.8,133.2,107.3,133.2,106.8z M133.2,111.4c0-0.6-0.4-1-1-1h-4.1
				c-0.6,0-1,0.4-1,1c0,0.6,0.4,1,1,1h4.1C132.8,112.4,133.2,112,133.2,111.4z M133.2,116c0-0.6-0.4-1-1-1h-4.1c-0.6,0-1,0.4-1,1
				c0,0.6,0.4,1,1,1h4.1C132.8,117,133.2,116.6,133.2,116z M133.2,120.7c0-0.6-0.4-1-1-1h-4.1c-0.6,0-1,0.4-1,1c0,0.6,0.4,1,1,1h4.1
				C132.8,121.7,133.2,121.2,133.2,120.7z M148.4,88.2c0-0.6-0.4-1-1-1h-10.7c-0.6,0-1,0.4-1,1c0,0.6,0.4,1,1,1h10.7
				C147.9,89.2,148.4,88.8,148.4,88.2z M148.4,92.9c0-0.6-0.4-1-1-1h-10.7c-0.6,0-1,0.4-1,1c0,0.6,0.4,1,1,1h10.7
				C147.9,93.9,148.4,93.4,148.4,92.9z M148.4,97.5c0-0.6-0.4-1-1-1h-10.7c-0.6,0-1,0.4-1,1c0,0.6,0.4,1,1,1h10.7
				C147.9,98.5,148.4,98,148.4,97.5z M148.4,102.1c0-0.6-0.4-1-1-1h-10.7c-0.6,0-1,0.4-1,1c0,0.6,0.4,1,1,1h10.7
				C147.9,103.1,148.4,102.7,148.4,102.1z M148.4,106.8c0-0.6-0.4-1-1-1h-10.7c-0.6,0-1,0.4-1,1c0,0.6,0.4,1,1,1h10.7
				C147.9,107.8,148.4,107.3,148.4,106.8z M161.1,111.4c0-0.6-0.4-1-1-1h-10.7c-0.6,0-1,0.4-1,1c0,0.6,0.4,1,1,1h10.7
				C160.7,112.4,161.1,112,161.1,111.4z M161.1,116c0-0.6-0.4-1-1-1h-10.7c-0.6,0-1,0.4-1,1c0,0.6,0.4,1,1,1h10.7
				C160.7,117,161.1,116.6,161.1,116z M161.1,120.7c0-0.6-0.4-1-1-1h-10.7c-0.6,0-1,0.4-1,1c0,0.6,0.4,1,1,1h10.7
				C160.7,121.7,161.1,121.2,161.1,120.7z M153.1,88.2c0-0.6-0.5-1.2-1.2-1.2c-0.6,0-1.2,0.5-1.2,1.2c0,0.6,0.5,1.2,1.2,1.2
				C152.6,89.4,153.1,88.9,153.1,88.2z M156.6,88.2c0-0.6-0.5-1.2-1.2-1.2c-0.6,0-1.2,0.5-1.2,1.2c0,0.6,0.5,1.2,1.2,1.2
				C156,89.4,156.6,88.9,156.6,88.2z M160,88.2c0-0.6-0.5-1.2-1.2-1.2c-0.6,0-1.2,0.5-1.2,1.2c0,0.6,0.5,1.2,1.2,1.2
				C159.5,89.4,160,88.9,160,88.2z M163.5,88.2c0-0.6-0.5-1.2-1.2-1.2c-0.6,0-1.2,0.5-1.2,1.2c0,0.6,0.5,1.2,1.2,1.2
				C163,89.4,163.5,88.9,163.5,88.2z M167,88.2c0-0.6-0.5-1.2-1.2-1.2c-0.6,0-1.2,0.5-1.2,1.2c0,0.6,0.5,1.2,1.2,1.2
				C166.5,89.4,167,88.9,167,88.2z M170.5,88.2c0-0.6-0.5-1.2-1.2-1.2c-0.6,0-1.2,0.5-1.2,1.2c0,0.6,0.5,1.2,1.2,1.2
				C170,89.4,170.5,88.9,170.5,88.2z M153.1,97.5c0-0.6-0.5-1.2-1.2-1.2c-0.6,0-1.2,0.5-1.2,1.2c0,0.6,0.5,1.2,1.2,1.2
				C152.6,98.6,153.1,98.1,153.1,97.5z M156.6,97.5c0-0.6-0.5-1.2-1.2-1.2c-0.6,0-1.2,0.5-1.2,1.2c0,0.6,0.5,1.2,1.2,1.2
				C156,98.6,156.6,98.1,156.6,97.5z M160,97.5c0-0.6-0.5-1.2-1.2-1.2c-0.6,0-1.2,0.5-1.2,1.2c0,0.6,0.5,1.2,1.2,1.2
				C159.5,98.6,160,98.1,160,97.5z M163.5,97.5c0-0.6-0.5-1.2-1.2-1.2c-0.6,0-1.2,0.5-1.2,1.2c0,0.6,0.5,1.2,1.2,1.2
				C163,98.6,163.5,98.1,163.5,97.5z M167,97.5c0-0.6-0.5-1.2-1.2-1.2c-0.6,0-1.2,0.5-1.2,1.2c0,0.6,0.5,1.2,1.2,1.2
				C166.5,98.6,167,98.1,167,97.5z M170.5,97.5c0-0.6-0.5-1.2-1.2-1.2c-0.6,0-1.2,0.5-1.2,1.2c0,0.6,0.5,1.2,1.2,1.2
				C170,98.6,170.5,98.1,170.5,97.5z M165,110.8c0-0.6-0.5-1.2-1.2-1.2c-0.6,0-1.2,0.5-1.2,1.2c0,0.6,0.5,1.2,1.2,1.2
				C164.4,112,165,111.5,165,110.8z M168.4,110.8c0-0.6-0.5-1.2-1.2-1.2s-1.2,0.5-1.2,1.2c0,0.6,0.5,1.2,1.2,1.2
				S168.4,111.5,168.4,110.8z M171.9,110.8c0-0.6-0.5-1.2-1.2-1.2c-0.6,0-1.2,0.5-1.2,1.2c0,0.6,0.5,1.2,1.2,1.2
				C171.4,112,171.9,111.5,171.9,110.8z M175.4,110.8c0-0.6-0.5-1.2-1.2-1.2c-0.6,0-1.2,0.5-1.2,1.2c0,0.6,0.5,1.2,1.2,1.2
				C174.9,112,175.4,111.5,175.4,110.8z M178.9,110.8c0-0.6-0.5-1.2-1.2-1.2c-0.6,0-1.2,0.5-1.2,1.2c0,0.6,0.5,1.2,1.2,1.2
				C178.4,112,178.9,111.5,178.9,110.8z M182.4,110.8c0-0.6-0.5-1.2-1.2-1.2s-1.2,0.5-1.2,1.2c0,0.6,0.5,1.2,1.2,1.2
				S182.4,111.5,182.4,110.8z M165,120.4c0-0.6-0.5-1.2-1.2-1.2c-0.6,0-1.2,0.5-1.2,1.2c0,0.6,0.5,1.2,1.2,1.2
				C164.4,121.5,165,121,165,120.4z M168.4,120.4c0-0.6-0.5-1.2-1.2-1.2s-1.2,0.5-1.2,1.2c0,0.6,0.5,1.2,1.2,1.2
				S168.4,121,168.4,120.4z M171.9,120.4c0-0.6-0.5-1.2-1.2-1.2c-0.6,0-1.2,0.5-1.2,1.2c0,0.6,0.5,1.2,1.2,1.2
				C171.4,121.5,171.9,121,171.9,120.4z M175.4,120.4c0-0.6-0.5-1.2-1.2-1.2c-0.6,0-1.2,0.5-1.2,1.2c0,0.6,0.5,1.2,1.2,1.2
				C174.9,121.5,175.4,121,175.4,120.4z M178.9,120.4c0-0.6-0.5-1.2-1.2-1.2c-0.6,0-1.2,0.5-1.2,1.2c0,0.6,0.5,1.2,1.2,1.2
				C178.4,121.5,178.9,121,178.9,120.4z M182.4,120.4c0-0.6-0.5-1.2-1.2-1.2s-1.2,0.5-1.2,1.2c0,0.6,0.5,1.2,1.2,1.2
				S182.4,121,182.4,120.4z"/>
		</g>
	</g>
	<g class="st27">
		<g>
			<path class="st17" d="M401.5,350.4h-4.1c-0.6,0-1-0.4-1-1c0-0.6,0.4-1,1-1h4.1c0.6,0,1,0.4,1,1
				C402.5,350,402.1,350.4,401.5,350.4z M402.5,354.1c0-0.6-0.4-1-1-1h-4.1c-0.6,0-1,0.4-1,1c0,0.6,0.4,1,1,1h4.1
				C402.1,355.1,402.5,354.6,402.5,354.1z M402.5,358.7c0-0.6-0.4-1-1-1h-4.1c-0.6,0-1,0.4-1,1c0,0.6,0.4,1,1,1h4.1
				C402.1,359.7,402.5,359.3,402.5,358.7z M402.5,363.4c0-0.6-0.4-1-1-1h-4.1c-0.6,0-1,0.4-1,1c0,0.6,0.4,1,1,1h4.1
				C402.1,364.4,402.5,363.9,402.5,363.4z M402.5,368c0-0.6-0.4-1-1-1h-4.1c-0.6,0-1,0.4-1,1c0,0.6,0.4,1,1,1h4.1
				C402.1,369,402.5,368.5,402.5,368z M402.5,372.6c0-0.6-0.4-1-1-1h-4.1c-0.6,0-1,0.4-1,1c0,0.6,0.4,1,1,1h4.1
				C402.1,373.6,402.5,373.2,402.5,372.6z M402.5,377.3c0-0.6-0.4-1-1-1h-4.1c-0.6,0-1,0.4-1,1c0,0.6,0.4,1,1,1h4.1
				C402.1,378.3,402.5,377.8,402.5,377.3z M402.5,381.9c0-0.6-0.4-1-1-1h-4.1c-0.6,0-1,0.4-1,1c0,0.6,0.4,1,1,1h4.1
				C402.1,382.9,402.5,382.5,402.5,381.9z M417.7,349.4c0-0.6-0.4-1-1-1H406c-0.6,0-1,0.4-1,1c0,0.6,0.4,1,1,1h10.7
				C417.3,350.4,417.7,350,417.7,349.4z M417.7,354.1c0-0.6-0.4-1-1-1H406c-0.6,0-1,0.4-1,1c0,0.6,0.4,1,1,1h10.7
				C417.3,355.1,417.7,354.6,417.7,354.1z M417.7,358.7c0-0.6-0.4-1-1-1H406c-0.6,0-1,0.4-1,1c0,0.6,0.4,1,1,1h10.7
				C417.3,359.7,417.7,359.3,417.7,358.7z M417.7,363.4c0-0.6-0.4-1-1-1H406c-0.6,0-1,0.4-1,1c0,0.6,0.4,1,1,1h10.7
				C417.3,364.4,417.7,363.9,417.7,363.4z M417.7,368c0-0.6-0.4-1-1-1H406c-0.6,0-1,0.4-1,1c0,0.6,0.4,1,1,1h10.7
				C417.3,369,417.7,368.5,417.7,368z M430.5,372.6c0-0.6-0.4-1-1-1h-10.7c-0.6,0-1,0.4-1,1c0,0.6,0.4,1,1,1h10.7
				C430,373.6,430.5,373.2,430.5,372.6z M430.5,377.3c0-0.6-0.4-1-1-1h-10.7c-0.6,0-1,0.4-1,1c0,0.6,0.4,1,1,1h10.7
				C430,378.3,430.5,377.8,430.5,377.3z M430.5,381.9c0-0.6-0.4-1-1-1h-10.7c-0.6,0-1,0.4-1,1c0,0.6,0.4,1,1,1h10.7
				C430,382.9,430.5,382.5,430.5,381.9z M422.4,349.4c0-0.6-0.5-1.2-1.2-1.2c-0.6,0-1.2,0.5-1.2,1.2s0.5,1.2,1.2,1.2
				C421.9,350.6,422.4,350.1,422.4,349.4z M425.9,349.4c0-0.6-0.5-1.2-1.2-1.2c-0.6,0-1.2,0.5-1.2,1.2s0.5,1.2,1.2,1.2
				C425.3,350.6,425.9,350.1,425.9,349.4z M429.3,349.4c0-0.6-0.5-1.2-1.2-1.2c-0.6,0-1.2,0.5-1.2,1.2s0.5,1.2,1.2,1.2
				C428.8,350.6,429.3,350.1,429.3,349.4z M432.8,349.4c0-0.6-0.5-1.2-1.2-1.2c-0.6,0-1.2,0.5-1.2,1.2s0.5,1.2,1.2,1.2
				C432.3,350.6,432.8,350.1,432.8,349.4z M436.3,349.4c0-0.6-0.5-1.2-1.2-1.2c-0.6,0-1.2,0.5-1.2,1.2s0.5,1.2,1.2,1.2
				C435.8,350.6,436.3,350.1,436.3,349.4z M439.8,349.4c0-0.6-0.5-1.2-1.2-1.2c-0.6,0-1.2,0.5-1.2,1.2s0.5,1.2,1.2,1.2
				C439.3,350.6,439.8,350.1,439.8,349.4z M422.4,358.7c0-0.6-0.5-1.2-1.2-1.2c-0.6,0-1.2,0.5-1.2,1.2c0,0.6,0.5,1.2,1.2,1.2
				C421.9,359.9,422.4,359.4,422.4,358.7z M425.9,358.7c0-0.6-0.5-1.2-1.2-1.2c-0.6,0-1.2,0.5-1.2,1.2c0,0.6,0.5,1.2,1.2,1.2
				C425.3,359.9,425.9,359.4,425.9,358.7z M429.3,358.7c0-0.6-0.5-1.2-1.2-1.2c-0.6,0-1.2,0.5-1.2,1.2c0,0.6,0.5,1.2,1.2,1.2
				C428.8,359.9,429.3,359.4,429.3,358.7z M432.8,358.7c0-0.6-0.5-1.2-1.2-1.2c-0.6,0-1.2,0.5-1.2,1.2c0,0.6,0.5,1.2,1.2,1.2
				C432.3,359.9,432.8,359.4,432.8,358.7z M436.3,358.7c0-0.6-0.5-1.2-1.2-1.2c-0.6,0-1.2,0.5-1.2,1.2c0,0.6,0.5,1.2,1.2,1.2
				C435.8,359.9,436.3,359.4,436.3,358.7z M439.8,358.7c0-0.6-0.5-1.2-1.2-1.2c-0.6,0-1.2,0.5-1.2,1.2c0,0.6,0.5,1.2,1.2,1.2
				C439.3,359.9,439.8,359.4,439.8,358.7z M434.3,372c0-0.6-0.5-1.2-1.2-1.2c-0.6,0-1.2,0.5-1.2,1.2c0,0.6,0.5,1.2,1.2,1.2
				C433.8,373.2,434.3,372.7,434.3,372z M437.7,372c0-0.6-0.5-1.2-1.2-1.2c-0.6,0-1.2,0.5-1.2,1.2c0,0.6,0.5,1.2,1.2,1.2
				C437.2,373.2,437.7,372.7,437.7,372z M441.2,372c0-0.6-0.5-1.2-1.2-1.2c-0.6,0-1.2,0.5-1.2,1.2c0,0.6,0.5,1.2,1.2,1.2
				C440.7,373.2,441.2,372.7,441.2,372z M444.7,372c0-0.6-0.5-1.2-1.2-1.2c-0.6,0-1.2,0.5-1.2,1.2c0,0.6,0.5,1.2,1.2,1.2
				C444.2,373.2,444.7,372.7,444.7,372z M448.2,372c0-0.6-0.5-1.2-1.2-1.2s-1.2,0.5-1.2,1.2c0,0.6,0.5,1.2,1.2,1.2
				S448.2,372.7,448.2,372z M451.7,372c0-0.6-0.5-1.2-1.2-1.2c-0.6,0-1.2,0.5-1.2,1.2c0,0.6,0.5,1.2,1.2,1.2
				C451.1,373.2,451.7,372.7,451.7,372z M434.3,381.6c0-0.6-0.5-1.2-1.2-1.2c-0.6,0-1.2,0.5-1.2,1.2c0,0.6,0.5,1.2,1.2,1.2
				C433.8,382.8,434.3,382.3,434.3,381.6z M437.7,381.6c0-0.6-0.5-1.2-1.2-1.2c-0.6,0-1.2,0.5-1.2,1.2c0,0.6,0.5,1.2,1.2,1.2
				C437.2,382.8,437.7,382.3,437.7,381.6z M441.2,381.6c0-0.6-0.5-1.2-1.2-1.2c-0.6,0-1.2,0.5-1.2,1.2c0,0.6,0.5,1.2,1.2,1.2
				C440.7,382.8,441.2,382.3,441.2,381.6z M444.7,381.6c0-0.6-0.5-1.2-1.2-1.2c-0.6,0-1.2,0.5-1.2,1.2c0,0.6,0.5,1.2,1.2,1.2
				C444.2,382.8,444.7,382.3,444.7,381.6z M448.2,381.6c0-0.6-0.5-1.2-1.2-1.2s-1.2,0.5-1.2,1.2c0,0.6,0.5,1.2,1.2,1.2
				S448.2,382.3,448.2,381.6z M451.7,381.6c0-0.6-0.5-1.2-1.2-1.2c-0.6,0-1.2,0.5-1.2,1.2c0,0.6,0.5,1.2,1.2,1.2
				C451.1,382.8,451.7,382.3,451.7,381.6z"/>
			<path class="st17" d="M401.5,387.5h-4.1c-0.6,0-1-0.4-1-1c0-0.6,0.4-1,1-1h4.1c0.6,0,1,0.4,1,1
				C402.5,387.1,402.1,387.5,401.5,387.5z M402.5,391.2c0-0.6-0.4-1-1-1h-4.1c-0.6,0-1,0.4-1,1c0,0.6,0.4,1,1,1h4.1
				C402.1,392.2,402.5,391.7,402.5,391.2z M402.5,395.8c0-0.6-0.4-1-1-1h-4.1c-0.6,0-1,0.4-1,1c0,0.6,0.4,1,1,1h4.1
				C402.1,396.8,402.5,396.4,402.5,395.8z M402.5,400.5c0-0.6-0.4-1-1-1h-4.1c-0.6,0-1,0.4-1,1c0,0.6,0.4,1,1,1h4.1
				C402.1,401.5,402.5,401,402.5,400.5z M402.5,405.1c0-0.6-0.4-1-1-1h-4.1c-0.6,0-1,0.4-1,1s0.4,1,1,1h4.1
				C402.1,406.1,402.5,405.6,402.5,405.1z M402.5,409.7c0-0.6-0.4-1-1-1h-4.1c-0.6,0-1,0.4-1,1c0,0.6,0.4,1,1,1h4.1
				C402.1,410.7,402.5,410.3,402.5,409.7z M402.5,414.4c0-0.6-0.4-1-1-1h-4.1c-0.6,0-1,0.4-1,1s0.4,1,1,1h4.1
				C402.1,415.4,402.5,414.9,402.5,414.4z M402.5,419c0-0.6-0.4-1-1-1h-4.1c-0.6,0-1,0.4-1,1c0,0.6,0.4,1,1,1h4.1
				C402.1,420,402.5,419.6,402.5,419z M417.7,386.5c0-0.6-0.4-1-1-1H406c-0.6,0-1,0.4-1,1c0,0.6,0.4,1,1,1h10.7
				C417.3,387.5,417.7,387.1,417.7,386.5z M417.7,391.2c0-0.6-0.4-1-1-1H406c-0.6,0-1,0.4-1,1c0,0.6,0.4,1,1,1h10.7
				C417.3,392.2,417.7,391.7,417.7,391.2z M417.7,395.8c0-0.6-0.4-1-1-1H406c-0.6,0-1,0.4-1,1c0,0.6,0.4,1,1,1h10.7
				C417.3,396.8,417.7,396.4,417.7,395.8z M417.7,400.5c0-0.6-0.4-1-1-1H406c-0.6,0-1,0.4-1,1c0,0.6,0.4,1,1,1h10.7
				C417.3,401.5,417.7,401,417.7,400.5z M417.7,405.1c0-0.6-0.4-1-1-1H406c-0.6,0-1,0.4-1,1s0.4,1,1,1h10.7
				C417.3,406.1,417.7,405.6,417.7,405.1z M430.5,409.7c0-0.6-0.4-1-1-1h-10.7c-0.6,0-1,0.4-1,1c0,0.6,0.4,1,1,1h10.7
				C430,410.7,430.5,410.3,430.5,409.7z M430.5,414.4c0-0.6-0.4-1-1-1h-10.7c-0.6,0-1,0.4-1,1s0.4,1,1,1h10.7
				C430,415.4,430.5,414.9,430.5,414.4z M430.5,419c0-0.6-0.4-1-1-1h-10.7c-0.6,0-1,0.4-1,1c0,0.6,0.4,1,1,1h10.7
				C430,420,430.5,419.6,430.5,419z M422.4,386.5c0-0.6-0.5-1.2-1.2-1.2c-0.6,0-1.2,0.5-1.2,1.2c0,0.6,0.5,1.2,1.2,1.2
				C421.9,387.7,422.4,387.2,422.4,386.5z M425.9,386.5c0-0.6-0.5-1.2-1.2-1.2c-0.6,0-1.2,0.5-1.2,1.2c0,0.6,0.5,1.2,1.2,1.2
				C425.3,387.7,425.9,387.2,425.9,386.5z M429.3,386.5c0-0.6-0.5-1.2-1.2-1.2c-0.6,0-1.2,0.5-1.2,1.2c0,0.6,0.5,1.2,1.2,1.2
				C428.8,387.7,429.3,387.2,429.3,386.5z M432.8,386.5c0-0.6-0.5-1.2-1.2-1.2c-0.6,0-1.2,0.5-1.2,1.2c0,0.6,0.5,1.2,1.2,1.2
				C432.3,387.7,432.8,387.2,432.8,386.5z M436.3,386.5c0-0.6-0.5-1.2-1.2-1.2c-0.6,0-1.2,0.5-1.2,1.2c0,0.6,0.5,1.2,1.2,1.2
				C435.8,387.7,436.3,387.2,436.3,386.5z M439.8,386.5c0-0.6-0.5-1.2-1.2-1.2c-0.6,0-1.2,0.5-1.2,1.2c0,0.6,0.5,1.2,1.2,1.2
				C439.3,387.7,439.8,387.2,439.8,386.5z M422.4,395.8c0-0.6-0.5-1.2-1.2-1.2c-0.6,0-1.2,0.5-1.2,1.2c0,0.6,0.5,1.2,1.2,1.2
				C421.9,397,422.4,396.5,422.4,395.8z M425.9,395.8c0-0.6-0.5-1.2-1.2-1.2c-0.6,0-1.2,0.5-1.2,1.2c0,0.6,0.5,1.2,1.2,1.2
				C425.3,397,425.9,396.5,425.9,395.8z M429.3,395.8c0-0.6-0.5-1.2-1.2-1.2c-0.6,0-1.2,0.5-1.2,1.2c0,0.6,0.5,1.2,1.2,1.2
				C428.8,397,429.3,396.5,429.3,395.8z M432.8,395.8c0-0.6-0.5-1.2-1.2-1.2c-0.6,0-1.2,0.5-1.2,1.2c0,0.6,0.5,1.2,1.2,1.2
				C432.3,397,432.8,396.5,432.8,395.8z M436.3,395.8c0-0.6-0.5-1.2-1.2-1.2c-0.6,0-1.2,0.5-1.2,1.2c0,0.6,0.5,1.2,1.2,1.2
				C435.8,397,436.3,396.5,436.3,395.8z M439.8,395.8c0-0.6-0.5-1.2-1.2-1.2c-0.6,0-1.2,0.5-1.2,1.2c0,0.6,0.5,1.2,1.2,1.2
				C439.3,397,439.8,396.5,439.8,395.8z M434.3,409.2c0-0.6-0.5-1.2-1.2-1.2c-0.6,0-1.2,0.5-1.2,1.2c0,0.6,0.5,1.2,1.2,1.2
				C433.8,410.3,434.3,409.8,434.3,409.2z M437.7,409.2c0-0.6-0.5-1.2-1.2-1.2c-0.6,0-1.2,0.5-1.2,1.2c0,0.6,0.5,1.2,1.2,1.2
				C437.2,410.3,437.7,409.8,437.7,409.2z M441.2,409.2c0-0.6-0.5-1.2-1.2-1.2c-0.6,0-1.2,0.5-1.2,1.2c0,0.6,0.5,1.2,1.2,1.2
				C440.7,410.3,441.2,409.8,441.2,409.2z M444.7,409.2c0-0.6-0.5-1.2-1.2-1.2c-0.6,0-1.2,0.5-1.2,1.2c0,0.6,0.5,1.2,1.2,1.2
				C444.2,410.3,444.7,409.8,444.7,409.2z M448.2,409.2c0-0.6-0.5-1.2-1.2-1.2s-1.2,0.5-1.2,1.2c0,0.6,0.5,1.2,1.2,1.2
				S448.2,409.8,448.2,409.2z M451.7,409.2c0-0.6-0.5-1.2-1.2-1.2c-0.6,0-1.2,0.5-1.2,1.2c0,0.6,0.5,1.2,1.2,1.2
				C451.1,410.3,451.7,409.8,451.7,409.2z M434.3,418.7c0-0.6-0.5-1.2-1.2-1.2c-0.6,0-1.2,0.5-1.2,1.2s0.5,1.2,1.2,1.2
				C433.8,419.9,434.3,419.4,434.3,418.7z M437.7,418.7c0-0.6-0.5-1.2-1.2-1.2c-0.6,0-1.2,0.5-1.2,1.2s0.5,1.2,1.2,1.2
				C437.2,419.9,437.7,419.4,437.7,418.7z M441.2,418.7c0-0.6-0.5-1.2-1.2-1.2c-0.6,0-1.2,0.5-1.2,1.2s0.5,1.2,1.2,1.2
				C440.7,419.9,441.2,419.4,441.2,418.7z M444.7,418.7c0-0.6-0.5-1.2-1.2-1.2c-0.6,0-1.2,0.5-1.2,1.2s0.5,1.2,1.2,1.2
				C444.2,419.9,444.7,419.4,444.7,418.7z M448.2,418.7c0-0.6-0.5-1.2-1.2-1.2s-1.2,0.5-1.2,1.2s0.5,1.2,1.2,1.2
				S448.2,419.4,448.2,418.7z M451.7,418.7c0-0.6-0.5-1.2-1.2-1.2c-0.6,0-1.2,0.5-1.2,1.2s0.5,1.2,1.2,1.2
				C451.1,419.9,451.7,419.4,451.7,418.7z"/>
			<path class="st17" d="M401.5,425.5h-4.1c-0.6,0-1-0.4-1-1c0-0.6,0.4-1,1-1h4.1c0.6,0,1,0.4,1,1
				C402.5,425.1,402.1,425.5,401.5,425.5z M402.5,429.2c0-0.6-0.4-1-1-1h-4.1c-0.6,0-1,0.4-1,1c0,0.6,0.4,1,1,1h4.1
				C402.1,430.2,402.5,429.7,402.5,429.2z M402.5,433.8c0-0.6-0.4-1-1-1h-4.1c-0.6,0-1,0.4-1,1c0,0.6,0.4,1,1,1h4.1
				C402.1,434.8,402.5,434.4,402.5,433.8z M402.5,438.5c0-0.6-0.4-1-1-1h-4.1c-0.6,0-1,0.4-1,1c0,0.6,0.4,1,1,1h4.1
				C402.1,439.5,402.5,439,402.5,438.5z M402.5,443.1c0-0.6-0.4-1-1-1h-4.1c-0.6,0-1,0.4-1,1c0,0.6,0.4,1,1,1h4.1
				C402.1,444.1,402.5,443.6,402.5,443.1z M402.5,447.7c0-0.6-0.4-1-1-1h-4.1c-0.6,0-1,0.4-1,1c0,0.6,0.4,1,1,1h4.1
				C402.1,448.7,402.5,448.3,402.5,447.7z M402.5,452.4c0-0.6-0.4-1-1-1h-4.1c-0.6,0-1,0.4-1,1c0,0.6,0.4,1,1,1h4.1
				C402.1,453.4,402.5,452.9,402.5,452.4z M402.5,457c0-0.6-0.4-1-1-1h-4.1c-0.6,0-1,0.4-1,1c0,0.6,0.4,1,1,1h4.1
				C402.1,458,402.5,457.6,402.5,457z M417.7,424.5c0-0.6-0.4-1-1-1H406c-0.6,0-1,0.4-1,1c0,0.6,0.4,1,1,1h10.7
				C417.3,425.5,417.7,425.1,417.7,424.5z M417.7,429.2c0-0.6-0.4-1-1-1H406c-0.6,0-1,0.4-1,1c0,0.6,0.4,1,1,1h10.7
				C417.3,430.2,417.7,429.7,417.7,429.2z M417.7,433.8c0-0.6-0.4-1-1-1H406c-0.6,0-1,0.4-1,1c0,0.6,0.4,1,1,1h10.7
				C417.3,434.8,417.7,434.4,417.7,433.8z M417.7,438.5c0-0.6-0.4-1-1-1H406c-0.6,0-1,0.4-1,1c0,0.6,0.4,1,1,1h10.7
				C417.3,439.5,417.7,439,417.7,438.5z M417.7,443.1c0-0.6-0.4-1-1-1H406c-0.6,0-1,0.4-1,1c0,0.6,0.4,1,1,1h10.7
				C417.3,444.1,417.7,443.6,417.7,443.1z M430.5,447.7c0-0.6-0.4-1-1-1h-10.7c-0.6,0-1,0.4-1,1c0,0.6,0.4,1,1,1h10.7
				C430,448.7,430.5,448.3,430.5,447.7z M430.5,452.4c0-0.6-0.4-1-1-1h-10.7c-0.6,0-1,0.4-1,1c0,0.6,0.4,1,1,1h10.7
				C430,453.4,430.5,452.9,430.5,452.4z M430.5,457c0-0.6-0.4-1-1-1h-10.7c-0.6,0-1,0.4-1,1c0,0.6,0.4,1,1,1h10.7
				C430,458,430.5,457.6,430.5,457z M422.4,424.5c0-0.6-0.5-1.2-1.2-1.2c-0.6,0-1.2,0.5-1.2,1.2c0,0.6,0.5,1.2,1.2,1.2
				C421.9,425.7,422.4,425.2,422.4,424.5z M425.9,424.5c0-0.6-0.5-1.2-1.2-1.2c-0.6,0-1.2,0.5-1.2,1.2c0,0.6,0.5,1.2,1.2,1.2
				C425.3,425.7,425.9,425.2,425.9,424.5z M429.3,424.5c0-0.6-0.5-1.2-1.2-1.2c-0.6,0-1.2,0.5-1.2,1.2c0,0.6,0.5,1.2,1.2,1.2
				C428.8,425.7,429.3,425.2,429.3,424.5z M432.8,424.5c0-0.6-0.5-1.2-1.2-1.2c-0.6,0-1.2,0.5-1.2,1.2c0,0.6,0.5,1.2,1.2,1.2
				C432.3,425.7,432.8,425.2,432.8,424.5z M436.3,424.5c0-0.6-0.5-1.2-1.2-1.2c-0.6,0-1.2,0.5-1.2,1.2c0,0.6,0.5,1.2,1.2,1.2
				C435.8,425.7,436.3,425.2,436.3,424.5z M439.8,424.5c0-0.6-0.5-1.2-1.2-1.2c-0.6,0-1.2,0.5-1.2,1.2c0,0.6,0.5,1.2,1.2,1.2
				C439.3,425.7,439.8,425.2,439.8,424.5z M422.4,433.8c0-0.6-0.5-1.2-1.2-1.2c-0.6,0-1.2,0.5-1.2,1.2c0,0.6,0.5,1.2,1.2,1.2
				C421.9,435,422.4,434.5,422.4,433.8z M425.9,433.8c0-0.6-0.5-1.2-1.2-1.2c-0.6,0-1.2,0.5-1.2,1.2c0,0.6,0.5,1.2,1.2,1.2
				C425.3,435,425.9,434.5,425.9,433.8z M429.3,433.8c0-0.6-0.5-1.2-1.2-1.2c-0.6,0-1.2,0.5-1.2,1.2c0,0.6,0.5,1.2,1.2,1.2
				C428.8,435,429.3,434.5,429.3,433.8z M432.8,433.8c0-0.6-0.5-1.2-1.2-1.2c-0.6,0-1.2,0.5-1.2,1.2c0,0.6,0.5,1.2,1.2,1.2
				C432.3,435,432.8,434.5,432.8,433.8z M436.3,433.8c0-0.6-0.5-1.2-1.2-1.2c-0.6,0-1.2,0.5-1.2,1.2c0,0.6,0.5,1.2,1.2,1.2
				C435.8,435,436.3,434.5,436.3,433.8z M439.8,433.8c0-0.6-0.5-1.2-1.2-1.2c-0.6,0-1.2,0.5-1.2,1.2c0,0.6,0.5,1.2,1.2,1.2
				C439.3,435,439.8,434.5,439.8,433.8z M434.3,447.2c0-0.6-0.5-1.2-1.2-1.2c-0.6,0-1.2,0.5-1.2,1.2c0,0.6,0.5,1.2,1.2,1.2
				C433.8,448.3,434.3,447.8,434.3,447.2z M437.7,447.2c0-0.6-0.5-1.2-1.2-1.2c-0.6,0-1.2,0.5-1.2,1.2c0,0.6,0.5,1.2,1.2,1.2
				C437.2,448.3,437.7,447.8,437.7,447.2z M441.2,447.2c0-0.6-0.5-1.2-1.2-1.2c-0.6,0-1.2,0.5-1.2,1.2c0,0.6,0.5,1.2,1.2,1.2
				C440.7,448.3,441.2,447.8,441.2,447.2z M444.7,447.2c0-0.6-0.5-1.2-1.2-1.2c-0.6,0-1.2,0.5-1.2,1.2c0,0.6,0.5,1.2,1.2,1.2
				C444.2,448.3,444.7,447.8,444.7,447.2z M448.2,447.2c0-0.6-0.5-1.2-1.2-1.2s-1.2,0.5-1.2,1.2c0,0.6,0.5,1.2,1.2,1.2
				S448.2,447.8,448.2,447.2z M451.7,447.2c0-0.6-0.5-1.2-1.2-1.2c-0.6,0-1.2,0.5-1.2,1.2c0,0.6,0.5,1.2,1.2,1.2
				C451.1,448.3,451.7,447.8,451.7,447.2z M434.3,456.7c0-0.6-0.5-1.2-1.2-1.2c-0.6,0-1.2,0.5-1.2,1.2c0,0.6,0.5,1.2,1.2,1.2
				C433.8,457.9,434.3,457.4,434.3,456.7z M437.7,456.7c0-0.6-0.5-1.2-1.2-1.2c-0.6,0-1.2,0.5-1.2,1.2c0,0.6,0.5,1.2,1.2,1.2
				C437.2,457.9,437.7,457.4,437.7,456.7z M441.2,456.7c0-0.6-0.5-1.2-1.2-1.2c-0.6,0-1.2,0.5-1.2,1.2c0,0.6,0.5,1.2,1.2,1.2
				C440.7,457.9,441.2,457.4,441.2,456.7z M444.7,456.7c0-0.6-0.5-1.2-1.2-1.2c-0.6,0-1.2,0.5-1.2,1.2c0,0.6,0.5,1.2,1.2,1.2
				C444.2,457.9,444.7,457.4,444.7,456.7z M448.2,456.7c0-0.6-0.5-1.2-1.2-1.2s-1.2,0.5-1.2,1.2c0,0.6,0.5,1.2,1.2,1.2
				S448.2,457.4,448.2,456.7z M451.7,456.7c0-0.6-0.5-1.2-1.2-1.2c-0.6,0-1.2,0.5-1.2,1.2c0,0.6,0.5,1.2,1.2,1.2
				C451.1,457.9,451.7,457.4,451.7,456.7z"/>
			<path class="st17" d="M463.8,350.4h-4.1c-0.6,0-1-0.4-1-1c0-0.6,0.4-1,1-1h4.1c0.6,0,1,0.4,1,1
				C464.8,350,464.4,350.4,463.8,350.4z M464.8,354.1c0-0.6-0.4-1-1-1h-4.1c-0.6,0-1,0.4-1,1c0,0.6,0.4,1,1,1h4.1
				C464.4,355.1,464.8,354.6,464.8,354.1z M464.8,358.7c0-0.6-0.4-1-1-1h-4.1c-0.6,0-1,0.4-1,1c0,0.6,0.4,1,1,1h4.1
				C464.4,359.7,464.8,359.3,464.8,358.7z M464.8,363.4c0-0.6-0.4-1-1-1h-4.1c-0.6,0-1,0.4-1,1c0,0.6,0.4,1,1,1h4.1
				C464.4,364.4,464.8,363.9,464.8,363.4z M464.8,368c0-0.6-0.4-1-1-1h-4.1c-0.6,0-1,0.4-1,1c0,0.6,0.4,1,1,1h4.1
				C464.4,369,464.8,368.5,464.8,368z M464.8,372.6c0-0.6-0.4-1-1-1h-4.1c-0.6,0-1,0.4-1,1c0,0.6,0.4,1,1,1h4.1
				C464.4,373.6,464.8,373.2,464.8,372.6z M464.8,377.3c0-0.6-0.4-1-1-1h-4.1c-0.6,0-1,0.4-1,1c0,0.6,0.4,1,1,1h4.1
				C464.4,378.3,464.8,377.8,464.8,377.3z M464.8,381.9c0-0.6-0.4-1-1-1h-4.1c-0.6,0-1,0.4-1,1c0,0.6,0.4,1,1,1h4.1
				C464.4,382.9,464.8,382.5,464.8,381.9z M480,349.4c0-0.6-0.4-1-1-1h-10.7c-0.6,0-1,0.4-1,1c0,0.6,0.4,1,1,1H479
				C479.5,350.4,480,350,480,349.4z M480,354.1c0-0.6-0.4-1-1-1h-10.7c-0.6,0-1,0.4-1,1c0,0.6,0.4,1,1,1H479
				C479.5,355.1,480,354.6,480,354.1z M480,358.7c0-0.6-0.4-1-1-1h-10.7c-0.6,0-1,0.4-1,1c0,0.6,0.4,1,1,1H479
				C479.5,359.7,480,359.3,480,358.7z M480,363.4c0-0.6-0.4-1-1-1h-10.7c-0.6,0-1,0.4-1,1c0,0.6,0.4,1,1,1H479
				C479.5,364.4,480,363.9,480,363.4z M480,368c0-0.6-0.4-1-1-1h-10.7c-0.6,0-1,0.4-1,1c0,0.6,0.4,1,1,1H479
				C479.5,369,480,368.5,480,368z M492.7,372.6c0-0.6-0.4-1-1-1h-10.7c-0.6,0-1,0.4-1,1c0,0.6,0.4,1,1,1h10.7
				C492.3,373.6,492.7,373.2,492.7,372.6z M492.7,377.3c0-0.6-0.4-1-1-1h-10.7c-0.6,0-1,0.4-1,1c0,0.6,0.4,1,1,1h10.7
				C492.3,378.3,492.7,377.8,492.7,377.3z M492.7,381.9c0-0.6-0.4-1-1-1h-10.7c-0.6,0-1,0.4-1,1c0,0.6,0.4,1,1,1h10.7
				C492.3,382.9,492.7,382.5,492.7,381.9z M484.7,349.4c0-0.6-0.5-1.2-1.2-1.2c-0.6,0-1.2,0.5-1.2,1.2s0.5,1.2,1.2,1.2
				C484.2,350.6,484.7,350.1,484.7,349.4z M488.2,349.4c0-0.6-0.5-1.2-1.2-1.2c-0.6,0-1.2,0.5-1.2,1.2s0.5,1.2,1.2,1.2
				C487.6,350.6,488.2,350.1,488.2,349.4z M491.6,349.4c0-0.6-0.5-1.2-1.2-1.2c-0.6,0-1.2,0.5-1.2,1.2s0.5,1.2,1.2,1.2
				C491.1,350.6,491.6,350.1,491.6,349.4z M495.1,349.4c0-0.6-0.5-1.2-1.2-1.2c-0.6,0-1.2,0.5-1.2,1.2s0.5,1.2,1.2,1.2
				C494.6,350.6,495.1,350.1,495.1,349.4z M498.6,349.4c0-0.6-0.5-1.2-1.2-1.2c-0.6,0-1.2,0.5-1.2,1.2s0.5,1.2,1.2,1.2
				C498.1,350.6,498.6,350.1,498.6,349.4z M502.1,349.4c0-0.6-0.5-1.2-1.2-1.2c-0.6,0-1.2,0.5-1.2,1.2s0.5,1.2,1.2,1.2
				C501.5,350.6,502.1,350.1,502.1,349.4z M484.7,358.7c0-0.6-0.5-1.2-1.2-1.2c-0.6,0-1.2,0.5-1.2,1.2c0,0.6,0.5,1.2,1.2,1.2
				C484.2,359.9,484.7,359.4,484.7,358.7z M488.2,358.7c0-0.6-0.5-1.2-1.2-1.2c-0.6,0-1.2,0.5-1.2,1.2c0,0.6,0.5,1.2,1.2,1.2
				C487.6,359.9,488.2,359.4,488.2,358.7z M491.6,358.7c0-0.6-0.5-1.2-1.2-1.2c-0.6,0-1.2,0.5-1.2,1.2c0,0.6,0.5,1.2,1.2,1.2
				C491.1,359.9,491.6,359.4,491.6,358.7z M495.1,358.7c0-0.6-0.5-1.2-1.2-1.2c-0.6,0-1.2,0.5-1.2,1.2c0,0.6,0.5,1.2,1.2,1.2
				C494.6,359.9,495.1,359.4,495.1,358.7z M498.6,358.7c0-0.6-0.5-1.2-1.2-1.2c-0.6,0-1.2,0.5-1.2,1.2c0,0.6,0.5,1.2,1.2,1.2
				C498.1,359.9,498.6,359.4,498.6,358.7z M502.1,358.7c0-0.6-0.5-1.2-1.2-1.2c-0.6,0-1.2,0.5-1.2,1.2c0,0.6,0.5,1.2,1.2,1.2
				C501.5,359.9,502.1,359.4,502.1,358.7z M496.6,372c0-0.6-0.5-1.2-1.2-1.2c-0.6,0-1.2,0.5-1.2,1.2c0,0.6,0.5,1.2,1.2,1.2
				C496,373.2,496.6,372.7,496.6,372z M500,372c0-0.6-0.5-1.2-1.2-1.2c-0.6,0-1.2,0.5-1.2,1.2c0,0.6,0.5,1.2,1.2,1.2
				C499.5,373.2,500,372.7,500,372z M503.5,372c0-0.6-0.5-1.2-1.2-1.2c-0.6,0-1.2,0.5-1.2,1.2c0,0.6,0.5,1.2,1.2,1.2
				C503,373.2,503.5,372.7,503.5,372z M507,372c0-0.6-0.5-1.2-1.2-1.2c-0.6,0-1.2,0.5-1.2,1.2c0,0.6,0.5,1.2,1.2,1.2
				C506.5,373.2,507,372.7,507,372z M510.5,372c0-0.6-0.5-1.2-1.2-1.2c-0.6,0-1.2,0.5-1.2,1.2c0,0.6,0.5,1.2,1.2,1.2
				C510,373.2,510.5,372.7,510.5,372z M513.9,372c0-0.6-0.5-1.2-1.2-1.2s-1.2,0.5-1.2,1.2c0,0.6,0.5,1.2,1.2,1.2
				S513.9,372.7,513.9,372z M496.6,381.6c0-0.6-0.5-1.2-1.2-1.2c-0.6,0-1.2,0.5-1.2,1.2c0,0.6,0.5,1.2,1.2,1.2
				C496,382.8,496.6,382.3,496.6,381.6z M500,381.6c0-0.6-0.5-1.2-1.2-1.2c-0.6,0-1.2,0.5-1.2,1.2c0,0.6,0.5,1.2,1.2,1.2
				C499.5,382.8,500,382.3,500,381.6z M503.5,381.6c0-0.6-0.5-1.2-1.2-1.2c-0.6,0-1.2,0.5-1.2,1.2c0,0.6,0.5,1.2,1.2,1.2
				C503,382.8,503.5,382.3,503.5,381.6z M507,381.6c0-0.6-0.5-1.2-1.2-1.2c-0.6,0-1.2,0.5-1.2,1.2c0,0.6,0.5,1.2,1.2,1.2
				C506.5,382.8,507,382.3,507,381.6z M510.5,381.6c0-0.6-0.5-1.2-1.2-1.2c-0.6,0-1.2,0.5-1.2,1.2c0,0.6,0.5,1.2,1.2,1.2
				C510,382.8,510.5,382.3,510.5,381.6z M513.9,381.6c0-0.6-0.5-1.2-1.2-1.2s-1.2,0.5-1.2,1.2c0,0.6,0.5,1.2,1.2,1.2
				S513.9,382.3,513.9,381.6z"/>
			<path class="st17" d="M463.8,388.4h-4.1c-0.6,0-1-0.4-1-1c0-0.6,0.4-1,1-1h4.1c0.6,0,1,0.4,1,1
				C464.8,388,464.4,388.4,463.8,388.4z M464.8,392.1c0-0.6-0.4-1-1-1h-4.1c-0.6,0-1,0.4-1,1c0,0.6,0.4,1,1,1h4.1
				C464.4,393.1,464.8,392.6,464.8,392.1z M464.8,396.7c0-0.6-0.4-1-1-1h-4.1c-0.6,0-1,0.4-1,1c0,0.6,0.4,1,1,1h4.1
				C464.4,397.7,464.8,397.3,464.8,396.7z M464.8,401.4c0-0.6-0.4-1-1-1h-4.1c-0.6,0-1,0.4-1,1c0,0.6,0.4,1,1,1h4.1
				C464.4,402.4,464.8,401.9,464.8,401.4z M464.8,406c0-0.6-0.4-1-1-1h-4.1c-0.6,0-1,0.4-1,1c0,0.6,0.4,1,1,1h4.1
				C464.4,407,464.8,406.5,464.8,406z M464.8,410.6c0-0.6-0.4-1-1-1h-4.1c-0.6,0-1,0.4-1,1c0,0.6,0.4,1,1,1h4.1
				C464.4,411.6,464.8,411.2,464.8,410.6z M464.8,415.3c0-0.6-0.4-1-1-1h-4.1c-0.6,0-1,0.4-1,1c0,0.6,0.4,1,1,1h4.1
				C464.4,416.3,464.8,415.8,464.8,415.3z M464.8,419.9c0-0.6-0.4-1-1-1h-4.1c-0.6,0-1,0.4-1,1c0,0.6,0.4,1,1,1h4.1
				C464.4,420.9,464.8,420.5,464.8,419.9z M480,387.4c0-0.6-0.4-1-1-1h-10.7c-0.6,0-1,0.4-1,1c0,0.6,0.4,1,1,1H479
				C479.5,388.4,480,388,480,387.4z M480,392.1c0-0.6-0.4-1-1-1h-10.7c-0.6,0-1,0.4-1,1c0,0.6,0.4,1,1,1H479
				C479.5,393.1,480,392.6,480,392.1z M480,396.7c0-0.6-0.4-1-1-1h-10.7c-0.6,0-1,0.4-1,1c0,0.6,0.4,1,1,1H479
				C479.5,397.7,480,397.3,480,396.7z M480,401.4c0-0.6-0.4-1-1-1h-10.7c-0.6,0-1,0.4-1,1c0,0.6,0.4,1,1,1H479
				C479.5,402.4,480,401.9,480,401.4z M480,406c0-0.6-0.4-1-1-1h-10.7c-0.6,0-1,0.4-1,1c0,0.6,0.4,1,1,1H479
				C479.5,407,480,406.5,480,406z M492.7,410.6c0-0.6-0.4-1-1-1h-10.7c-0.6,0-1,0.4-1,1c0,0.6,0.4,1,1,1h10.7
				C492.3,411.6,492.7,411.2,492.7,410.6z M492.7,415.3c0-0.6-0.4-1-1-1h-10.7c-0.6,0-1,0.4-1,1c0,0.6,0.4,1,1,1h10.7
				C492.3,416.3,492.7,415.8,492.7,415.3z M492.7,419.9c0-0.6-0.4-1-1-1h-10.7c-0.6,0-1,0.4-1,1c0,0.6,0.4,1,1,1h10.7
				C492.3,420.9,492.7,420.5,492.7,419.9z M484.7,387.4c0-0.6-0.5-1.2-1.2-1.2c-0.6,0-1.2,0.5-1.2,1.2c0,0.6,0.5,1.2,1.2,1.2
				C484.2,388.6,484.7,388.1,484.7,387.4z M488.2,387.4c0-0.6-0.5-1.2-1.2-1.2c-0.6,0-1.2,0.5-1.2,1.2c0,0.6,0.5,1.2,1.2,1.2
				C487.6,388.6,488.2,388.1,488.2,387.4z M491.6,387.4c0-0.6-0.5-1.2-1.2-1.2c-0.6,0-1.2,0.5-1.2,1.2c0,0.6,0.5,1.2,1.2,1.2
				C491.1,388.6,491.6,388.1,491.6,387.4z M495.1,387.4c0-0.6-0.5-1.2-1.2-1.2c-0.6,0-1.2,0.5-1.2,1.2c0,0.6,0.5,1.2,1.2,1.2
				C494.6,388.6,495.1,388.1,495.1,387.4z M498.6,387.4c0-0.6-0.5-1.2-1.2-1.2c-0.6,0-1.2,0.5-1.2,1.2c0,0.6,0.5,1.2,1.2,1.2
				C498.1,388.6,498.6,388.1,498.6,387.4z M502.1,387.4c0-0.6-0.5-1.2-1.2-1.2c-0.6,0-1.2,0.5-1.2,1.2c0,0.6,0.5,1.2,1.2,1.2
				C501.5,388.6,502.1,388.1,502.1,387.4z M484.7,396.7c0-0.6-0.5-1.2-1.2-1.2c-0.6,0-1.2,0.5-1.2,1.2c0,0.6,0.5,1.2,1.2,1.2
				C484.2,397.9,484.7,397.4,484.7,396.7z M488.2,396.7c0-0.6-0.5-1.2-1.2-1.2c-0.6,0-1.2,0.5-1.2,1.2c0,0.6,0.5,1.2,1.2,1.2
				C487.6,397.9,488.2,397.4,488.2,396.7z M491.6,396.7c0-0.6-0.5-1.2-1.2-1.2c-0.6,0-1.2,0.5-1.2,1.2c0,0.6,0.5,1.2,1.2,1.2
				C491.1,397.9,491.6,397.4,491.6,396.7z M495.1,396.7c0-0.6-0.5-1.2-1.2-1.2c-0.6,0-1.2,0.5-1.2,1.2c0,0.6,0.5,1.2,1.2,1.2
				C494.6,397.9,495.1,397.4,495.1,396.7z M498.6,396.7c0-0.6-0.5-1.2-1.2-1.2c-0.6,0-1.2,0.5-1.2,1.2c0,0.6,0.5,1.2,1.2,1.2
				C498.1,397.9,498.6,397.4,498.6,396.7z M502.1,396.7c0-0.6-0.5-1.2-1.2-1.2c-0.6,0-1.2,0.5-1.2,1.2c0,0.6,0.5,1.2,1.2,1.2
				C501.5,397.9,502.1,397.4,502.1,396.7z M496.6,410c0-0.6-0.5-1.2-1.2-1.2c-0.6,0-1.2,0.5-1.2,1.2c0,0.6,0.5,1.2,1.2,1.2
				C496,411.2,496.6,410.7,496.6,410z M500,410c0-0.6-0.5-1.2-1.2-1.2c-0.6,0-1.2,0.5-1.2,1.2c0,0.6,0.5,1.2,1.2,1.2
				C499.5,411.2,500,410.7,500,410z M503.5,410c0-0.6-0.5-1.2-1.2-1.2c-0.6,0-1.2,0.5-1.2,1.2c0,0.6,0.5,1.2,1.2,1.2
				C503,411.2,503.5,410.7,503.5,410z M507,410c0-0.6-0.5-1.2-1.2-1.2c-0.6,0-1.2,0.5-1.2,1.2c0,0.6,0.5,1.2,1.2,1.2
				C506.5,411.2,507,410.7,507,410z M510.5,410c0-0.6-0.5-1.2-1.2-1.2c-0.6,0-1.2,0.5-1.2,1.2c0,0.6,0.5,1.2,1.2,1.2
				C510,411.2,510.5,410.7,510.5,410z M513.9,410c0-0.6-0.5-1.2-1.2-1.2s-1.2,0.5-1.2,1.2c0,0.6,0.5,1.2,1.2,1.2
				S513.9,410.7,513.9,410z M496.6,419.6c0-0.6-0.5-1.2-1.2-1.2c-0.6,0-1.2,0.5-1.2,1.2s0.5,1.2,1.2,1.2
				C496,420.8,496.6,420.3,496.6,419.6z M500,419.6c0-0.6-0.5-1.2-1.2-1.2c-0.6,0-1.2,0.5-1.2,1.2s0.5,1.2,1.2,1.2
				C499.5,420.8,500,420.3,500,419.6z M503.5,419.6c0-0.6-0.5-1.2-1.2-1.2c-0.6,0-1.2,0.5-1.2,1.2s0.5,1.2,1.2,1.2
				C503,420.8,503.5,420.3,503.5,419.6z M507,419.6c0-0.6-0.5-1.2-1.2-1.2c-0.6,0-1.2,0.5-1.2,1.2s0.5,1.2,1.2,1.2
				C506.5,420.8,507,420.3,507,419.6z M510.5,419.6c0-0.6-0.5-1.2-1.2-1.2c-0.6,0-1.2,0.5-1.2,1.2s0.5,1.2,1.2,1.2
				C510,420.8,510.5,420.3,510.5,419.6z M513.9,419.6c0-0.6-0.5-1.2-1.2-1.2s-1.2,0.5-1.2,1.2s0.5,1.2,1.2,1.2
				S513.9,420.3,513.9,419.6z"/>
		</g>
	</g>
	<g>
		<path class="st8" d="M95.4,114.5v7.1l6.8,1c0.6,3.5,2,6.7,3.9,9.6l-4.2,5.5l5.1,5.1l5.5-4.1c2.8,1.9,6.1,3.3,9.5,4l1,6.9h7.1
			l1-6.8c3.5-0.6,6.7-2,9.6-3.9l5.5,4.2l5.1-5.1l-4.1-5.5c1.9-2.8,3.3-6.1,4-9.5l6.9-1v-7.1l-6.8-1c-0.6-3.5-2-6.7-3.9-9.6l4.2-5.5
			l-5.1-5.1l-5.5,4.1c-2.8-1.9-6.1-3.3-9.5-4l-1-6.9h-7.1l-1,6.8c-3.5,0.6-6.7,2-9.6,3.9l-5.5-4.2l-5.1,5.1l4.1,5.5
			c-1.9,2.8-3.3,6.1-4,9.5L95.4,114.5z M126.7,100.9c9.6,0,17.3,7.8,17.3,17.3c0,9.6-7.8,17.3-17.3,17.3c-9.6,0-17.3-7.8-17.3-17.3
			C109.4,108.6,117.2,100.9,126.7,100.9z"/>
		<path class="st3" d="M154.1,107.7v6.1l5.9,0.8c0.5,3,1.7,5.8,3.4,8.2l-3.6,4.7l4.3,4.3l4.7-3.5c2.4,1.7,5.2,2.8,8.2,3.4l0.8,5.9
			h6.1l0.8-5.9c3-0.5,5.8-1.7,8.2-3.4l4.7,3.6l4.3-4.3l-3.5-4.7c1.7-2.4,2.8-5.2,3.4-8.2l5.9-0.8v-6.1l-5.9-0.8
			c-0.5-3-1.7-5.8-3.4-8.2l3.6-4.7l-4.3-4.3l-4.7,3.5c-2.4-1.7-5.2-2.8-8.2-3.4L184,84h-6.1l-0.8,5.9c-3,0.5-5.8,1.7-8.2,3.4
			l-4.7-3.6l-4.3,4.3l3.5,4.7c-1.7,2.4-2.8,5.2-3.4,8.2L154.1,107.7z M180.9,96c8.2,0,14.8,6.6,14.8,14.8s-6.6,14.8-14.8,14.8
			c-8.2,0-14.8-6.6-14.8-14.8S172.8,96,180.9,96z"/>
	</g>
	<g>
		<g>
			<polygon class="st18" points="253.1,117.7 248.3,122.4 267.8,174.4 283.3,122.6 278.5,117 			"/>
			<polyline class="st2" points="259.2,143.3 267.1,134.5 275.2,143.1 			"/>
			<polygon class="st8" points="263.8,138.3 266.7,145 264,162.9 267.8,174.4 271.4,160.9 269.3,145 270.8,138.5 267.1,134.5 			"/>
		</g>
		<polygon class="st18" points="253.6,102.1 253.1,117.7 267.1,134.5 278.5,117 277.8,109.8 		"/>
		<polygon class="st19" points="263.4,108.1 273.5,122.8 278.5,117 277.8,109.8 		"/>
		<g>
			<path class="st18" d="M247.6,82.2c0,0-2.3-3.2-3.9,0.5c-1.6,3.7,1.4,10.7,4.2,10.7s2.8,0,2.8,0s1.1,8.1,3.5,9.8
				c2.5,1.8,15.3,7.9,16.9,8.8c1.6,0.9,9,0.2,10.7-0.7c1.8-0.9,3.9-11.2,3.9-13.7c0-2.5-1.6-17.2-1.6-20c0-2.8,0.2-8.8-2.5-13.2
				c-2.6-4.4-10.4-8.6-21.1-6.8c-10.7,1.8-13,10.9-13.9,14.6C245.9,75.9,247.6,82.2,247.6,82.2z"/>
			<g>
				<path class="st18" d="M246.1,81l1.5,1.2C247.6,82.2,247,81.3,246.1,81z"/>
				<path class="st19" d="M274.5,62.9c3.9,1,7.6,4.6,8.9,6.1c-0.4-1.6-0.9-3.1-1.8-4.5c-2.6-4.4-10.4-8.6-21.1-6.8
					c-10.7,1.8-13,10.9-13.9,14.6c-0.9,3.7,0.9,10,0.9,10l2.5,3.9l2.3-0.7c0,0-0.4-6.3-0.2-7c0.2-0.7,3.9-3.3,3.9-4.9
					c0-1.6-4-4.6-1.2-7.7S269.6,61.7,274.5,62.9z"/>
			</g>
			<path class="st10" d="M269.4,82.9c0,1.3-0.7,2.3-1.5,2.3c-0.8,0-1.5-1-1.5-2.3s0.7-2.3,1.5-2.3C268.7,80.6,269.4,81.7,269.4,82.9
				z"/>
			<path class="st10" d="M282.9,82.9c0,1.3-0.7,2.3-1.5,2.3c-0.8,0-1.5-1-1.5-2.3s0.7-2.3,1.5-2.3C282.3,80.6,282.9,81.7,282.9,82.9
				z"/>
			<path class="st19" d="M262.9,78.9c0,0,8.8,0.5,8.8-0.4c0-0.9,0-1.2-3-1.6C265.7,76.6,262.4,77.8,262.9,78.9z"/>
			<path class="st19" d="M278,78.4c0,0,4.9-3.5,5.1-4.2c0.2-0.7-2.6-0.7-4.4,0.5C277,75.9,277.1,78,278,78.4z"/>
			<path class="st2" d="M278.4,88.4c0,0,0.5,1.4-1.1,2.3c-1.6,0.9-1.6,0.9-1.6,0.9"/>
			<line class="st2" x1="278.9" y1="97.8" x2="273.3" y2="97.8"/>
		</g>
		<polygon class="st18" points="176,211.8 170.4,189.7 181.2,189.3 		"/>
		<polygon class="st8" points="169.5,193.9 179.9,202.5 182.9,191.1 		"/>
		<g>
			<path class="st18" d="M219.2,133l-18,54l-20,2.3l-5.2,22.5c0,0,34.9,3.2,35.8,2c0.9-1.1,11.9-19.1,11.9-19.1L219.2,133z"/>
			<line class="st2" x1="218.4" y1="159.6" x2="222.4" y2="173.1"/>
			<line class="st2" x1="216.3" y1="152.4" x2="217.6" y2="156.7"/>
			<line class="st2" x1="212.5" y1="162.3" x2="219.7" y2="174.2"/>
			<path class="st2" d="M201.2,187c0,0,7,2.9,10.8,6.8"/>
			<path class="st2" d="M209.9,198.9c0.5,1.2,1,2.4,1.3,3.6"/>
			<path class="st2" d="M206,192.2c0,0,1.3,1.8,2.7,4.3"/>
		</g>
		<g>
			<path class="st9" d="M235.1,376.3c0,0-2.6,16.6-2,19.7c0.5,3.1,4.9,30.2,4.9,30.2s-2.8,3.3-2.8,4.1c0,0.8,0,5.6,0,5.6
				s-10.2,7.7-12.8,9c-2.6,1.3-5.6,3.1-4.6,4.9c1,1.8,7.2,2,11,2c3.8,0,15.4-3.1,17.4-3.6c2-0.5,2.3,0.3,6.7,0
				c4.3-0.3,6.7-2.8,6.7-4.9c0-2-0.5-11.8-0.5-11.8s-0.3-5.4-0.8-7.7c-0.5-2.3-0.5-5.6-0.5-5.6s2.3-49.4,2.6-51.4
				c0.3-2,3.8-67.3,3.8-67.3l-36.1,0.5L235.1,376.3z"/>
			<path class="st9" d="M309.5,444.9c-2.6-1.3-12.8-9-12.8-9s0-4.9,0-5.6c0-0.8-2.8-4.1-2.8-4.1s4.3-27.1,4.9-30.2
				c0.5-3.1-2-19.7-2-19.7l7.2-76.3l-36.1-0.5c0,0,3.6,65.2,3.8,67.3c0.3,2,2.6,51.4,2.6,51.4s0,3.3-0.5,5.6
				c-0.5,2.3-0.8,7.7-0.8,7.7s-0.5,9.7-0.5,11.8c0,2,2.3,4.6,6.7,4.9c4.3,0.3,4.6-0.5,6.7,0c2,0.5,13.6,3.6,17.4,3.6
				c3.8,0,10-0.3,11-2S312.1,446.2,309.5,444.9z"/>
		</g>
		<polygon class="st18" points="248.3,122.4 219.2,133 225.3,216.1 219.2,303.2 265.4,303.2 267.8,174.4 		"/>
		<polygon class="st18" points="283.3,122.6 313.6,133 307.5,216.1 313.6,303.2 265.4,303.2 267.8,174.4 		"/>
		<polyline class="st2" points="243,125 239.6,142.1 249.4,144.4 241.9,151.1 266.5,175.8 		"/>
		<polyline class="st2" points="291.2,126.8 294.3,143.3 285.3,145.5 292.2,152 269.5,175.8 		"/>
		<polyline class="st2" points="248.5,157.6 266.3,207.4 284.4,160.1 		"/>
		<rect x="257.5" y="208" class="st8" width="18.4" height="27.1"/>
		<line class="st2" x1="261.5" y1="227.2" x2="271.6" y2="227.2"/>
		<line class="st2" x1="261.5" y1="229.8" x2="271.6" y2="229.8"/>
		<rect x="263.4" y="211.5" class="st18" width="6.8" height="9.7"/>
		<path class="st8" d="M334,158l1.2-5.7c0,0-2.6-11.4-2.2-12.6c0.4-1.2,6.1-9,6.1-9l10.4,1.8c0,0-0.4,15.9-1,19
			c-0.6,3.1-6.1,15.9-6.1,15.9L334,158z"/>
		<g>
			<path class="st8" d="M346.4,134.6c0,0,4.3-0.4,4.8,0c0.5,0.3,0,11-0.6,11.5c-0.6,0.6-5,1.1-6.9,0.8c-1.9-0.3-3.3-0.6-3.3-0.6
				l-0.1-11.5L346.4,134.6z"/>
			<line class="st8" x1="351.6" y1="137.9" x2="340.2" y2="138.2"/>
			<line class="st8" x1="351" y1="142.3" x2="340.5" y2="142.5"/>
		</g>
		<path class="st8" d="M339.1,130.7c0,0,10.6-3.3,11.6-2.9c1,0.4,2,4.3,0.8,5.1c-1.2,0.8-10.4,2.2-11.2,2
			C339.5,134.6,339.1,130.7,339.1,130.7z"/>
		<path class="st8" d="M336,149.7c0,0-6.7-8.6-6.3-9.6c0.4-1,5.9-12.2,6.5-12.2c0.6,0,9.6,6.1,10.2,6.7c0.6,0.6-0.2,1.8-1.4,2.2
			c-1.2,0.4-6.1-0.4-6.1-0.4l0.2,10.2"/>
		<path class="st18" d="M313.6,133l10.4,38.3l10.2-15.5l14.3,17.5c0,0-18.3,42.8-20.2,43c-2,0.2-3.3,0-3.3,0l-16.3-20
			C308.7,196.2,309.5,153.5,313.6,133z"/>
		<line class="st2" x1="324" y1="171.3" x2="313.6" y2="190.2"/>
		<line class="st2" x1="322.5" y1="173.1" x2="312.5" y2="185.8"/>
		<line class="st2" x1="315.5" y1="157" x2="309.9" y2="177.2"/>
		<line class="st2" x1="317" y1="151.5" x2="316" y2="155.1"/>
		<g>
			<path class="st8" d="M171.2,176.7l9.8,6.9c0,0,7.6,5.4,10.6,6.4c3,1,6.9,2.4,6.9,3c0,0.7-1.5,2.7-3.2,3.2
				c-1.7,0.5-7.2-0.2-8.9-0.8c-1.7-0.7-4.9-2.7-4.9-2.7s-9.9,1.2-11.9,1.2c-2,0-10.9,0.5-10.9,0.5l0.2-11.3L171.2,176.7z"/>
			<path class="st8" d="M164.3,178.9c0,0-3.4-0.2-5.3,0.5c-1.8,0.7-0.3,14.3,0.8,14.7c1.1,0.5,3.8-1.7,3.8-1.7L164.3,178.9z"/>
			<path class="st8" d="M171.2,176.7c0,0-5.7,0.2-6.4,0.7c-0.7,0.5-1.5,14.1-1.2,15c0.3,0.8,3.7,1.3,4.5,0.7
				c0.8-0.7,3.2-11.8,3.5-13.8C172,177.2,171.2,176.7,171.2,176.7z"/>
			<path class="st8" d="M153.4,184.9c0,0-3.4,1.5-4.3,3.6s-2.2,6.1-1,6.6c1.1,0.5,4.8-5.4,4.8-5.4S153.1,185.7,153.4,184.9z"/>
			<path class="st8" d="M158.2,181.3c0,0-3,0.1-4.5,2.8c-1.5,2.6,0,11.8,1,12.3c1,0.5,1.7-0.1,2.2-0.9c0.5-0.8,1.5-6.9,1.5-6.9
				L158.2,181.3z"/>
		</g>
	</g>
	<path class="st19" d="M-577.7,193.5h-0.2c-1.1,0-2-0.9-2-2v-33h4.1v33C-575.7,192.6-576.6,193.5-577.7,193.5z"/>
	<path class="st19" d="M-577.7,115.2c-12.1,0-22,9.8-22,22c0,12.1,9.8,22,22,22s22-9.8,22-22C-555.8,125.1-565.6,115.2-577.7,115.2z
		 M-577.7,156c-10.4,0-18.8-8.4-18.8-18.8s8.4-18.8,18.8-18.8s18.8,8.4,18.8,18.8S-567.4,156-577.7,156z"/>
	<g>
		<path class="st10" d="M412.6,205.2h-5.1l-0.6-4.5c-2.1-0.4-4.1-1.2-5.9-2.4l-3.6,2.7l-3.6-3.6l2.7-3.6c-1.2-1.8-2-3.8-2.4-5.9
			l-4.4-0.6v-5.1l4.5-0.6c0.4-2.1,1.2-4.1,2.4-5.9l-2.7-3.6l3.6-3.6l3.6,2.7c1.8-1.2,3.8-2,5.9-2.4l0.6-4.4h5.1l0.6,4.5
			c2.1,0.4,4.1,1.2,5.9,2.4l3.6-2.7l3.6,3.6l-2.7,3.6c1.2,1.8,2,3.8,2.4,5.9l4.4,0.6v5.1l-4.5,0.6c-0.4,2.1-1.2,4.1-2.4,5.9l2.7,3.6
			l-3.6,3.6l-3.6-2.7c-1.8,1.2-3.8,2-5.9,2.4L412.6,205.2z M408.1,204.6h4.1l0.6-4.3l0.2,0c2.2-0.4,4.2-1.2,6-2.5l0.2-0.1l3.5,2.6
			l2.9-2.9l-2.6-3.5l0.1-0.2c1.3-1.8,2.1-3.8,2.5-6l0-0.2l4.4-0.6v-4.1l-4.3-0.6l0-0.2c-0.4-2.2-1.2-4.2-2.5-6l-0.1-0.2l2.6-3.5
			l-2.9-2.9l-3.5,2.6l-0.2-0.1c-1.8-1.3-3.8-2.1-6-2.5l-0.2,0l-0.6-4.4h-4.1l-0.6,4.3l-0.2,0c-2.2,0.4-4.2,1.2-6,2.5l-0.2,0.1
			l-3.5-2.6l-2.9,2.9l2.6,3.5l-0.1,0.2c-1.3,1.8-2.1,3.8-2.5,6l0,0.2l-4.4,0.6v4.1l4.3,0.6l0,0.2c0.4,2.2,1.2,4.2,2.5,6l0.1,0.2
			l-2.6,3.5l2.9,2.9l3.5-2.6l0.2,0.1c1.8,1.3,3.8,2.1,6,2.5l0.2,0L408.1,204.6z M410.1,196.2c-2.9,0-5.8-1.1-8.1-3.3
			c-4.4-4.4-4.4-11.7,0-16.1c4.4-4.4,11.7-4.4,16.1,0c4.4,4.4,4.4,11.7,0,16.1C416,195.1,413.1,196.2,410.1,196.2z M410.1,174
			c-2.8,0-5.5,1.1-7.7,3.2c-4.2,4.2-4.2,11.1,0,15.3c4.2,4.2,11.1,4.2,15.3,0c4.2-4.2,4.2-11.1,0-15.3
			C415.7,175,412.9,174,410.1,174z"/>
		<path class="st10" d="M418.8,166.6H415l-0.5-3.2c-1.5-0.3-2.9-0.9-4.1-1.7l-2.6,1.9l-2.7-2.7l1.9-2.6c-0.8-1.3-1.4-2.6-1.7-4.1
			l-3.2-0.5V150l3.2-0.5c0.3-1.5,0.9-2.9,1.7-4.1l-1.9-2.6l2.7-2.7l2.6,1.9c1.3-0.8,2.6-1.4,4.1-1.7l0.5-3.2h3.8l0.5,3.2
			c1.5,0.3,2.9,0.9,4.1,1.7l2.6-1.9l2.7,2.7l-1.9,2.6c0.8,1.3,1.4,2.6,1.7,4.1l3.2,0.5v3.8l-3.2,0.5c-0.3,1.5-0.9,2.9-1.7,4.1
			l1.9,2.6l-2.7,2.7l-2.6-1.9c-1.3,0.8-2.6,1.4-4.1,1.7L418.8,166.6z M415.5,166.1h2.8l0.4-3.1l0.2,0c1.5-0.3,3-0.9,4.3-1.8l0.2-0.1
			l2.5,1.9l2-2l-1.9-2.5l0.1-0.2c0.9-1.3,1.5-2.7,1.8-4.3l0-0.2l3.1-0.4v-2.8l-3.1-0.4l0-0.2c-0.3-1.5-0.9-3-1.8-4.3l-0.1-0.2
			l1.9-2.5l-2-2l-2.5,1.9l-0.2-0.1c-1.3-0.9-2.7-1.5-4.3-1.8l-0.2,0l-0.4-3.1h-2.8l-0.4,3.1l-0.2,0c-1.5,0.3-3,0.9-4.3,1.8l-0.2,0.1
			l-2.5-1.9l-2,2l1.9,2.5l-0.1,0.2c-0.9,1.3-1.5,2.7-1.8,4.3l0,0.2l-3.1,0.4v2.8l3.1,0.4l0,0.2c0.3,1.5,0.9,3,1.8,4.3l0.1,0.2
			l-1.9,2.5l2,2l2.5-1.9l0.2,0.1c1.3,0.9,2.7,1.5,4.3,1.8l0.2,0L415.5,166.1z M416.9,160.2c-2.1,0-4.2-0.8-5.8-2.4
			c-1.6-1.6-2.4-3.6-2.4-5.8c0-2.2,0.9-4.3,2.4-5.8c1.6-1.6,3.6-2.4,5.8-2.4c2.2,0,4.3,0.9,5.8,2.4c3.2,3.2,3.2,8.4,0,11.7
			C421.1,159.4,419,160.2,416.9,160.2z M416.9,144.3c-2,0-4,0.8-5.4,2.2c-1.4,1.4-2.2,3.4-2.2,5.4c0,2,0.8,4,2.2,5.4
			c3,3,7.8,3,10.8,0c3-3,3-7.8,0-10.8l0,0C420.9,145.1,419,144.3,416.9,144.3z"/>
	</g>
	<g>
		<polygon class="st8" points="369.4,101.9 370.6,106.1 338.4,114.9 336.8,109.1 350.6,105.3 351.1,106.9 		"/>
		<path class="st2" d="M370.6,106.1l5,18.3c0.3,0.9-0.3,1.9-1.2,2.1l-28.8,7.9c-0.9,0.3-1.9-0.3-2.1-1.2l-5-18.3L370.6,106.1z"/>
	</g>
</g>
<g id="Calque_12" class="st22">
	<g class="st23">
		<g>
			<g>
				<path class="st10" d="M203.4,207.5l-7.1-7.1c-0.6-0.6-0.6-1.7,0-2.3s1.7-0.6,2.3,0l7.1,7.1c0.6,0.6,0.6,1.7,0,2.3
					C205.1,208.1,204.1,208.1,203.4,207.5z"/>
			</g>
			<g>
				<path class="st10" d="M211.2,200.4c-0.3-0.3-0.5-0.7-0.5-1.1l-0.6-12.9c0-0.9,0.7-1.7,1.6-1.7c0.9,0,1.7,0.7,1.7,1.6l0.6,12.9
					c0,0.9-0.7,1.7-1.6,1.7C212,200.9,211.6,200.7,211.2,200.4z"/>
			</g>
			<g>
				<path class="st10" d="M184.9,213.3c-0.3-0.3-0.5-0.8-0.5-1.2c0-0.9,0.8-1.6,1.7-1.6l12.9,0.6c0.9,0,1.6,0.8,1.6,1.7
					c0,0.9-0.8,1.6-1.7,1.6l-12.9-0.6C185.5,213.8,185.2,213.6,184.9,213.3z"/>
			</g>
		</g>
		<g>
			<g>
				<path class="st10" d="M216.3,220.4l7.1,7.1c0.6,0.6,1.7,0.6,2.3,0s0.6-1.7,0-2.3l-7.1-7.1c-0.6-0.6-1.7-0.6-2.3,0
					C215.7,218.7,215.7,219.8,216.3,220.4z"/>
			</g>
			<g>
				<path class="st10" d="M223.4,212.6c0.3,0.3,0.7,0.5,1.1,0.5l12.9,0.6c0.9,0,1.7-0.7,1.7-1.6c0-0.9-0.7-1.7-1.6-1.7l-12.9-0.6
					c-0.9,0-1.7,0.7-1.7,1.6C222.9,211.8,223.1,212.3,223.4,212.6z"/>
			</g>
			<g>
				<path class="st10" d="M210.5,238.9c0.3,0.3,0.8,0.5,1.2,0.5c0.9,0,1.6-0.8,1.6-1.7l-0.6-12.9c0-0.9-0.8-1.6-1.7-1.6
					c-0.9,0-1.6,0.8-1.6,1.7l0.6,12.9C210,238.3,210.2,238.7,210.5,238.9z"/>
			</g>
		</g>
		<circle class="st19" cx="223.2" cy="201.1" r="6.3"/>
		<path class="st24" d="M203,226.4l-5-5c-3.2-3.2-3.2-8.4,0-11.5l10.1-10.1c3.2-3.2,8.4-3.2,11.5,0l5,5c3.2,3.2,3.2,8.4,0,11.5
			l-10.1,10.1C211.3,229.6,206.2,229.6,203,226.4z"/>
		<path class="st25" d="M215.9,208.4c3.1,3.1,7.1,4.6,11.2,4.6c1-2.4,0.5-5.3-1.5-7.3l-7.1-7.1c-2-2-4.9-2.5-7.3-1.5
			C211.3,201.2,212.8,205.3,215.9,208.4z"/>
		<line class="st2" x1="215.9" y1="208.4" x2="201" y2="223.4"/>
	</g>
</g>
<g id="Character_2">
	<g>
		<g>
			<path class="st18" d="M621.3,434.9c0,0-3.6,1.7-8.6,4.6c-5.1,2.9-8.1,3.8-7.6,5.2c0.5,1.4,4.3,1.8,10.9,2
				c6.5,0.2,11-1.4,11.8-1.4c0.7,0,6,0.2,8-0.5c2-0.7,0.5-6.2,0.5-6.2S624.4,433.7,621.3,434.9z"/>
			<path class="st18" d="M661,442.2c0,0-3.7,7.7-5,9.5c-1.3,1.7,0.4,2.6,3.5,3.7c3,1.1,7.8-1.5,11.5-3.3c3.7-1.7,4.4-9.8,4.4-9.8
				L661,442.2z"/>
			<path class="st9" d="M680.7,299c0,0,4.6,10,4.3,20c-0.2,10-10.2,50.5-9.7,55.5c0.5,5,5,9,4.5,21c-0.5,12-3.7,39.2-3.7,39.2
				s0.7,4.5,0.2,6.2c-0.5,1.7-1.2,3-1.2,3s-2.2,0-5.2,0c-3,0-8.7-1-8.7-1.7c0-0.7,1.7-6,1.7-6l0.2-5.7c0,0-4.7-49.2-5.7-57.5
				c-1-8.2-4.7-47.5-4.7-47.5s-8.5,49.5-8.7,51.2c-0.2,1.7,1.2,12-1.5,19.5c-2.7,7.5-4.5,25.7-4.5,29.7c0,4-1,14.5-1,14.5
				s-5,0-7.7-1.2c-2.7-1.2-4.7-3.2-5.5-3.5c-0.7-0.2-2.2-0.7-2.2-0.7s0.2-2,0.7-3.7c0.5-1.7,2.5-5.2,2.5-5.2l0.7-33.5
				c0,0-0.5-18.5,0-21.5c0.5-3,0.2-6,0.2-7c0-1,0-38.2,1.2-46.2c1.2-8,1.6-18.3,1.6-18.3l48.9-5.7L680.7,299z"/>
		</g>
		<path class="st8" d="M678.3,291.4l2.4,7.7c0,0-16,10.6-31.3,11.4c-15.3,0.8-20.2-2.9-21.4-3.9s0.5-7.1,0.5-7.1s17.1,1.8,25.9-0.4
			C663.2,296.9,678.3,291.4,678.3,291.4z"/>
		<polygon class="st8" points="628,276.3 620.2,284.7 618.1,287 628.3,289.8 629.3,276.6 		"/>
		<g>
			<path class="st8" d="M658.2,218.9c0,0,16.7,4.5,17.7,6.3c1.1,1.8-4.2,41.1-4.9,44.1c-0.8,3,1.5,12.4,3,14.5
				c1.5,2.1,5.8,4.3,5.8,7.9c0,3.6-24.3,12.4-33,12.4c-8.7,0-18.3-1.5-19.3-2.4c-0.9-0.9-0.1-4.2-0.1-5c0-0.8,0.2-22.1,0.2-22.1
				s-4.9-5.8-6-12.8c-1.1-7,0.4-15.8,0.4-15.8s-1.4-12.7-0.2-17.5c1.3-4.8,10.7-8.2,10.7-8.2S641.9,216.4,658.2,218.9z"/>
			<path class="st2" d="M644.4,272.3c-1.7-0.8-3.7-2.1-6-4.2"/>
			<path class="st2" d="M648.8,273.7c0,0-0.8,0-2.2-0.5"/>
		</g>
		<g>
			<path class="st19" d="M629.4,219c0,0-1.8,5.2-0.5,7.7c1.3,2.4,6.4,2.8,6.4,2.8s-0.5-1.5,0.6-4.1c1.1-2.7,2.9-6.9,2.9-6.9
				L629.4,219z"/>
			<path class="st18" d="M617.3,202c0,0,0.2,4.1,1,5.1c0.7,1,2.8,0,3.2,2.7c0.4,2.7,0.5,7.2,1.5,7.5c1,0.4,3.6-0.1,3.6-0.1
				s4.5,4.1,5.8,4.7c1.3,0.6,1.7,0.7,2.7,0c1-0.7,3.5-2.7,3.5-2.7s-1.9,5.6-1.2,7.3c0.7,1.7,3.4,4.5,6.4,1.7c3-2.8,4.9-9.1,4.9-9.1
				l-8-22.7l-22-5.2C618.7,191.2,616.3,200.3,617.3,202z"/>
			<path class="st19" d="M639.6,200.2c0,0,3.9,17.1,4.9,23.6c1,6.4-0.7,9-0.7,9s9.7-0.6,13.1-6.6c3.4-6,6.3-9.2,4.4-14.9
				c-1.9-5.7-7.3-23.8-12.4-30c-5.1-6.2-16.4-7.7-20.6-6.9c-4.3,0.7-9.1,6.3-11.3,10.4c-2.2,4.1-3.6,12.4-5.1,13.2
				c-1.5,0.9-2.8,2.9-0.6,3.5c2.2,0.6,6.2,0.5,6.2,0.5s0.2-3.9,0.9-5.7c0.6-1.8,1.1-2.9,1.1-2.9s0.7,2.1,8.9,4.5
				c8.1,2.4,11.2,1.2,11.2,1.2L639.6,200.2z"/>
			<path class="st2" d="M619.3,193.4c0,0,7.7,10.4,20.9,8.1"/>
			<path class="st2" d="M622.6,205.5c0,0,1.8-2.9,4.9-1.7"/>
			<path class="st2" d="M632,212.9c0,0,0.2,1.8-1.2,2.9"/>
			<path class="st10" d="M625.5,208.6c0.3,0.8,0.9,1.3,1.4,1.2c0.5-0.2,0.6-1,0.3-1.8c-0.3-0.8-0.9-1.3-1.4-1.2
				C625.4,207,625.2,207.8,625.5,208.6z"/>
			<polygon class="st19" points="638.6,219.2 641.6,216.1 639.6,224.9 			"/>
		</g>
		<polygon class="st28" points="625.2,302.7 654.5,289.1 610.3,283.3 587.7,292.8 		"/>
		<polygon class="st29" points="624.1,300.1 645.6,290.1 613.2,285.8 596.5,292.8 		"/>
		<polygon class="st30" points="625.2,302.7 611.5,270.7 571.6,264.4 587.7,292.8 		"/>
		<g>
			<path class="st18" d="M608.4,294.8l3.4,4.5c0,0-1.2,1.3-2.2,0.9C608.6,299.8,606.4,293.9,608.4,294.8z"/>
			<path class="st18" d="M608.3,298.7c0,0-1.5,0.4-2.3-0.1c-0.9-0.6-2.5-5.6-1.8-5.7c0.7-0.1,2.8,3.2,2.8,3.2L608.3,298.7z"/>
			<path class="st18" d="M605.9,298.6c0,0-3.7-1-4.2-1.6c-0.6-0.6-1.8-6.1-0.6-5.4c1.2,0.7,2.8,4.8,2.8,4.8L605.9,298.6z"/>
			<path class="st18" d="M601.7,297c0,0-1.9,0.3-2.5-0.7c-0.6-1-0.7-2.8-0.1-3.8c0.6-1,1.5,1.2,1.5,1.2L601.7,297z"/>
		</g>
		<g>
			<g>
				<path class="st8" d="M665.9,222.7c0,0,10.2,0.7,12.2,2.1c2,1.4,15.2,40.7,15.9,45.8c0.8,5.1-0.9,5.7-1.9,5.7
					c-0.9,0-23,7.2-25.6,7.7c-2.6,0.6-3.2,0.2-4.1-0.6c-0.9-0.8-5.5-6.2-4.1-9.4c1.3-3.2,3.6-3.8,3.6-3.8l14.3-5.3l-11.3-20.1"/>
				<path class="st2" d="M682.8,267.2c0,0-3-2.2-6.8-2.2"/>
				<path class="st2" d="M680.8,264.2c0,0,3.9,1.2,6.2,3.7"/>
			</g>
			<path class="st8" d="M650.8,276.9c0,0,6.4-2.1,7.4-2.8c0.9-0.8,3-0.2,4.1,2.5c1.1,2.6,0,7,0,7l-7.5,1.9c0,0-1.9,0.4-3.8-2.8
				C649.1,279.4,648.7,277.1,650.8,276.9z"/>
			<g>
				<path class="st18" d="M634.5,281.9c0,0-3.7,1.5-3.9,2.5c-0.2,1-1.4,5.2-1.3,6c0.1,0.9,0,1.3,1,1.1c1-0.2,2.2-2.5,3.1-4.7
					c0.9-2.2,2-5,2-5L634.5,281.9z"/>
				<path class="st18" d="M650.6,278.1c0,0,3.6,2.5,3.7,4.1c0.1,1.5-3.8,4.1-6.4,4.9c-2.5,0.9-6,0.9-6.5,0.9c-0.4,0-6.7,4.2-8.2,4.8
					c-1.5,0.7-2-0.3-2-0.3s-1.2-0.2-1.1-0.9c0.1-0.7,1-2,1-2s0.5-2.2,1.2-4.7c0.7-2.5,4.1-4.3,5.3-4.5
					C638.9,280.2,647.5,277,650.6,278.1z"/>
				<path class="st2" d="M640,285.6c0,0-3.1,1.2-3.5,1.6c-0.4,0.4-5.2,5.3-5.2,5.3"/>
				<line class="st2" x1="637.3" y1="283" x2="631.2" y2="289.6"/>
			</g>
		</g>
	</g>
</g>
<g id="Character_1">
	<g>
		<polygon class="st31" points="-566.7,266 -570.7,265.7 -572.9,272.2 -563.8,276.9 -558.1,267.3 		"/>
		<polygon class="st16" points="-620.2,243.4 -611.1,252.5 -570.7,265.7 -572.9,272.2 -620,265 		"/>
		<g>
			<path class="st32" d="M-645.6,183.9c0,0-0.3,7.7-1.1,13c-0.8,5.2-1.1,7.5-1.1,7.5l15.2,5.8c0,0-1.4-10.5,0.6-14.9
				c1.9-4.4,2.2-7.5,2.2-7.5s-5-12.2-10.2-13C-645.4,173.9-645.6,183.9-645.6,183.9z"/>
			<path class="st33" d="M-624.9,161.5c0,0,2.8-2.5-0.8-10.8c-3.6-8.3-21-7.7-29.3-0.3c-8.3,7.5-11,20.7-3.9,29.3
				c7.2,8.6,15.7,9.7,21.3,6.4c5.5-3.3,6.1-9.7,6.1-12.2c0-2.5-1.9-8.6,0.8-10.2C-628,162.1-624.9,161.5-624.9,161.5z"/>
			<g>
				<path class="st32" d="M-625.8,159.6c0,0-13,6.1-13,8.3c0,2.2,5.5,3,3.9,5.8c-1.7,2.8-2.8,3.9-2.8,3.9s2.2,3.9,0.3,4.4
					c-1.9,0.6-2.8,0.6-4.7-2.2c-1.9-2.8-3.9-4.1-4.4,0.6c-0.6,4.7,1.7,5.5,3.3,5.8c1.7,0.3,3.9,0,3.9,0s2.8,6.6,4.7,7.5
					c1.9,0.8,11.3,1.9,13.3-0.3c1.9-2.2,0.6-12.2,0.6-12.2s2.8-0.6,2.8-3c0-2.5-4.4-6.1-4.4-6.1s1.1-1.7,0.3-5.5
					C-623,162.6-625.8,159.6-625.8,159.6z"/>
				<path class="st10" d="M-625.4,173.2c0,0.9-0.4,1.6-0.8,1.6c-0.4,0-0.8-0.7-0.8-1.6c0-0.9,0.4-1.6,0.8-1.6
					C-625.7,171.6-625.4,172.3-625.4,173.2z"/>
				<path class="st2" d="M-628.9,170.4c0,0,0.4-2.3,4-1.9"/>
				<path class="st2" d="M-624.2,184.7c0,0-2.2-0.1-3.4-1.8"/>
			</g>
			<g>
				<path class="st16" d="M-660.8,425.7c0,0,2.9,6.5,5.8,8.7c2.9,2.2,8.3,1.8,9,5.4c0.7,3.6-2.2,4-4.7,4c-2.5,0-10.5,0-11.9-0.4
					c-1.4-0.4-8.3-3.2-12.6-6.8c-4.3-3.6-5.4-3.2-2.2-10.1C-674.2,419.6-660.8,425.7-660.8,425.7z"/>
				<path class="st13" d="M-646,440.5c-3.5,0.6-10.4,1.5-16.4,0c-6.1-1.5-13.2-6.9-16.8-9.9c-0.8,2.8,0.7,3.3,3.8,6
					c4.3,3.6,11.2,6.5,12.6,6.8c1.4,0.4,9.4,0.4,11.9,0.4C-648.4,443.7-645.7,443.4-646,440.5z"/>
			</g>
			<path class="st33" d="M-650,308c0,0-5,41.5-8.9,52c-4,10.5-9.9,17.1-11.4,25c-1.4,7.9-7.1,41.5-7.1,41.5s3.6,3.6,6.1,3.2
				c2.5-0.4,10.1,0.7,12.3-3.2c2.2-4,2.7-10.4,3.1-11.5c0.4-1.1,15.5-30.3,19.1-41.8c3.6-11.5,15.2-59.2,14.9-65"/>
			<path class="st33" d="M-652.7,279.5c0,0-4.4,13-2.8,24.6c1.7,11.6,14.6,17.4,23.8,15.7c9.1-1.7,15.3-8,15.3-19.1
				c0-11-1.4-20.4-1.4-20.4S-635.5,285.8-652.7,279.5z"/>
			<g>
				<path class="st16" d="M-649.3,199.5c0,0-8.3,15.5-8.8,27.9c-0.6,12.4,5.5,52.1,5.5,52.1s2.5,5,14.4,5.5
					c11.9,0.6,20.6-3.6,20.6-3.6s0.7-23.6,0.7-38.5c0-14.9-11.6-37-11.6-37L-649.3,199.5z"/>
				<path class="st2" d="M-655.7,233.9c0,0,0.7,8.7,11.3,9.8"/>
				<path class="st2" d="M-652.8,245.6c0,0,5.5,3.6,12.8,2.2"/>
				<path class="st2" d="M-649.1,280c0,0,10.6-9.1,16-17.5"/>
				<path class="st2" d="M-634.2,271.3c0,0-9.1,9.5-12.4,10.6"/>
			</g>
			<polygon class="st13" points="-651,200.1 -626.4,210 -627.8,202 -649.6,192.9 			"/>
			<g>
				<path class="st16" d="M-619.7,435.4c0,0,7.2,4.3,11.2,6.1c4,1.8,4.3,1.4,4.3,4c0,2.5,0.4,2.9-6.1,2.9c-6.5,0-25.2,0.4-27-1.1
					C-639.2,445.9-622.3,434.4-619.7,435.4z"/>
				<path class="st13" d="M-610.4,448.4c6.1,0,6.1-0.3,6.1-2.4c-18.5,0.6-27.5-0.1-31.9-1c-1.1,1.1-1.7,2-1.3,2.3
					C-635.6,448.8-616.9,448.4-610.4,448.4z"/>
			</g>
			<g>
				<path class="st33" d="M-652.2,308.7c0,0,2.5,24.9,5.8,35.7c3.2,10.8,3.2,15.5,2.2,24.9c-1.1,9.4-4.7,18-2.2,26.7
					c2.5,8.7,7.6,45.7,7.6,47.1c0,1.4-0.4,3.6,1.4,4.3c1.8,0.7,17.3-9.7,17.7-11.9c0.4-2.2-2.5-8.7-2.5-14.4s1.8-39.5,1.8-55.8
					c0-16.2,7.5-51,1.8-65.4"/>
				<path class="st34" d="M-650.1,324.4c0,0,1.7,12.1,3.7,20c2,7.9,4.1,11.6,1.6,21.4c-2.5,9.8-3.3,13.1-2.1,18"/>
			</g>
		</g>
		<g>
			
				<ellipse transform="matrix(0.9871 -0.1602 0.1602 0.9871 -39.936 -78.5052)" class="st35" cx="-506.9" cy="208.5" rx="49.4" ry="49.4"/>
			<g>
				<path class="st10" d="M-537.9,249.6l-53.7,63.1c-2.3,2.7-6.4,3.1-9.2,0.7c-2.7-2.3-3.1-6.4-0.7-9.2c0.2-0.3,58.2-59.1,58.4-59.4
					C-539.9,241.8-535.1,246.2-537.9,249.6L-537.9,249.6z"/>
			</g>
		</g>
		<g>
			<path class="st16" d="M-646.1,214.5c0,0-5,7.2-4,14.4c1.1,7.2,17,38.7,18.8,41.2c1.8,2.5,13.7,5,14.8-5
				c1.1-10.1-12.7-35.1-14.8-42.3c-2.2-7.2-6.8-8.7-6.8-8.7"/>
			<path class="st16" d="M-619.2,257.5c0,0,10.6,1.3,18,5.8c7.4,4.5,23.2,10.6,23.2,10.6l-1.7,7c0,0-18.1-0.8-29.1-2.8
				c-11-2-18.1-3-22.2-8.8"/>
		</g>
		<path class="st31" d="M-578,274c0,0,5.8-0.1,6.7-1c0.9-0.9,10.1,4.8,10.1,4.8s0.4,1.5-0.6,2c-0.9,0.6-2.2,0.9-2.2,0.9
			s-2.4,4.3-3.9,4.8c-1.5,0.6-5.6-0.4-7.4-1.1s-4.3-3.5-4.3-3.5L-578,274z"/>
		<path class="st31" d="M-555.7,271.4l-3.5-1.6c-0.6-0.3-0.9-1-0.6-1.7l0.1-0.2c0.3-0.6,1-0.9,1.7-0.6l3.5,1.6
			c0.6,0.3,0.9,1,0.6,1.7l-0.1,0.2C-554.3,271.4-555.1,271.7-555.7,271.4z"/>
		<path class="st31" d="M-560.9,277.8l-1.8-0.9c-0.6-0.3-0.9-1-0.6-1.7l0,0c0.3-0.6,1-0.9,1.7-0.6l1.8,0.9c0.6,0.3,0.9,1,0.6,1.7
			l0,0C-559.5,277.8-560.2,278.1-560.9,277.8z"/>
		<path class="st31" d="M-559.5,275.6l-2.7-1.3c-0.6-0.3-0.9-1-0.6-1.7l0,0c0.3-0.6,1-0.9,1.7-0.6l2.7,1.3c0.6,0.3,0.9,1,0.6,1.7
			l0,0C-558.1,275.7-558.9,275.9-559.5,275.6z"/>
		<path class="st31" d="M-557.9,273.8l-3.5-1.6c-0.6-0.3-0.9-1-0.6-1.7l0.1-0.2c0.3-0.6,1-0.9,1.7-0.6l3.5,1.6
			c0.6,0.3,0.9,1,0.6,1.7l-0.1,0.2C-556.5,273.8-557.2,274.1-557.9,273.8z"/>
		<path class="st31" d="M-569.1,266.6c0,0,6.8-2.6,7.4-2.8c0.6-0.2,5.6,2.6,5.6,2.6s-0.6,3.4-0.9,4.3c-0.4,0.9-2.1,1.5-2.4,0.2
			c-0.4-1.3-0.4-2.4-0.4-2.4s-2.1,0.9-3.7,1.1c-1.7,0.2-4.1-0.6-4.1-0.6"/>
	</g>
</g>
</svg>
